<?xml version="1.0" standalone="no"?>
<!DOCTYPE svg PUBLIC "-//W3C//DTD SVG 1.1//EN" "http://www.w3.org/Graphics/SVG/1.1/DTD/svg11.dtd" >
<svg xmlns="http://www.w3.org/2000/svg">
<metadata>
This is a custom SVG webfont generated by Font Squirrel.
Copyright   :  Ray Larabie 2004 Do not distribute Report piracy to piracytypodermiccom Visit wwwtypodermiccom and wwwlarabiefontscom
Designer    : Ray Larabie
Foundry     : Ray Larabie
Foundry URL : httpwwwtypodermiccom
</metadata>
<defs>
<font id="BoopeeRegular" horiz-adv-x="333" >
<font-face units-per-em="1000" ascent="800" descent="-200" />
<missing-glyph horiz-adv-x="273" />
<glyph unicode=" "  horiz-adv-x="273" />
<glyph unicode="&#x09;" horiz-adv-x="273" />
<glyph unicode="&#xa0;" horiz-adv-x="273" />
<glyph unicode="!" horiz-adv-x="166" d="M57 127q11 0 21 -6.5t17.5 -16.5t11.5 -22t4 -23q0 -8 -1.5 -17.5t-5.5 -17.5t-9.5 -13.5t-13.5 -5.5q-9 0 -20.5 2.5t-21 9.5t-16.5 17.5t-7 27.5q0 10 1.5 21.5t6 21.5t12.5 16t21 6zM100 697q9 0 16.5 -6t13 -15t8.5 -18.5t3 -16.5q-2 -75 -8.5 -159.5t-14.5 -162.5 q-2 -20 -2.5 -39.5t-4 -35t-12.5 -25t-28 -9.5q-7 0 -13 10.5t-6 46.5q0 24 1 65.5t3 89.5t5.5 97t9 88.5t12.5 64.5t17 25z" />
<glyph unicode="&#x22;" horiz-adv-x="210" d="M153 764q11 0 17.5 -13t9.5 -34.5t4 -48t1 -53.5q0 -31 -2 -54.5t-7 -23.5q-17 0 -26.5 11.5t-14 27.5t-5.5 33.5t-1 29.5q0 25 1 48t4 40t7.5 27t11.5 10zM61 764q8 0 21.5 -15t13.5 -44q0 -19 -0.5 -48.5t-2 -57.5t-4 -48t-5.5 -20q-14 0 -23 14t-15 32.5t-8.5 37.5 t-2.5 28q0 22 2 43.5t5.5 38.5t8 28t10.5 11z" />
<glyph unicode="#" horiz-adv-x="585" d="M396 642q35 0 35 -37q0 -14 -9 -33l-20 -41q-10 -23 -18.5 -48.5t-8.5 -52.5q15 3 24 3q4 0 14 -2t31 -7q18 34 23 66.5t7.5 57.5t7 40t22.5 15q23 0 35.5 -16t12.5 -38q0 -20 -8.5 -42.5t-13.5 -42.5q28 -19 28 -33q0 -16 -7.5 -27.5t-30.5 -11.5q-4 0 -8.5 0.5 t-9.5 1.5q3 -17 3 -33q0 -28 -6 -53.5t-12 -39.5q12 0 26 -1t26 -5t20 -10.5t8 -18.5q0 -13 -5 -19.5t-16.5 -10t-30 -5t-45.5 -4.5q0 -12 -5 -32.5t-13.5 -39.5t-19.5 -33t-24 -14q-18 0 -22.5 7.5t-4.5 26.5q0 14 10 29t10 35q0 13 -5.5 20.5t-14.5 11t-20.5 4.5t-23.5 1 q-27 0 -42.5 -14t-24 -35.5t-12.5 -46.5t-8.5 -46.5t-11.5 -35.5t-21 -14q-12 0 -16 9t-4 23q0 18 2.5 33.5t6.5 33.5l9 41q5 22 9 53q-15 4 -24.5 6t-15 4t-8.5 5.5t-5 11.5q1 14 8 21t18 10t24.5 4t27.5 3q-2 5 -2 9v9q0 11 0.5 23.5t2.5 24.5q-38 0 -67.5 -4t-55.5 -9 l-52 -8q-25 -4 -54 -4q-5 0 -8 1.5t-7 8.5q4 15 28 26.5t61.5 21.5t85.5 18.5t99 16.5q4 35 19.5 76t34.5 75.5t36.5 57.5t25.5 23zM388 369q-17 0 -30 -8.5t-21 -21t-12 -28t-4 -29.5q0 -21 14.5 -28.5t32.5 -7.5q20 0 31.5 8t17.5 21t7.5 28t1.5 30q0 20 -7 28t-31 8z" />
<glyph unicode="$" horiz-adv-x="322" d="M112 68q0 18 3 46.5t8 48.5q-19 -2 -29 -4t-17 -2q-3 0 -12.5 3.5t-20.5 12t-19.5 22t-8.5 33.5q0 22 7.5 31.5t19.5 9.5q13 0 18 -9.5t8.5 -21.5t9 -21.5t20.5 -9.5q6 0 11 3.5t9.5 15t10 32t12.5 54.5q-23 10 -41.5 20t-31.5 22.5t-20 30t-7 41.5q2 18 10.5 26t22 11.5 t32 6t40.5 9.5q19 150 59 150q15 0 24 -9.5t9 -20.5q0 -8 -1 -22t-3 -31l-5 -35q-3 -18 -6 -33q32 -4 54.5 -17.5t22.5 -23.5q0 -4 -4 -6t-15 -2q-7 0 -17 1.5t-19 1.5q-17 0 -26 -9.5t-13.5 -20.5t-5.5 -21t-1 -11q0 -13 14 -17l31 -9q17 -5 31 -15.5t14 -37.5 q0 -26 -8 -42.5t-22 -28.5t-33.5 -22.5t-43.5 -25.5q-7 -24 -9.5 -49.5t-5.5 -47t-9.5 -36t-20.5 -15.5q-19 0 -22.5 12.5t-3.5 31.5zM207 306q-10 0 -15.5 -7t-8.5 -16.5t-3.5 -19.5t-0.5 -17v-8q23 0 39 9t16 29q0 11 -5 20.5t-22 9.5zM98 413q0 -5 8.5 -16t17.5 -11 q7 0 13.5 6t6.5 15q0 4 -4.5 12.5t-9.5 13.5q-20 0 -26 -5.5t-6 -14.5z" />
<glyph unicode="%" horiz-adv-x="504" d="M449 737q16 0 22.5 -6t6.5 -15q0 -15 -10 -28l-19 -24q-5 -5 -20 -30l-35 -60l-45 -74q-25 -39 -50 -70l-46 -58l-53 -68l-54 -70l-48 -61q-21 -27 -35.5 -43.5t-17.5 -16.5q-8 0 -12.5 7t-7.5 16.5t-4 19t-1 15.5q1 16 9 29.5t19 25.5l25 27q14 15 28 33q32 45 66 85 t60 86q19 34 35 55t31 36l28 30q14 15 29 37q10 18 18.5 39t19 39.5t25 31t36.5 12.5zM320 281q10 0 17.5 -7t15.5 -18l17 -24q10 -12 24 -24q13 -11 23 -18.5t16.5 -15.5t9.5 -18t3 -26q0 -38 -18 -61t-42 -35.5t-47.5 -17t-33.5 -4.5q-7 3 -25.5 14t-38 26t-34.5 32 t-15 33q0 23 14 39l32 38q9 12 18.5 27t19.5 28.5t21 22.5t23 9zM99 693q28 0 44.5 -16.5t24.5 -40.5t10 -51.5t2 -49.5q0 -7 -2 -14t-8.5 -13t-19 -9.5t-32.5 -3.5q-3 0 -19 2.5t-33.5 10.5t-31.5 22t-14 38q0 23 3 45.5t11.5 40t24 28.5t40.5 11zM323 190q-5 0 -16.5 -7.5 t-23 -18t-20.5 -22t-9 -19.5q0 -20 18.5 -34.5t36.5 -14.5q10 0 22 4.5t22 12t17 18t7 23.5q0 3 -6.5 12t-15.5 19.5t-18 18.5t-14 8zM90 630q-20 0 -26.5 -10t-6.5 -21q0 -9 1 -19t4.5 -17.5t11 -12.5t19.5 -5q14 0 25.5 9t11.5 23q0 25 -6.5 39t-33.5 14z" />
<glyph unicode="&#x26;" horiz-adv-x="405" d="M219 477q14 0 18.5 -15.5t4.5 -28.5q0 -6 -0.5 -11t-1 -11.5t-1.5 -17t-2 -27.5q29 -6 57 -8t49.5 -4t35 -7.5t13.5 -17.5q0 -6 -8 -10t-40 -4q-34 0 -97 3q0 -10 -1 -17l-3 -15q-2 -7 -3 -16.5t-1 -25.5q0 -29 4 -55.5t4 -68.5q0 -6 -9 -11t-21 -8t-23.5 -4.5 t-16.5 -1.5q-9 0 -12.5 5.5t-3.5 12.5q0 11 6 17l13 14q6 7 12 15.5t6 23.5q0 32 -7.5 59t-7.5 49q0 23 -13 36q-35 -1 -51.5 -5.5t-27.5 -9.5t-23 -9t-38 -4q-9 0 -15 6t-6 18q0 14 9 24.5t21.5 17t25 10t19.5 3.5q9 1 15.5 2t16 1.5t25 1.5t41.5 2q2 33 4 51.5t6 27.5 t10 11t17 2z" />
<glyph unicode="'" horiz-adv-x="137" d="M61 764q8 0 21.5 -15t13.5 -44q0 -19 -0.5 -48.5t-2 -57.5t-4 -48t-5.5 -20q-9 0 -18 10.5t-15.5 27t-11 36.5t-4.5 38q0 22 2 43.5t5.5 38.5t8 28t10.5 11z" />
<glyph unicode="(" horiz-adv-x="260" d="M217 738q13 0 16 -6t3 -18q0 -23 -21 -44q-33 -33 -60 -67.5t-45.5 -74.5t-29 -87.5t-10.5 -106.5q0 -44 8.5 -88.5t20.5 -84.5t26 -71.5t26 -47.5q11 -15 19.5 -29t8.5 -31q0 -5 -1.5 -10t-4.5 -5q-20 0 -34 14.5t-23 32.5t-14.5 34.5t-8.5 21.5q-14 21 -28.5 50.5 t-26 65t-18.5 76.5t-7 85q0 20 8.5 56.5t23.5 80t35 88.5t42.5 82t46.5 60.5t48 23.5z" />
<glyph unicode=")" horiz-adv-x="208" d="M76 751q12 0 20.5 -12t15 -31t11.5 -42l11 -46q4 -20 12.5 -44.5t17 -55.5t15 -67.5t6.5 -78.5q0 -23 -2 -48.5t-5.5 -50t-7 -45t-6.5 -32.5q-6 -24 -17 -62.5t-25 -75t-30.5 -63t-34.5 -26.5q-23 0 -23 10q1 11 15.5 31t31.5 58q12 27 23 57t19.5 60.5t13 60.5t4.5 56 q0 77 -13 143t-29 119t-29 91.5t-13 59.5q0 11 3 22.5t16 11.5z" />
<glyph unicode="*" horiz-adv-x="552" d="M257 703q21 0 34 -4t20 -10t9 -14t2 -17t-2 -20l-5 -22l-5 -21q-3 -11 -3 -19q0 -6 4 -6q10 0 27 8l35 16q19 9 38.5 16.5t36.5 7.5q11 0 22.5 -8.5t11.5 -25.5q0 -15 -18.5 -28t-41.5 -24t-43 -19t-22 -12q5 -6 23.5 -7.5t38 -6t35 -15t15.5 -34.5q0 -9 -6.5 -14.5 t-15 -9.5t-17 -5.5t-12.5 -1.5q-11 0 -27 4.5t-32 10.5l-30 10q-14 4 -21 4q-5 0 -6 -19t-3 -41.5t-8 -41.5t-20 -19q-21 0 -26 21t-6.5 46t-5 46t-20.5 21q-13 0 -30.5 -6t-34.5 -11q-6 -14 -21 -23t-36 -9q-7 0 -12.5 5.5t-9 13t-5.5 15t-2 11.5q0 19 16 31.5t35.5 20.5 t36 13t16.5 10t-16 13l-37 19q-20 10 -36.5 22.5t-16.5 26.5q0 23 18 23q9 0 30 -11l43 -23l44 -24q21 -11 31 -11q6 0 6 23t0.5 51t5 51t19.5 23z" />
<glyph unicode="+" horiz-adv-x="404" d="M163 110q0 10 6 17.5t13.5 15t14 17t6.5 23.5q0 16 -1 40t-6.5 47t-17.5 39.5t-34 16.5q-16 0 -29.5 -4t-26.5 -9.5t-25.5 -9.5t-26.5 -4q-10 0 -17.5 4.5t-7.5 14.5q0 29 20 40t49 16l59 10q30 6 50 23q0 12 1 24.5t4.5 23t10 17t18.5 6.5t15.5 -13.5t3.5 -30.5 q0 -8 -2 -21l-2 -21l18 -19q11 -11 33.5 -13t45.5 -3.5t40 -7t17 -23.5q0 -3 1 -6t5 -4h-133q-9 0 -14 -7.5t-8 -17t-4 -18.5t-1 -12q0 -32 7 -52t7 -37q0 -37 -15.5 -56.5t-57.5 -19.5q-16 0 -16 14z" />
<glyph unicode="," horiz-adv-x="141" d="M36 167q0 12 1.5 15t4.5 3q23 0 42.5 -23.5t19.5 -65.5v-96q0 -6 -4 -14t-10 -15t-12 -12t-10 -5q-10 0 -16 26.5t-9.5 62t-5 71t-1.5 53.5z" />
<glyph unicode="-" horiz-adv-x="313" d="M243 345q17 0 34 -3.5t17 -19.5q0 -9 -7 -15t-18.5 -9t-25.5 -4t-28 -1q-39 0 -71 2.5t-67 2.5q-11 0 -16 -1t-9 -2.5t-8.5 -2.5t-14.5 -1q-18 0 -18 14q0 18 10 31t30 13q29 0 48 -5t44 -5q17 0 30 1t24 2l22 2q11 1 24 1z" />
<glyph unicode="." horiz-adv-x="174" d="M88 76q23 0 32 -7.5t9 -27.5q0 -8 -0.5 -18.5t-4.5 -19.5t-11.5 -15.5t-22.5 -6.5q-5 0 -11.5 3t-13.5 9.5t-11.5 16.5t-4.5 24q0 42 39 42z" />
<glyph unicode="/" horiz-adv-x="400" d="M9 41q0 16 11 42t27 56.5t34 61.5l32 57l29 52l32 53l30 48l26 37q27 39 43 76t34 68q6 11 10.5 25t10.5 27t14.5 21.5t22.5 8.5q12 0 19 -5.5t7 -25.5q0 -25 -14.5 -54.5t-32.5 -57.5l-34 -51q-15 -23 -16 -33q-2 -11 -15 -41t-40 -65l-35 -46q-17 -24 -30 -48 q-6 -12 -18 -34l-27 -48l-30 -53l-30 -50q-14 -22 -25 -36t-16 -14q-11 0 -15 9t-4 20z" />
<glyph unicode="0" horiz-adv-x="335" d="M38 370q0 72 21 107.5t59 50.5q42 17 68 30.5t47 13.5t33 -17.5t20 -43.5q4 -15 6.5 -27t3.5 -30.5t1 -47.5v-78q0 -42 -4.5 -88.5t-19.5 -86t-44 -65.5t-78 -26q-39 0 -61.5 26.5t-34 70t-14.5 99t-3 112.5zM76 381q0 -26 1.5 -67t10.5 -80.5t28 -68t54 -28.5 q27 0 43.5 17t25.5 42t11.5 54.5t2.5 54.5v12q0 6 -0.5 13t-1.5 17t-3 25q-8 -3 -12 -3q-6 0 -9 20t-5.5 44t-6 45.5t-10.5 24.5q-6 0 -26.5 -6t-43.5 -20t-41 -37.5t-18 -58.5z" />
<glyph unicode="1" horiz-adv-x="139" d="M64 501q14 0 21 -11t7 -20q0 -11 -1 -26.5t-1 -36.5q0 -38 3 -83l5 -90l5 -93q2 -46 2 -88q0 -13 -6 -17.5t-20 -4.5t-16.5 11.5t-2.5 29.5v44l-1 36q-1 18 -2 39t-2 52q-1 33 -6.5 57.5t-11.5 44t-10.5 38t-4.5 39.5q0 12 2 25.5t7 25.5t13 20t20 8z" />
<glyph unicode="2" horiz-adv-x="421" d="M190 472q37 0 52.5 -27t15.5 -65q0 -21 -4.5 -44.5t-12 -45.5t-18 -41t-22.5 -32q-7 -8 -20 -19l-27 -24l-27 -26q-14 -13 -22 -24q8 -14 28 -22.5t44 -14.5t49.5 -9.5t44.5 -6.5q13 -2 35.5 -7t44 -12.5t37 -17.5t15.5 -22q0 -9 -2.5 -13.5t-11.5 -4.5q-32 0 -55 7 t-52 18q-13 5 -38 10l-54 13l-61 15q-31 8 -56 18t-41 22t-16 27q0 10 14 22.5t36 28.5l46 35q24 19 45.5 42t35.5 49.5t14 57.5q0 25 -14.5 31t-30.5 6t-27 -5.5t-21 -11.5l-18 -11q-9 -6 -21 -6q-7 0 -11.5 1t-4.5 6q0 7 4 17.5t11 22.5t15 23t16 19q12 13 28.5 17t56.5 4 z" />
<glyph unicode="3" horiz-adv-x="399" d="M56 555q19 0 35.5 -3t34 -7t37.5 -8t46 -6q24 -2 46 -7t39 -13.5t27 -21t10 -30.5q0 -8 -1 -13t-1 -9q0 -7 7 -25l14 -40q8 -21 14.5 -42t6.5 -33t-7 -27.5t-21 -26.5q6 -4 10.5 -12.5t7.5 -18t4 -18.5t1 -15q0 -5 -4 -10.5l-10 -13.5l-17 -19q-10 -11 -22 -28 q-10 -14 -19.5 -25t-22 -18t-31.5 -10.5t-49 -3.5q-16 0 -43 4t-53.5 12.5t-45.5 21.5t-19 31q0 9 7.5 11t17.5 2q19 0 36 -6.5t34.5 -14t36 -13.5t39.5 -6q16 0 32.5 11.5t31 27t25 31.5t14.5 25q0 21 -12 32.5t-29.5 18t-38.5 9t-38.5 5.5t-29.5 7.5t-12 14.5 q0 15 15.5 27t32.5 12q29 0 57.5 -3.5t53.5 -11.5q1 7 1.5 13.5t0.5 13.5q0 37 -12 68t-35 54t-57.5 36t-79.5 13q-26 0 -36 -3.5t-24 -3.5q-17 0 -21 10t-4 29q0 17 5.5 21.5t14.5 4.5z" />
<glyph unicode="4" horiz-adv-x="256" d="M133 -7q-19 0 -25 18t-6 45q0 15 1 44t2.5 59.5t3 56.5t2.5 36q-27 10 -47 13.5t-32.5 7.5t-18.5 10.5t-6 22.5q0 20 7.5 44.5t7.5 54.5q0 10 -3.5 19.5t-3.5 29.5q0 14 3.5 27t17.5 13q15 0 20.5 -19.5t5.5 -45.5q0 -30 -4 -60.5t-6 -42.5q11 -7 33.5 -13t51.5 -7 q1 57 7 101t14 78l13 61q6 26 7 48q2 32 5.5 43.5t20.5 11.5q8 0 10 -4t2 -9q0 -39 -4 -77l-8 -79q-5 -41 -9 -85t-4 -93q5 -5 19 -8t28.5 -7.5t26 -11.5t11.5 -19q0 -14 -24 -19.5t-87 -5.5q1 -13 2 -37t1 -49q0 -20 -1.5 -46.5t-5.5 -50t-11 -39.5t-17 -16z" />
<glyph unicode="5" horiz-adv-x="345" d="M185 -33q-66 0 -115.5 14.5t-85 37t-58 49.5t-36 51.5t-18.5 43t-5 24.5q0 10 4 12.5t10 2.5t15 -7.5t19.5 -20.5t22.5 -30l24 -37q15 -23 28.5 -37.5t32 -23.5t44.5 -12.5t65 -3.5q30 0 50 13.5t32 35t17 47.5t5 51q0 19 -10.5 31.5t-27.5 19.5t-38.5 9.5t-43.5 2.5 q-14 0 -27 -0.5t-24 -1.5q3 21 6 49l8 58q4 30 9.5 59t12.5 51.5t15.5 36.5t19.5 14q22 0 58.5 -6.5t70.5 -16t59 -19.5t25 -17q0 -10 -19 -10q-22 0 -63.5 7t-90.5 7q-18 0 -27.5 -9t-14.5 -23q-4 -13 -6.5 -44t-4.5 -97q57 -1 88 -8.5t46 -24t18 -42.5t3 -65 q0 -12 -3.5 -40t-13.5 -57.5t-28.5 -51.5t-47.5 -22z" />
<glyph unicode="6" horiz-adv-x="320" d="M297 566q12 0 22 -2.5t10 -14.5q0 -13 -14 -22t-33 -17l-40 -15q-20 -7 -33 -17q-39 -29 -60.5 -75.5t-43.5 -112.5q19 13 46 13q138 0 138 -167q0 -69 -16 -82q-13 -11 -28.5 -20t-30.5 -15.5t-27 -10t-19 -3.5q-39 0 -66.5 5t-45 22t-26 49.5t-8.5 87.5q0 12 1.5 25 t6 32t12.5 46l20 66q36 117 60 146q16 19 37.5 34.5t44.5 26t47 16t46 5.5zM168 243q-10 0 -18 -4.5t-16 -10.5t-17 -13.5t-21 -13.5q-10 -5 -16 -9.5t-9.5 -12t-4.5 -19t-1 -30.5q0 -36 18 -55.5t48 -19.5q18 0 38.5 9.5t37.5 24.5t28.5 34.5t11.5 39.5q0 13 -8.5 27 t-21 26t-26 19.5t-23.5 7.5z" />
<glyph unicode="7" horiz-adv-x="302" d="M38 15q0 16 10 37t24 43l29 44q15 21 25 38q3 5 12 26l20 48l25 59q13 32 23.5 60.5t17.5 50t7 29.5q0 10 -2.5 18t-16.5 10q-8 -1 -16 -1h-15q-13 0 -43 1.5t-60.5 4.5t-54 8t-23.5 12q0 8 9 10.5t25 2.5q13 0 27.5 -2.5t23.5 -7.5h214q2 0 3.5 -4.5t1.5 -10.5l2 -12v-7 q0 -31 -9 -62t-22.5 -61.5t-29 -61t-28.5 -60.5l-15 -34l-22 -52l-27 -58q-14 -29 -27.5 -53.5t-24.5 -40t-17 -15.5q-17 0 -31.5 11.5t-14.5 29.5z" />
<glyph unicode="8" horiz-adv-x="358" d="M191 36q-48 0 -74.5 7.5t-41 21t-21.5 30.5t-17 37q-2 5 -6 26.5t-4 53.5q0 22 11.5 41.5t27.5 38t32.5 35.5t26.5 34q-10 16 -21 30t-20.5 27.5t-15.5 27t-6 28.5q0 24 18 41.5t43.5 28.5t53.5 16t48 5q9 0 26 -4t34.5 -11t30.5 -16t13 -19q0 -15 -11.5 -35.5t-28 -41 t-35.5 -39t-33 -29.5q14 -23 33 -39l35 -33q17 -17 28.5 -35t11.5 -44q0 -18 -4.5 -37t-11.5 -37t-14.5 -35t-13.5 -32q-8 -19 -32 -30.5t-62 -11.5zM78 174q0 -42 26.5 -68t65.5 -26q27 0 46.5 12.5t32.5 31.5t19 41.5t6 43.5q0 43 -27.5 69.5t-65.5 42.5q-14 -9 -32 -28.5 t-33.5 -42t-26.5 -43.5t-11 -33zM124 464q0 -17 7.5 -32.5t27.5 -29.5q44 38 60 57.5t16 39.5q0 1 -2.5 5.5t-6.5 9.5t-9.5 9.5t-10.5 4.5q-9 0 -22.5 -6.5t-27 -16t-23 -21t-9.5 -20.5z" />
<glyph unicode="9" horiz-adv-x="385" d="M266 529q17 0 35 -4.5t32.5 -12.5t23.5 -20.5t9 -27.5q0 -7 -1 -17t-3 -21t-7 -22t-12 -18v-291q0 -9 -1 -24t-5 -29.5t-11 -25.5t-19 -11q-17 0 -26 11t-9 30q0 26 10 57t10 66q0 28 -1 58.5t-3 56.5l-34 -23q-10 -7 -24 -7q-16 0 -39 6t-48 14q-18 6 -38 14.5t-37 18.5 t-28 22t-11 26q0 34 24 65.5t60 55.5t77 38.5t76 14.5zM265 479q-11 0 -37.5 -14t-53.5 -33.5t-48 -39.5t-21 -33q0 -8 8.5 -16t20.5 -15t25.5 -11t23.5 -4q18 0 36.5 12.5t34.5 32.5t26 46t10 52q0 11 -5.5 17t-19.5 6z" />
<glyph unicode=":" horiz-adv-x="217" d="M45 342q0 10 9 19.5t21.5 16t26 10.5t22.5 4t18.5 -5.5t17 -14.5t12 -19.5t4.5 -20.5q0 -9 -2 -20.5t-6 -21.5t-10.5 -17t-15.5 -7q-8 0 -12 3.5t-9 9.5q-14 16 -27.5 22.5t-24.5 11t-17.5 10t-6.5 19.5zM51 123q0 10 5.5 20.5t14.5 19.5t19.5 14.5t19.5 5.5 q20 0 27.5 -14t7.5 -34q0 -23 -15.5 -39t-38.5 -16q-15 0 -27.5 13t-12.5 30z" />
<glyph unicode=";" horiz-adv-x="230" d="M40 -29q0 20 11 38t24.5 37t25 39.5t11.5 45.5q0 8 -3.5 16t-3.5 22q0 3 2 6.5t4 3.5q11 0 20.5 -6.5t16 -16t10.5 -21t4 -21.5q0 -16 -7 -48t-19.5 -63.5t-29.5 -55.5t-36 -24q-17 0 -23.5 15.5t-6.5 32.5zM66 325q0 7 6.5 21.5t18 29.5t26.5 26t32 11q13 0 22 -7.5 t13.5 -18.5t6.5 -24t2 -25q0 -22 -9 -33.5t-23 -17t-31.5 -6.5t-33.5 -1q-17 0 -23.5 14t-6.5 31z" />
<glyph unicode="&#x3c;" horiz-adv-x="344" d="M260 488q9 0 11.5 -6.5t2.5 -14.5q0 -15 -10.5 -29.5t-31.5 -34t-53 -44.5l-76 -63q13 -17 30.5 -25t35 -12t33.5 -7t27 -10q13 -9 28 -16l27 -14q13 -6 21.5 -11.5t8.5 -10.5q0 -18 -11 -22.5t-28 -4.5q-31 0 -57.5 12.5t-55.5 24.5q-14 4 -38.5 9t-49.5 14.5t-43 24 t-18 37.5q0 19 13.5 35.5t34.5 31.5l39 25l49 31l46 30q21 14 30 22q10 8 15 14l9 8q3 3 5 4.5t6 1.5z" />
<glyph unicode="=" horiz-adv-x="426" d="M337 413q12 0 22.5 -2.5t10.5 -10.5q0 -24 -27.5 -37.5t-64.5 -20t-74 -8.5t-56 -2q-64 0 -96.5 4.5t-32.5 17.5q0 23 4.5 29.5t11.5 6.5q43 0 80.5 3.5t73.5 8t72 8t76 3.5zM379 277q15 0 24.5 -2.5t9.5 -16.5t-3.5 -21.5t-10 -10.5t-14.5 -3.5t-17 -1.5q-32 -5 -64 -9 t-62 -6.5t-55.5 -4t-43.5 -1.5h-50q-11 0 -18 -3t-13 -7t-11 -7t-10 -3q-18 0 -18 21q0 4 2.5 13.5t8.5 19t16.5 16.5t27.5 7q25 0 49.5 -3t51.5 -3t52.5 4t50.5 9t49 9t48 4z" />
<glyph unicode="&#x3e;" horiz-adv-x="391" d="M68 455q6 0 10.5 -1t11.5 -4l19 -8q12 -5 33 -13q12 -5 38 -14l55 -18l55 -18q27 -9 41 -13q29 -9 38.5 -14.5t9.5 -13.5q0 -26 -11 -45t-28 -36q-24 -22 -51 -37l-56 -30l-57 -32t-56 -43q-16 -15 -34.5 -21.5t-33.5 -6.5q-9 0 -15 2t-6 10q0 10 16 25.5t40.5 33.5 t52.5 36l52 33l40 23l16 9l13 11l18 15q10 8 18.5 16t14.5 16q-11 16 -47.5 31.5t-87.5 27.5q-24 6 -47 12.5t-41 14t-29 16.5t-11 20q0 16 19 16z" />
<glyph unicode="?" horiz-adv-x="352" d="M191 719q9 0 23.5 -1t17.5 -6q16 -29 34.5 -58t34.5 -59.5t26.5 -63.5t10.5 -71q0 -43 -20.5 -70.5t-49.5 -44.5q-30 -17 -63 -25l-56 -12q0 -37 2.5 -61t2.5 -49q0 -12 -2.5 -22.5t-13.5 -10.5q-10 0 -18.5 23t-15 54.5t-10 64t-3.5 52.5q24 6 47.5 14.5t43.5 17.5 t35 17.5t23 15.5q20 19 37.5 43.5t17.5 44.5q0 4 -7.5 16t-18.5 28l-25 33l-26 33l-20 24q-8 10 -9 10q-15 0 -27.5 -4t-25.5 -9t-27 -9t-32 -4q-14 0 -26 3t-12 16q0 10 5 15.5t13 8.5t17.5 4.5t18.5 3.5q21 4 33 10.5t22 12.5t19 10.5t24 4.5zM161 96q23 0 27.5 -18.5 t4.5 -40.5t-9 -36.5t-41 -14.5q-33 0 -55 18.5t-22 52.5q0 13 11 21t26 12t31 5t27 1z" />
<glyph unicode="@" horiz-adv-x="541" d="M344 463q12 0 20 -4.5t8 -16.5q0 -14 -5.5 -22.5t-20.5 -11.5q3 -17 3 -37q0 -23 -7 -38q13 -30 34 -30q18 0 33.5 9.5t27.5 24t20 31t11 31.5q-6 19 -13 44.5t-19.5 48.5t-32 39t-49.5 16q-50 0 -100 -28.5t-91 -72t-66.5 -94.5t-25.5 -95q0 -27 8 -54t24 -48.5 t39.5 -35.5t54.5 -14q11 0 18 2t13 4q2 1 15 4t32.5 8t43 10t46.5 9t43 7t33 3q15 0 24 -8t9 -30t-16.5 -30t-39.5 -9.5t-47.5 -1t-40.5 -4.5q-11 -3 -27 -8.5t-34.5 -11t-37.5 -9.5t-36 -4q-28 0 -54 13t-47 32.5t-35 41.5t-17 40q-18 37 -18 79q0 26 7.5 57t19 62.5 t24.5 61.5l24 55q8 18 27.5 35t45.5 31.5t55.5 26.5t57 20.5t50 13.5t35.5 5q12 0 25.5 -5t35.5 -27q14 -14 29.5 -32.5t28 -36.5t21 -33.5t8.5 -23.5q0 -75 -18.5 -118t-42 -65.5t-46 -28.5t-31.5 -6q-12 0 -23.5 4.5t-21.5 11.5t-17.5 14t-11.5 12q-6 -3 -17 -6t-27 -3 q-17 0 -30.5 7.5t-23.5 20t-15 27.5t-5 30q0 27 15 47.5t38 34.5t50.5 21.5t52.5 7.5zM283 401q-17 0 -31.5 -11.5t-14.5 -30.5q0 -23 8.5 -27t28.5 -4q27 0 31.5 9.5t4.5 29.5q0 15 -3.5 24.5t-23.5 9.5z" />
<glyph unicode="A" horiz-adv-x="398" d="M365 18q-14 0 -22.5 5t-13.5 13t-7 18l-4 21q-2 12 -7 26t-11 29t-12.5 29t-10.5 26q-50 9 -92 9q-12 0 -23.5 -0.5t-22.5 -1.5q-15 -34 -24 -61t-16.5 -46.5t-15 -30t-19.5 -10.5q-16 0 -22 10.5t-6 26.5q0 22 5 42.5t16 46.5q-5 13 -13 20t-15.5 11.5t-13 7t-5.5 5.5 q0 20 20 31.5t62 19.5q2 24 7 58l10 73q5 38 12 78l13 77q6 36 12.5 65.5t11.5 47.5q6 20 16.5 28t22.5 8q14 0 24.5 -9.5t13.5 -26.5q17 -100 41.5 -207t54.5 -224q6 -21 15.5 -42.5t18 -43.5t15 -44t6.5 -44q0 -15 -3 -28t-18 -13zM149 264q14 2 27 3t27 1t29 -1t30 -3 q-11 26 -30 94t-38 171q-5 -43 -10 -79t-10.5 -68t-11.5 -61t-13 -57z" />
<glyph unicode="B" horiz-adv-x="413" d="M168 624q18 0 40.5 -6t42.5 -18t33.5 -30t13.5 -41q0 -24 -14 -49.5t-59 -42.5q39 -6 71.5 -23.5t56 -44t36.5 -60t13 -71.5q0 -47 -16 -78.5t-45.5 -54t-72 -37.5t-95.5 -28q0 -26 -3.5 -41t-14.5 -15q-16 0 -29.5 15t-22.5 38q-15 38 -30 104t-28.5 139.5t-24 144.5 t-15.5 121q7 15 23.5 29t39 25t48.5 17.5t52 6.5zM150 406q-18 0 -33.5 -4t-34.5 -10q10 -40 20 -86.5t20 -86t19 -66t17 -26.5q45 0 78 12t54 28.5t31 33.5t10 27q0 21 -12.5 51.5t-36 58.5t-57 48t-75.5 20zM131 569q-17 0 -35 -6t-31 -20q1 -16 3.5 -32.5t6 -30.5 t7.5 -23.5t9 -11.5q10 0 31.5 4t43.5 12.5t38 20t16 26.5q0 22 -7.5 34.5t-19.5 18.5t-28 7t-34 1z" />
<glyph unicode="C" horiz-adv-x="348" d="M279 611q16 0 23 -14t7 -23q0 -28 -29 -33q-75 -11 -117.5 -31t-64 -51.5t-26.5 -77t-5 -106.5q0 -36 5.5 -69t19.5 -57.5t38 -39t62 -14.5q22 0 36.5 3.5t24.5 7t17.5 7t16.5 3.5q19 0 26 -15t7 -26q0 -19 -13 -33.5t-32 -24t-40.5 -14.5t-38.5 -5q-39 0 -66.5 16.5 t-46.5 43.5t-30 61.5t-17 70.5t-8 70.5t-2 61.5q0 56 11 108t39 92.5t77 64.5t126 24z" />
<glyph unicode="D" horiz-adv-x="308" d="M36 40q1 51 1.5 102.5t0.5 102.5q0 82 -1.5 162.5t-5.5 164.5q-12 15 -12 36q0 17 8 32t32 15q9 0 18 -3t16 -12t11.5 -24.5t4.5 -40.5q58 -21 93.5 -50.5t55 -64t26 -72.5t6.5 -76q0 -37 -18 -79.5t-51 -81.5t-80 -69t-105 -42zM109 522q0 -97 -1 -201.5t-7 -204.5 q11 0 34 19.5t46.5 47t41 57.5t17.5 51q0 35 -5 69t-19 64.5t-39.5 55.5t-67.5 42z" />
<glyph unicode="E" d="M227 586q17 0 25 -10.5t8 -28.5q-1 -14 -17.5 -23.5t-39.5 -17t-49.5 -14t-47.5 -14.5q3 -23 3 -41q0 -21 -3.5 -45.5t-5.5 -62.5q38 3 66 10.5t48 16.5l35 14q14 6 25 6q10 0 22.5 -14.5t12.5 -34.5q0 -12 -13.5 -21t-34.5 -16t-47 -12t-50.5 -8.5t-44.5 -5.5l-30 -3 q-2 -20 -5 -44.5t-3 -66.5v-54q41 2 69 5.5t47.5 6.5t33.5 5.5t28 2.5q12 0 22 -15.5t10 -28.5q0 -10 -7 -15.5t-25 -8t-47.5 -3t-74.5 -0.5q-60 0 -83 5.5t-23 16.5q0 20 1.5 37t4 34t4 36t1.5 42v82q2 31 11 64.5t9 60.5q0 14 -2 23.5t-4.5 17.5t-4.5 15t-2 16 q0 26 7.5 35.5t27.5 17.5l66 24q38 14 77 14z" />
<glyph unicode="F" horiz-adv-x="332" d="M72 554q9 0 16 -7t18 -31q30 0 57 6t51 13l43 13q20 6 37 6q15 0 20.5 -6t5.5 -20q0 -8 -13.5 -14.5t-34.5 -12.5t-47 -11t-50.5 -8t-44.5 -5t-30 -2q0 -45 2 -76.5t7 -58.5q42 2 62.5 9t32.5 7q22 0 22 -25q0 -15 -7 -21.5t-20 -9t-32 -4t-43 -7.5q2 -40 3 -67t1 -58 q0 -29 -1 -58.5t-4 -53t-9.5 -38.5t-18.5 -15q-18 0 -36 8t-18 28q9 70 9 151q0 47 -3 100q-16 10 -16 24q0 16 22 28q0 26 -3 46.5t-6.5 39.5t-6.5 38.5t-3 43.5q0 31 9 39.5t29 8.5z" />
<glyph unicode="G" horiz-adv-x="443" d="M219 655q4 0 15 -2t22.5 -6.5t20.5 -12t9 -17.5q0 -15 -8.5 -23t-21.5 -15l-31 -15q-18 -9 -37 -26q-28 -26 -49 -51t-35.5 -53.5t-22 -63.5t-7.5 -80q0 -26 17.5 -60t43 -64.5t55 -52t52.5 -21.5q9 0 27.5 8.5t36.5 22.5t31.5 33.5t13.5 42.5q0 4 -15.5 8t-36.5 7t-41 5 t-29 3q-8 1 -11.5 14.5t-3.5 21.5q0 3 3.5 6.5t14.5 6.5t31 5t53 2q89 0 94 -12q8 -17 12 -41.5t4 -44.5q0 -39 -21 -69t-53.5 -50.5t-72.5 -31t-77 -10.5q-48 0 -82 37.5t-55 94t-30.5 122.5t-9.5 123q0 16 6 41.5t17.5 54.5t28 58t38 52.5t48 38t56.5 14.5z" />
<glyph unicode="H" horiz-adv-x="513" d="M87 674q24 0 29.5 -22t5.5 -61v-42l-1 -49l-2 -50l-2 -48q6 0 26 2t46.5 5t56.5 6t57 7l47 6q20 2 27 3q6 24 6 47q0 34 -6 79.5t-6 91.5q0 8 1 17.5t3.5 17.5t8 13.5t14.5 5.5q13 0 26 -5.5t13 -29.5q0 -32 1 -58.5t2.5 -53.5t2.5 -56.5t1 -66.5q17 -2 26.5 -6t14 -10.5 t5.5 -15t1 -18.5q0 -20 -15.5 -26.5t-31.5 -8.5q-3 -45 -5 -89.5t-4.5 -85.5t-5 -76.5t-7.5 -60.5q-9 -52 -29 -52q-9 0 -17.5 1.5t-15 7.5t-10.5 18.5t-4 35.5q0 28 3.5 64.5t8 78t8 86.5t3.5 92q-85 0 -150.5 -9.5t-101.5 -25.5q0 -18 -1 -54t-4 -79.5t-8 -89t-13.5 -82.5 t-20 -61t-27.5 -24q-12 0 -14.5 16.5t-2.5 28.5q8 51 15 86l11 62q5 28 7.5 53.5t2.5 58.5q0 23 -0.5 40.5t-0.5 32.5q0 9 -5.5 13.5t-11.5 7.5l-11 8q-6 3 -6 9q0 21 8 28t31 12q0 137 3.5 206t17.5 69z" />
<glyph unicode="I" horiz-adv-x="347" d="M66 619q17 0 36.5 -6.5t54.5 -11.5q24 -4 47.5 -6.5t38.5 -10.5q16 -7 16 -23q0 -8 -5 -11t-20 -3q-11 0 -26 2t-35 5q4 -54 5.5 -107t1.5 -107q0 -32 -1 -59.5t-2.5 -56t-2.5 -59.5t-1 -70q0 -11 1.5 -20.5t3.5 -12.5q35 0 54 2t30 4.5t18 4.5t18 2t26 -4.5t15 -17.5 q0 -17 -23 -26.5t-55.5 -14.5t-66.5 -6t-56 -1q-17 0 -38.5 1t-40.5 5t-32 12.5t-13 22.5q0 17 19 22t49 5h16q7 0 15 -1l4 20q-1 145 -3.5 227.5t-6.5 108.5q-2 15 -3 32t-1 35q0 28 3 61q-35 13 -47.5 26t-12.5 26q0 4 4 7.5t16 3.5z" />
<glyph unicode="J" horiz-adv-x="338" d="M50 -29q1 8 14 12.5t32 10t41 14t42 25.5q18 15 29 39.5t16.5 52t7 55.5t1.5 52q0 36 -3.5 81.5t-9 92.5t-12 92.5t-12.5 81.5q-17 3 -40 3q-32 0 -61.5 -8t-60.5 -8q-10 0 -16 3t-6 13q0 12 17 21t43 15.5t57.5 11t61 7.5t53 4t33.5 1q34 0 34 -16q-2 -8 -5 -12.5 t-9 -8.5t-15 -9t-22 -14q1 -11 4 -35l7 -53l7 -63q3 -33 6.5 -62t5.5 -51.5t2 -30.5q0 -98 -8 -164t-29 -106.5t-58.5 -58t-95.5 -17.5q-20 0 -35.5 4.5t-15.5 24.5z" />
<glyph unicode="K" horiz-adv-x="455" d="M79 -44q-11 0 -20 8t-11 18q-2 15 -4 58.5t-3.5 101t-3.5 121t-3 119t-1.5 96t-0.5 51.5q0 25 1.5 48t6.5 40.5t14 28t23 10.5t20.5 -11t6.5 -25q0 -11 -2 -17l-4 -14q-3 -8 -5 -17t-2 -24q0 -26 1.5 -39t1.5 -27v-16q0 -9 -1 -20q22 27 43 36.5t42.5 12.5t43.5 4t46 10 q15 6 35.5 15.5t41.5 18t40.5 15t31.5 6.5q8 0 13.5 -4.5t8.5 -10t4 -11.5t1 -9q0 -10 -4 -19.5t-8 -15.5q-2 -4 -27.5 -13t-60.5 -19t-73.5 -20t-66.5 -16q-9 -2 -26 -10t-33.5 -21t-29 -31t-12.5 -39q0 -15 11.5 -31.5t29 -32t38.5 -28.5t40 -21q14 -6 22.5 -13.5 t14.5 -15.5t11 -16.5t13 -16.5q16 -18 28.5 -33.5t25.5 -30t29.5 -27.5t40.5 -26q34 -19 34 -38q0 -18 -3 -22t-9 -4q-22 0 -38 6t-29 21q-34 42 -100 106.5t-166 134.5q0 -15 -1 -38.5t-2 -51.5l-2 -56q-1 -29 -1 -56q0 -23 1 -37t1 -22q0 -17 -13 -20z" />
<glyph unicode="L" horiz-adv-x="300" d="M87 591q6 0 9.5 -7.5t5.5 -19t2.5 -24t0.5 -22.5q0 -77 -2 -146t-5.5 -127t-8 -102.5t-8.5 -71.5q20 12 44.5 15t34.5 3h9h10l23 -2q16 -1 46 -2q9 0 16 -11t12.5 -25.5t9 -27t5.5 -15.5q0 -9 -6.5 -11t-17.5 -2q-14 0 -25.5 2t-23.5 5t-25 5t-30 2q-24 0 -35 -3.5 t-20.5 -7.5t-22.5 -7.5t-41 -3.5q-11 0 -16 4t-5 21q0 35 4 59t9.5 43.5t9.5 37.5t4 42q0 31 -4.5 56.5t-8.5 50.5q17 57 26.5 119.5t9.5 126.5q0 8 -0.5 14.5t-0.5 11.5q0 20 15 20z" />
<glyph unicode="M" horiz-adv-x="492" d="M395 554q17 0 25 -49t17 -143l9 -110q5 -62 9 -120l7 -106q3 -48 3 -69q0 -15 -5 -15q-21 0 -29.5 19.5t-11.5 43.5q-2 29 -4.5 76t-6.5 99t-8.5 103t-10.5 90q-11 -11 -23.5 -29t-24 -40t-20.5 -45t-13 -45q-5 -27 -7.5 -46.5t-5.5 -33.5q-2 -8 -8 -19l-13 -23 q-7 -12 -14 -25.5t-11 -26.5q-10 -34 -51 -34q-20 0 -31.5 17t-17.5 44.5t-8 61.5l-4 68q-2 34 -5.5 64.5t-11.5 50.5q-1 2 -6 19l-12 38l-13 39l-8 24q-3 -43 -4 -81.5t-1 -72.5q0 -32 2 -68t2 -75q0 -19 -1.5 -38t-6 -34.5t-13 -25.5t-21.5 -10q-5 0 -7.5 2t-4.5 11 t-2.5 26.5t-0.5 49.5q0 79 0.5 137.5t2.5 103.5t6.5 79.5t12.5 66.5q2 8 2.5 26t3.5 36t10 32t23 14q12 0 21 -28t17.5 -68.5t17 -86t18.5 -79.5q2 -8 6 -27l9 -43q5 -24 10 -52l9 -52l8 -44q4 -19 5 -28q30 29 48.5 69.5t39.5 97.5q7 19 15 47l16 60q8 32 17 63.5t18 56.5 t18 41t18 16z" />
<glyph unicode="N" horiz-adv-x="436" d="M90 506q-17 -39 -17 -80q0 -24 3 -58.5t7 -70t7 -67t3 -48.5v-55q0 -29 0.5 -53.5t0.5 -42.5v-26q0 -23 -7.5 -38t-17.5 -15q-12 0 -24.5 22t-12.5 50q0 78 -1.5 152.5t-1.5 128.5q0 30 1.5 80t5 99.5t9.5 90t16 52.5q19 -15 39 -39.5t37.5 -54.5t32 -63t23.5 -66l11 -45 l18 -65q9 -34 18 -63t18 -54.5t18.5 -49.5t20.5 -48l10 35l9 26q4 12 6.5 24.5t4.5 30.5q3 26 5 63l5 77l6 77t7 67q4 23 8 37.5t17 14.5q16 0 26.5 -10.5t10.5 -22.5q0 -6 -2 -31t-5 -59t-7 -72.5t-7 -70.5l-5 -55q-2 -23 -2 -25q0 -24 -2.5 -40.5t-6.5 -34t-8.5 -41 t-8.5 -60.5q-4 -35 -8.5 -56t-11 -32t-16 -14t-24.5 -3q-12 0 -20.5 15.5t-14.5 39.5t-10 53l-6 56q-3 28 -11 58t-17.5 57t-20.5 49t-20 36q0 17 -7 52t-19 70q-15 44 -29 70t-33 46z" />
<glyph unicode="O" horiz-adv-x="427" d="M224 546q2 0 22 -3t45.5 -8t49.5 -12.5t34 -17.5q6 -16 12 -37.5t11 -45t8 -47t3 -43.5q-5 -19 -8.5 -45.5t-6 -55t-3.5 -56.5t-1 -51q-9 -26 -36.5 -47.5t-62 -37.5t-69 -25t-57.5 -9t-39 9t-28 23t-22 33l-19 36q-12 21 -21 33t-15 22t-9 22.5t-3 34.5q0 27 7 61.5 t20 71t31.5 71.5t42.5 62.5t52.5 44.5t61.5 17zM215 497q-26 0 -53.5 -30t-50.5 -70t-38 -79t-15 -57q0 -26 8 -60.5t23 -65.5t36 -52.5t47 -21.5q13 0 33.5 3.5t43 13.5t43.5 26.5t35 42.5q9 18 14 32.5t8 39t3.5 64.5t0.5 108q-5 18 -20 37t-34.5 34.5t-41.5 25t-42 9.5z " />
<glyph unicode="P" horiz-adv-x="379" d="M81 546q18 0 27 -48q15 8 38 17t40 11q24 -3 54 -11.5t55.5 -22.5t43 -35t17.5 -49q0 -22 -9 -58.5t-31.5 -72t-59.5 -61.5t-93 -26q-12 0 -25.5 1.5t-27.5 6.5q7 -60 10 -115.5t3 -106.5q0 -55 -3.5 -86t-8.5 -46.5t-11 -19t-10 -3.5q-8 0 -10 2t-4 12q0 14 0.5 35.5 t0.5 52.5q0 24 -0.5 56t-2 68t-4.5 74t-7 73q-8 17 -13.5 32.5t-5.5 30.5q0 8 2 15t14 17q-3 18 -3 42v13q0 6 1 14q-23 7 -31.5 14t-8.5 15q0 11 6 24.5t32 45.5q0 48 6.5 68.5t18.5 20.5zM100 419q-1 -45 -1 -71v-30q0 -24 4.5 -41.5t10.5 -26.5q43 0 77 13t58 33.5t37 47 t13 53.5q0 15 -13 28.5t-30.5 24t-35 18t-27.5 10.5q-29 0 -53.5 -18t-39.5 -41z" />
<glyph unicode="Q" horiz-adv-x="475" d="M213 662q15 0 22.5 -3t15.5 -10t19 -18.5t32 -27.5q23 -18 49 -44.5t48.5 -61t37.5 -75.5t15 -86q0 -23 -3 -54t-12 -63.5t-25 -61.5t-41 -47q9 -20 16 -30.5t11.5 -16.5t7 -11t2.5 -14q0 -14 -13 -14q-19 0 -31 7t-29 16q-15 -18 -37 -32.5t-69 -14.5q-29 0 -47.5 4.5 t-31.5 11t-23.5 14t-23.5 14.5q-11 6 -21 13.5t-19 20.5t-16 32.5t-12 48.5q-5 32 -8.5 63t-3.5 60q0 37 5.5 69.5t18.5 59.5q10 23 21.5 65t29 83.5t45 72t70.5 30.5zM219 607q-26 -1 -36 -8.5t-15 -21t-9.5 -32t-19.5 -42.5l-26 -39q-12 -18 -22 -44t-16.5 -63t-6.5 -94 t9.5 -91t40.5 -60q42 -36 68.5 -46.5t39.5 -10.5q17 0 37.5 12.5t29.5 33.5q-9 22 -24 38.5t-30 30.5t-25.5 27t-10.5 28q0 8 2.5 18.5t7 20.5t11 16.5t14.5 6.5q13 0 22 -11.5t18 -29.5l22 -40q12 -23 32 -45q21 36 32.5 65.5t17.5 55t7 48t1 44.5q0 19 -12 39.5t-26 41.5 l-25 45q-14 26 -30.5 50t-36 40.5t-41.5 16.5z" />
<glyph unicode="R" horiz-adv-x="413" d="M111 712q15 -1 24 -9.5t14 -22.5t7 -33t3 -41q32 7 65 7q36 0 65.5 -6.5t50.5 -22t32 -41t11 -63.5q0 -26 -9.5 -55.5t-27.5 -55.5t-43.5 -43t-57.5 -17q-16 0 -29 4l21 -46q9 -20 18 -37l18 -31q9 -15 21 -32q9 -13 27 -34.5t35.5 -47.5t31 -54.5t13.5 -56.5 q0 -10 -10 -17.5t-21 -7.5q-9 0 -12.5 10.5t-8.5 21.5q-8 17 -24 47l-35 66l-41 75l-43 72q-20 34 -38 60.5t-29 37.5q-14 -34 -21 -83.5t-7 -124.5q0 -35 -2 -67.5t-8 -58t-16.5 -41t-26.5 -15.5q-10 0 -12.5 5t-2.5 19q0 5 1.5 19t3.5 37l4 32q3 25 7.5 58.5t9 73.5 t8.5 80t6.5 76.5t2.5 63.5v24q0 12 -1 23l-29 -35l-16 -20q-6 -7 -9 -9t-6 -2q-7 0 -12 1.5t-5 11.5q0 19 4.5 35t13 31.5t21.5 33.5l32 41q7 49 11 81l6 51q3 18 6 25t9 7zM129 441q1 -16 10.5 -31.5t23.5 -27.5t30 -19.5t31 -7.5q27 0 46 12.5t32 31t19 41.5t6 44 q0 19 -8.5 34.5t-21.5 25.5t-29.5 15.5t-32.5 5.5q-14 0 -35.5 -3.5t-53.5 -10.5q-17 -37 -17 -110z" />
<glyph unicode="S" horiz-adv-x="427" d="M-4 105q0 16 5 22t21 6q12 0 28.5 -10t33.5 -23q26 -19 52.5 -35t58.5 -16q15 0 37.5 6.5t43 18.5t35 28t14.5 34q0 24 -18.5 46.5t-42.5 40t-47 29.5l-30 16q-28 12 -49 26.5t-34.5 34.5t-20.5 47t-7 65q0 36 14.5 71t39.5 62.5t59.5 44.5t73.5 17q21 0 47 -6t49.5 -18 t39 -31t15.5 -44q0 -12 -8.5 -17t-20.5 -5q-18 0 -32 10t-28 22.5t-29.5 22.5t-35.5 10q-30 0 -55 -13t-42.5 -34t-27.5 -47.5t-10 -52.5q0 -29 8 -45.5t22 -28t33 -20t41 -20.5q13 -7 40 -25t55 -44t49 -58t21 -66q0 -23 -19.5 -45.5t-48 -40.5t-61 -29t-58.5 -11 q-20 0 -36.5 2t-31.5 6t-30.5 11t-33.5 16q-10 5 -23.5 12.5t-26 16.5t-21 19.5t-8.5 21.5z" />
<glyph unicode="T" horiz-adv-x="374" d="M187 -71q-20 0 -23 41q-1 7 -3 28.5t-4 54t-6 72.5l-7 86q-3 42 -7 86.5t-7 89t-5.5 87.5t-2.5 82q-18 8 -38.5 9t-37.5 2.5t-28.5 7t-11.5 22.5q0 6 2 14t7.5 15.5t15.5 12.5t26 5q38 0 76.5 -7t80.5 -7q18 0 35 5t34 11.5t34 11.5t36 5q13 0 21 -10.5t8 -24.5 q0 -26 -22 -38.5t-55 -18.5t-71 -8.5t-70 -7.5q0 -36 1 -61.5t3 -40.5q1 -5 4 -24l8 -49l11 -66l12 -78q8 -60 14.5 -119t6.5 -105q0 -27 -0.5 -43t-4 -25t-11 -12t-21.5 -3z" />
<glyph unicode="U" horiz-adv-x="429" d="M353 587q12 0 21.5 -5t9.5 -14q0 -78 9 -148t9 -133q0 -81 -4 -125l-6 -54q-2 -33 -13.5 -60.5t-38.5 -47t-73 -30.5t-116 -11q-23 0 -39.5 11.5t-27.5 31t-18 45.5t-11 55q-5 28 -10 60.5t-8.5 64.5t-6 60.5t-2.5 49.5q0 14 1.5 39t4.5 55t8 63t12 62q5 24 16 28t23 4 q7 0 9.5 -4t2.5 -25q0 -7 -1.5 -28.5t-4 -50.5t-5 -61.5t-5 -61.5t-4 -51t-1.5 -30q0 -24 3 -44t7.5 -38t10.5 -35.5t11 -36.5q5 -18 8 -39t9 -39t18 -29.5t36 -11.5q17 0 38.5 5.5t41 16.5t34 26t18.5 35t7 45t5.5 48.5t3.5 43t1 30.5q0 39 -4 72l-7 65l-7 63q-3 32 -3 70 q0 10 1 21.5t5 21t11.5 15.5t20.5 6z" />
<glyph unicode="V" horiz-adv-x="432" d="M32 657q11 0 22 -2.5t16 -15.5q15 -39 26 -88t18 -94q2 -14 2.5 -25t2 -21.5t3.5 -22t7 -26.5q1 -6 8 -31l17 -54l16 -55l10 -32q4 -14 8 -23.5t9.5 -21t12 -29t15.5 -47.5q35 81 48 127.5t16 67.5q2 15 9 37.5t15 44.5l15 40q7 18 9 25q2 8 3 25l4 40q2 22 5 44.5 t8 41.5t12 31t18 12q12 0 19 -6.5t11.5 -16t6 -21.5t1.5 -22q0 -30 -6.5 -61t-14.5 -63l-20 -84q-10 -44 -20.5 -85.5t-20.5 -77t-20 -57.5l-21 -42q-12 -24 -24 -53q-6 -14 -9 -32t-8 -34.5t-14.5 -27.5t-28.5 -11q-28 0 -38.5 20.5t-21.5 65.5q-8 33 -14 69t-13 71 t-14.5 66t-18.5 54q-14 29 -22.5 66t-15.5 78l-13 83q-6 42 -16 81q-5 18 -16 31.5t-11 28.5q0 32 28 32z" />
<glyph unicode="W" horiz-adv-x="647" d="M614 675q26 0 26 -52q0 -31 -6 -59t-19 -47l-25 -109l-26 -118l-29 -118q-15 -59 -31 -110q-21 -67 -46 -108.5t-54 -41.5q-19 0 -32.5 22t-22.5 55.5t-14 73t-8 74.5q-2 20 -4 43t-6 44t-8.5 38t-10.5 25q-33 -38 -53.5 -81.5t-29.5 -80.5q-4 -17 -9.5 -35t-13.5 -32 t-19.5 -23t-28.5 -9q-18 0 -31 5.5t-21 22.5q-1 16 -3 37t-4.5 42.5t-6 41.5t-8.5 34q-4 11 -8 24.5t-7 33t-5 47.5t-2 68q-14 40 -26.5 82.5t-12.5 90.5q0 22 6 37t29 15q14 0 26 -18.5t21.5 -45t16 -55t9.5 -49.5q2 -13 2.5 -34.5t1.5 -45.5l2 -46q1 -23 4 -39 q3 -15 6 -32.5t6.5 -34.5t7.5 -32.5t9 -25.5q4 15 16 46t27 63.5t30.5 59t26.5 32.5q0 12 5 31.5t12.5 38t17.5 32.5t21 14q14 0 24 -18t18 -47q11 -41 18 -98t12.5 -113.5t11 -103.5t12.5 -68q11 16 25 49t27 72t24.5 77t17.5 65l19 91l19 91q9 45 19 87t21 78q7 21 14 34 t20 13z" />
<glyph unicode="X" horiz-adv-x="431" d="M225 197q-12 -18 -23 -38l-25 -43l-31 -52l-40 -66q-29 -48 -44.5 -68t-28.5 -20q-6 0 -10 6t-4 13q0 14 6 30.5t16 34t22 35.5l22 36l27 44l34 55q17 29 31.5 57.5t19.5 49.5q-19 23 -32.5 42.5t-25 39.5t-21.5 42.5t-22 52.5q-9 23 -20 46l-21 42q-10 19 -16.5 34 t-6.5 24q0 8 2.5 17t2.5 21q0 8 -2.5 21t-2.5 23q0 14 6 19.5t11 5.5q8 0 16 -11t15 -28.5t12.5 -39.5t8.5 -44q3 -21 16 -55t31 -68t37.5 -61t35.5 -34l54 78q28 40 41 85q6 21 16 49t22 53.5t24 43t22 17.5q8 0 13.5 -7.5t5.5 -25.5q0 -16 -10 -47.5t-25.5 -68.5t-33 -74 t-32.5 -63q-8 -15 -15 -25l-14 -21q-8 -12 -16 -26.5t-18 -37.5q24 -50 47 -82.5t37 -65.5q10 -26 24 -53l27 -53q13 -27 22 -52.5t9 -48.5q0 -14 -6.5 -23t-17.5 -9q-7 0 -15.5 11t-18.5 29.5t-21 42.5l-22 48q-26 56 -51 93.5t-44 69.5z" />
<glyph unicode="Y" horiz-adv-x="367" d="M26 669q16 0 23.5 -11t11 -27t4.5 -32.5t4 -27.5q2 -9 12 -32.5t25 -54.5l30 -66l30 -64l24 -50q10 -21 12 -26q10 11 25.5 42t30.5 66.5t25.5 66.5t10.5 42q0 12 -2.5 17t-5 8.5t-5 9t-2.5 19.5q0 12 10 18t15 6q35 0 43.5 -19.5t8.5 -56.5q0 -23 -11.5 -60t-30 -80 t-41.5 -89l-47 -90q-23 -44 -45 -80l-37 -60q-17 -26 -24 -51.5t-12 -45.5t-11.5 -32.5t-21.5 -12.5q-12 0 -20.5 7.5t-8.5 23.5q0 22 13.5 53.5t34.5 66.5l44 73l43 74l-21 42l-20 45l-23 51l-27 60q-29 63 -53 128t-24 127q0 22 13 22z" />
<glyph unicode="Z" horiz-adv-x="488" d="M35 -6q-17 0 -24.5 13.5t-7.5 33.5q0 24 5 42t14 33.5t21.5 30.5t26.5 35q15 19 29 43l30 48l33.5 50.5t38.5 48.5q36 40 79 82l79 73q-12 5 -28 9t-26 4q-29 0 -54.5 -4.5t-60.5 -4.5q-14 0 -28 1t-25 3.5t-18 7.5t-7 13q0 17 12 32.5t49 15.5q36 0 73 -3.5t77 -3.5 q42 0 80.5 4t66.5 4q18 0 18 -11q0 -27 -18.5 -54t-45 -51.5t-55.5 -45.5l-50 -37q-35 -27 -61 -57t-46 -58.5t-35.5 -54.5t-30.5 -45q-17 -22 -54 -103q22 -5 38 -8t30 -4.5t29 -2t35 -0.5q32 0 62.5 1t56.5 1q12 0 31.5 10t39.5 10q11 0 19.5 -6t8.5 -15q0 -14 -4 -27 t-10.5 -23.5t-15 -17t-16.5 -6.5q-35 0 -68.5 3t-67 7t-67.5 7t-70 3q-13 0 -24.5 -4t-22.5 -9t-21 -9t-20 -4z" />
<glyph unicode="[" horiz-adv-x="275" d="M80 724q11 0 24.5 -3.5t34.5 -3.5q10 0 17 2t13 5t12.5 5t14.5 2q18 0 26.5 -5.5t8.5 -24.5q0 -13 -8.5 -20.5t-22 -12t-29.5 -6t-30 -1.5q-2 0 -7 0.5t-9 0.5q-14 -11 -17 -22.5t-3 -23.5q0 -39 1 -64.5t2.5 -50t2.5 -55t1 -80.5q0 -32 -4 -78.5t-9.5 -94.5t-9.5 -90.5 t-4 -65.5q0 -8 4.5 -17.5t17.5 -14.5q15 -5 40 -7t49.5 -4.5t42.5 -7.5t18 -15q0 -6 -8.5 -10.5t-22 -7t-30 -3.5t-32.5 -1q-23 0 -47 3.5t-44 12.5t-33 25.5t-13 42.5q0 50 6.5 99t14 96.5t14 93t6.5 88.5q0 46 -2.5 78.5t-5.5 60.5l-4 57q-3 29 -3 69q0 20 4.5 34.5 t22.5 14.5z" />
<glyph unicode="\" horiz-adv-x="400" d="M391 41q0 -11 -4 -20t-15 -9q-7 0 -19.5 16t-28 41.5l-33.5 57.5l-34 63l-33 59q-16 28 -29 46q-17 24 -39.5 52t-36.5 69q-12 37 -30.5 66.5t-36.5 55.5t-30.5 51t-12.5 54q0 20 7 25.5t19 5.5q16 0 25 -11t17 -32q12 -30 32.5 -73t45.5 -88t51.5 -88t50.5 -73 q19 -25 42.5 -62.5t43.5 -76.5t34 -74t14 -55z" />
<glyph unicode="]" horiz-adv-x="310" d="M240 686q6 0 16 -9.5t10 -21.5q0 -87 -10 -175.5t-10 -182.5q0 -51 3.5 -98t9.5 -99q4 -35 12.5 -62.5t8.5 -47.5q0 -26 -12.5 -35t-29.5 -10l-75 -5q-44 -3 -89 -3q-18 0 -37 8t-19 22q0 13 18 21t42.5 11.5t50.5 5t41 2.5q4 0 8 -0.5t10 -1t15.5 -2.5t26.5 -5 q0 38 -5.5 76.5t-15.5 76.5q-14 54 -14 143q0 37 3 77l6 80l6 74q3 36 3 63q0 28 -4 43q-23 4 -50.5 6.5t-51.5 8.5t-40.5 17t-16.5 31q0 7 4 12.5t18 5.5q15 0 30 -5t29.5 -11t30 -11t32.5 -5q11 0 25.5 3t20.5 3z" />
<glyph unicode="^" horiz-adv-x="349" d="M186 680q8 -5 21.5 -17.5t29.5 -35.5q10 -14 15 -31l10 -36q5 -18 11.5 -37t19.5 -37q14 -21 27 -43.5t13 -46.5q0 -17 -3 -25.5t-20 -8.5q-11 0 -19.5 8t-15.5 21t-12.5 29.5t-10.5 33.5q-11 39 -26 62.5t-39 46.5q-13 -8 -36 -34.5t-43 -61.5q-17 -32 -34 -56t-34 -24 q-14 0 -17 17.5t-3 32.5q0 19 7.5 35t17.5 29t20.5 23.5t16.5 20.5q7 12 21 33t30 42.5t30.5 38.5t22.5 21z" />
<glyph unicode="_" horiz-adv-x="496" d="M432 72q32 0 54.5 -8t22.5 -39q0 -17 -13.5 -33.5t-29.5 -16.5q-3 0 -13 4l-23 9q-13 5 -26 9t-22 4q-90 0 -174.5 -11t-172.5 -14q-4 0 -13 3.5t-18 10t-16 14.5t-7 17q0 4 20.5 9t55.5 10.5t80.5 11t95.5 10t101.5 7.5t97.5 3z" />
<glyph unicode="`" horiz-adv-x="266" d="M39 533q12 0 18.5 -4t13.5 -10t15 -14t23 -16q14 -8 38 -17t46.5 -19.5t39 -22t16.5 -24.5q0 -14 -13.5 -20t-25.5 -6q-20 0 -52 11.5t-62 30.5t-52 43t-22 49q0 19 17 19z" />
<glyph unicode="a" d="M134 361q15 0 33.5 -3t37.5 -8.5t36.5 -11.5t29.5 -12q9 -11 16 -41t12.5 -69t8.5 -81t3 -77q0 -26 -2 -49.5t-5.5 -41t-10 -27.5t-15.5 -10q-12 0 -20 13.5t-16 54.5q-76 -2 -121.5 18t-69.5 48.5t-31.5 59t-7.5 50.5q0 31 5.5 64.5t19.5 60.5t37.5 44.5t59.5 17.5z M142 299q-45 0 -61 -35t-16 -94q0 -24 13.5 -46t34.5 -39.5t45.5 -28t47.5 -10.5q21 0 41 7q0 66 -4 124t-11 90q-22 16 -42.5 24t-47.5 8z" />
<glyph unicode="b" horiz-adv-x="296" d="M56 681q9 0 15.5 -5t6.5 -22q7 -80 9.5 -156t2.5 -152q33 43 59 43q24 0 48 -17.5t43.5 -48t31.5 -73.5t12 -94q0 -54 -13.5 -89.5t-40 -57.5t-66 -31t-91.5 -9q-22 0 -31.5 10.5t-9.5 27.5q0 21 18 33q0 64 -3 111.5t-5 69.5q-4 -1 -11 -1q-20 0 -20 17q0 22 29 62 q-2 91 -10 175.5t-8 162.5q0 21 7 32.5t27 11.5zM158 319q-23 0 -40.5 -12.5t-25.5 -34.5q1 -44 1.5 -87.5t3 -77.5t8.5 -55t19 -21q25 0 46.5 12t36.5 31t23.5 41t8.5 43q0 13 -5 39.5t-15 53.5t-25 47.5t-36 20.5z" />
<glyph unicode="c" horiz-adv-x="325" d="M24 213q0 28 9.5 55t28 47.5t44.5 33t59 12.5q23 0 46.5 -6.5t43 -17.5t31.5 -26t12 -32q0 -21 -44 -21q-10 0 -20 1.5t-19 7.5q-5 3 -11 10.5t-13.5 15.5t-17 14t-21.5 6q-19 0 -33.5 -7t-24.5 -18.5t-15 -25t-5 -26.5q0 -30 2 -64t13.5 -62.5t35.5 -47.5t68 -19 q17 0 24.5 6t11.5 13t8 13t13 6q23 0 29 -12.5t6 -34.5q0 -15 -6.5 -23t-17 -12t-24 -5t-28.5 -1q-52 0 -87.5 16t-57 45.5t-31 70t-9.5 88.5z" />
<glyph unicode="d" horiz-adv-x="323" d="M255 585q12 0 14.5 -5t4.5 -13q14 -100 17.5 -186t3.5 -152t-4.5 -129t-19.5 -118q-8 -6 -19 -8t-25 -2q-55 0 -92.5 17.5t-62 43.5t-37.5 57.5t-19.5 60t-7.5 49.5t-1 27q0 31 18.5 63t47.5 58t65 42.5t71 16.5q5 0 12 -0.5t23 -2.5v129q-8 10 -10.5 17t-2.5 17 q0 18 24 18zM181 342q-21 0 -42.5 -14.5t-39 -36t-28.5 -47t-11 -46.5q0 -15 8.5 -42.5t24 -54t36.5 -46t46 -19.5q31 0 50 13q4 22 7 51t5 59.5t3 61t1 54.5q0 27 -1.5 41.5t-3.5 20.5q-14 2 -29 3.5t-26 1.5z" />
<glyph unicode="e" horiz-adv-x="344" d="M203 455q30 0 48 -21t27.5 -51t12.5 -63.5t3 -58.5q0 -17 -3.5 -26t-9.5 -13t-13.5 -5t-16.5 -1q-14 0 -44 -0.5t-60.5 -3t-53.5 -8.5t-23 -17q0 -12 6.5 -31.5t16 -38.5t19.5 -34.5t18 -19.5q7 -1 13.5 -1.5t12.5 -0.5q28 0 49.5 6t40.5 13l35 14q17 7 36 7 q7 0 8.5 -8.5t1.5 -16.5q0 -20 -15 -34t-39 -22.5t-55 -12.5t-63 -4q-26 0 -47 3q-15 12 -30 39t-28 59.5t-21 64.5t-8 54q0 25 18.5 64.5t46 76.5t59 64t58.5 27zM202 391q-12 0 -27.5 -11.5t-31 -30t-29 -43t-21.5 -50.5q25 5 72 5h59q16 0 18.5 10t2.5 27q0 11 -1.5 27 t-6.5 30.5t-13.5 25t-21.5 10.5z" />
<glyph unicode="f" horiz-adv-x="289" d="M-43 421q0 17 13 33t30 16q8 0 15 -7l15 -15q8 -8 18.5 -15t25.5 -7q5 0 13.5 2.5t8.5 9.5q0 30 4 65t13.5 70.5t25 69t37 59t50.5 41t66 15.5q22 0 44 -5.5t39 -17t27.5 -29.5t10.5 -43q0 -17 -4.5 -28t-20.5 -11q-12 0 -18 14l-14 32q-7 17 -19.5 31t-36.5 14 q-44 0 -73.5 -33t-47.5 -79.5t-25.5 -95.5t-7.5 -81q0 -13 2.5 -23.5t9.5 -17.5q13 -12 33 -16t35 -11q20 -9 20 -29q0 -10 -14 -10q-18 1 -32.5 4t-31.5 3q-10 0 -18.5 -19t-8.5 -49q0 -10 1 -28t1.5 -41t1.5 -49t1 -52q0 -27 -1.5 -52t-5 -43.5t-10.5 -29.5t-18 -11 q-16 0 -19 16.5t-3 48.5q0 98 -1 184t-4 149q-1 20 -21 26.5t-43.5 10t-43 9.5t-19.5 25z" />
<glyph unicode="g" horiz-adv-x="394" d="M306 452q13 0 22.5 -18.5t16.5 -47t11 -63t6 -66t3 -56t1 -32.5q0 -25 -4.5 -59.5t-15 -71.5t-28.5 -73.5t-46 -65t-67 -46.5t-90 -18q-31 0 -58 4.5t-47.5 18t-32.5 36.5t-12 61q0 30 3.5 43.5t20.5 13.5q11 0 15 -10.5t6 -26t4 -34t9 -34t21 -26t40 -10.5q49 0 88 24.5 t66 64t41 88.5t14 97q-29 -6 -58.5 -10t-54.5 -4q-39 0 -66.5 11t-45 31.5t-25 49t-7.5 63.5q0 21 5.5 41t16 35.5t27 25t37.5 9.5q54 0 89 -6t59 -15q3 18 4.5 31.5t4.5 23t9 14.5t18 7zM85 284q0 -61 26 -84t83 -23q23 0 40 11.5t28.5 29t17 39t5.5 41.5q0 15 -14 26.5 t-35.5 18.5t-47 10.5t-47.5 3.5q-21 0 -32 -6.5t-16.5 -17t-6.5 -23.5t-1 -26z" />
<glyph unicode="h" horiz-adv-x="356" d="M40 668q12 0 21 -12t14.5 -29t8.5 -36t3 -32q0 -57 4.5 -132.5t16.5 -151.5l37 68q15 26 27.5 42t24.5 22t28 6q22 0 43.5 -28.5t37.5 -71t26 -90.5t10 -87q0 -14 -3 -43.5t-10.5 -58.5t-20 -51t-30.5 -22q-14 0 -19 15.5t-5 29.5q0 17 7 34t15.5 34.5t15.5 36.5t7 40 q0 22 -5 51t-14 55t-21 44t-25 18q-8 0 -23.5 -11t-34 -33.5t-37.5 -56t-35 -79.5q0 -51 -2.5 -82.5t-6 -48.5t-9 -22.5t-11.5 -5.5q-8 0 -17 3.5t-9 18.5q0 30 3 58l7 54l7 53q4 27 4 56q0 18 -1.5 37t-5.5 40q-8 42 -14 90t-10 94.5t-6 87t-2 67.5q0 14 1 21.5t8 7.5z" />
<glyph unicode="i" horiz-adv-x="172" d="M83 502q9 0 16.5 -6t13 -15t8.5 -18.5t3 -16.5q-2 -75 -8.5 -159.5t-14.5 -162.5q-2 -20 -2.5 -39.5t-4 -35t-12.5 -25t-28 -9.5q-7 0 -13 10.5t-6 46.5q0 24 1 65.5t3 89.5t5.5 97t9 88.5t12.5 64.5t17 25zM42 654q0 11 14.5 15t26.5 4q25 0 45.5 -17t20.5 -43 q0 -12 -6 -19.5t-15.5 -12.5t-21 -7t-23.5 -2q-15 0 -23 8t-12 20t-5 26.5t-1 27.5z" />
<glyph unicode="j" horiz-adv-x="174" d="M-25 -90q24 0 46.5 12.5t33.5 36.5q12 27 20.5 60t14 67t8 65.5t2.5 54.5q0 11 0.5 27.5t0.5 37.5q0 18 -1.5 39t-5 40.5t-8 35.5t-10.5 24q-9 10 -9 19t5 16t12 7q21 0 33.5 -29t19 -72t8 -92.5t1.5 -89.5q0 -60 -9 -120t-39 -117l-14 -27q-7 -13 -18.5 -23t-31 -15.5 t-53.5 -5.5q-62 0 -69 13q-5 9 -10.5 22t-10 26t-7 24t-2.5 16q0 17 2.5 21.5t10.5 4.5q15 0 21 -12t11.5 -27t15 -27t32.5 -12zM79 688q15 0 30 -10t15 -25q0 -19 -7 -39.5t-16.5 -38t-20.5 -29t-19 -11.5q-18 0 -21.5 15t-3.5 34q0 13 1.5 31t6.5 34.5t13 27.5t22 11z" />
<glyph unicode="k" horiz-adv-x="313" d="M97 707q16 0 20.5 -13.5t4.5 -29.5q0 -9 -1.5 -34.5t-4 -59.5t-5 -73t-5.5 -74.5t-6 -64t-5 -41.5q48 11 75 26t44 33q10 11 20 27l21 31q10 15 18 25.5t14 10.5q10 0 11.5 -4.5t1.5 -12.5q0 -48 -49.5 -95t-131.5 -95q49 -39 92 -93t74 -117q4 -7 4 -17q0 -24 -33 -24 q-8 0 -17 8t-18 21t-18.5 29.5t-18.5 34.5q-10 19 -20 34t-20.5 28t-23 24.5t-27.5 23.5q-5 -24 -14 -78t-16 -119q-2 -21 -3 -34.5t-3 -21t-6 -10.5t-11 -3q-20 2 -23 18.5t-3 47.5q0 9 1.5 18t3.5 19l2 23l6 57l8 75l7 76l6 60q3 25 4 28q17 97 24.5 171.5t7.5 126.5 q0 23 2 30.5t11 7.5z" />
<glyph unicode="l" horiz-adv-x="131" d="M86 717q13 0 17 -8.5t4 -22.5q0 -13 -1.5 -35t-3 -48.5t-2.5 -53.5t-1 -50q0 -17 -2 -49t-5 -71.5t-7 -83.5t-7 -86t-5 -79t-2 -62q0 -33 -5 -47t-18 -14q-17 0 -17 44q0 81 2.5 150.5t6 138t6 139.5t2.5 155q0 16 1.5 31t5.5 26.5t11.5 18.5t19.5 7z" />
<glyph unicode="m" horiz-adv-x="517" d="M236 447q29 0 41 -28t13 -76q6 16 17 37t26 40t34 32t41 13q27 0 44.5 -13t28 -37t14.5 -57t4 -72q0 -60 -13.5 -118t-23.5 -119q-4 -25 -5 -41.5t-1.5 -27t-1.5 -15t-4 -4.5q-14 0 -21 5.5t-11 15t-4.5 21t-0.5 23.5q0 17 1.5 41.5t6.5 53.5q1 8 5.5 27.5t9.5 48t9 66 t4 81.5q0 8 -3.5 17.5t-9 17t-13 12.5t-14.5 5q-18 0 -39.5 -26t-40.5 -61.5t-34 -73t-21 -60.5q-8 -27 -11 -50.5t-6.5 -41t-10 -28t-21.5 -10.5q-16 0 -19.5 14t-3.5 29q0 31 4.5 54.5t12 44t16 40.5t16.5 45q0 14 -1 28t-4.5 24.5t-9.5 17t-15 6.5q-11 0 -28 -20.5 t-37 -51.5l-41 -67l-39 -66q-18 -31 -32 -51.5t-19 -20.5q-10 0 -11.5 11t-1.5 24q0 16 3.5 47.5t8.5 70.5t12.5 79.5t14.5 73.5t14.5 54.5t13.5 21.5q9 0 9 -22q0 -11 -1.5 -22.5t-3.5 -25.5q-3 -17 -4 -26.5t-1 -22t-0.5 -33t-2.5 -59.5l40 59q16 24 24 38l21 37 q10 19 22 35t25.5 26t28.5 10z" />
<glyph unicode="n" horiz-adv-x="410" d="M228 503q9 0 22 -6.5t27.5 -17t29.5 -23.5t27 -25q30 -30 38 -94.5t8 -158.5q0 -38 0.5 -78.5t-2.5 -74t-11.5 -55.5t-26.5 -22q-6 0 -15 8t-9 35q0 78 4.5 135.5t4.5 83.5q0 33 -1.5 70t-9 68.5t-23.5 52.5t-45 21q-19 0 -39 -21t-39.5 -53.5t-37 -73.5t-31.5 -81 t-23.5 -75t-12.5 -56q-2 -11 -6.5 -14.5t-11.5 -3.5q-6 0 -10 4.5t-6.5 20.5t-4 46.5t-1.5 81.5q0 124 1 192.5t3 84.5q4 28 18 28q8 0 12.5 -8t6.5 -19l3 -35q2 -22 4 -48l4 -54q2 -29 4 -53l28 74q11 29 18 42l19 34q11 18 23.5 33t27.5 25t33 10z" />
<glyph unicode="o" horiz-adv-x="371" d="M184 -7q-48 0 -78.5 8.5t-48 28.5t-24 52t-6.5 80q0 58 14.5 103.5t46.5 68.5q19 13 32 23.5t25 18t26 11.5t35 4q14 0 28.5 -5t28 -12.5t25.5 -16t21 -15.5q21 -16 29 -32.5t8 -47.5q0 -32 -10 -77.5t-30 -88.5t-50.5 -73t-71.5 -30zM208 331q-18 0 -31 -9t-37 -27 q-28 -21 -45 -51.5t-17 -75.5q0 -27 2 -48.5t11 -37t28 -23.5t53 -8q30 0 52 25.5t36.5 60t21.5 69.5t7 55q0 10 -9.5 22.5t-22.5 23t-26.5 17.5t-22.5 7z" />
<glyph unicode="p" horiz-adv-x="306" d="M58 -277q-28 0 -28 18t-0.5 47t-1.5 63t-2.5 69t-2.5 64.5t-1.5 50t-0.5 25.5q0 40 3.5 74.5t7 63.5t7 53t3.5 44q0 7 -2.5 23t-2.5 33q0 14 4 26t15 12q13 0 22.5 -3t22.5 -10q15 13 26 19t27 6q7 0 19.5 -7t27 -18t29.5 -24.5t26 -26.5q35 -44 35 -146 q0 -31 -6.5 -60.5t-21 -52.5t-38.5 -37t-59 -14q-20 0 -43 4t-51 15q0 -45 1.5 -87.5t3 -79.5t3 -66.5t1.5 -48.5q0 -17 -6.5 -23t-16.5 -6zM95 108q2 -20 7.5 -25.5t19.5 -5.5q26 0 47.5 12.5t37.5 32.5t24.5 45t8.5 51q0 4 -4.5 22.5t-14.5 39.5t-26 37.5t-38 16.5 q-8 0 -16 -2t-18 -5q-18 -40 -25 -79.5t-7 -87.5q0 -37 4 -52z" />
<glyph unicode="q" horiz-adv-x="365" d="M176 338q46 0 73 -5.5t47 -12.5q19 -6 27.5 -16.5t8.5 -33.5q0 -11 -1 -36t-3 -58.5t-3.5 -72t-3.5 -76.5t-3 -73t-1 -61q0 -21 0.5 -46t2 -50.5t3.5 -48.5t5 -41q28 6 45.5 13t29 12.5t19 9.5t16.5 4q6 0 13 -5t7 -24q0 -12 -8.5 -20.5t-27.5 -15.5t-50 -13.5t-76 -14.5 q-12 11 -19.5 39.5t-12.5 66t-7 80t-2 80.5q0 30 1 55.5t3 42.5q-52 -31 -112 -31q-37 0 -62.5 5.5t-41 19.5t-22.5 38t-7 62q0 34 9.5 73.5t29 73.5t50 57t73.5 23zM222 288q-32 0 -61.5 -14.5t-52.5 -38t-37 -54.5t-14 -64q0 -35 20 -58t58 -23q36 0 65.5 5t55.5 12 l11 106q5 43 5 75q0 18 -4.5 29t-12 16.5t-16.5 7t-17 1.5z" />
<glyph unicode="r" horiz-adv-x="286" d="M178 439q14 0 33 -18t36 -41.5t28.5 -46t11.5 -32.5q0 -14 -13.5 -20.5t-27.5 -6.5q-13 0 -21.5 12t-16.5 27t-19 27t-29 12q-14 0 -30 -9q-13 -31 -26 -99t-21 -171q-1 -14 -1 -33.5t-3.5 -38.5t-12 -32t-27.5 -13q-7 0 -11 2.5t-6 12t-2.5 28t-0.5 50.5q0 27 3.5 73 t9 97t13 99.5t15.5 79.5q5 21 13 38.5t16 17.5q14 0 20.5 -18t8.5 -35q19 21 32.5 29.5t27.5 8.5z" />
<glyph unicode="s" horiz-adv-x="383" d="M21 91q0 24 12.5 46t38.5 22q6 0 13.5 -4.5t7.5 -15.5q0 -13 -7 -21t-7 -16q0 -16 11.5 -28t28 -20.5t34.5 -13t31 -4.5t34.5 10t41 26t34 35.5t14.5 37.5q0 21 -23 38.5t-55 33.5l-64 32q-33 15 -52 32q-15 14 -21.5 31t-6.5 45q0 22 11.5 40.5t29.5 32t39.5 21 t41.5 7.5q16 0 37.5 -4t41 -12.5t32.5 -20t13 -26.5q0 -18 -6 -22t-19 -4q-17 0 -25 8.5t-16 18t-21.5 18t-40.5 8.5q-24 0 -37.5 -20t-13.5 -43q0 -21 18.5 -39.5t43.5 -35t51.5 -30t43.5 -24.5q11 -8 21 -16.5t17 -20.5t11 -29t4 -42q0 -17 -11.5 -40t-28.5 -44t-37 -35.5 t-37 -14.5q-27 -6 -54 -6q-24 0 -48 6q-17 4 -38.5 14t-41 24t-33 30.5t-13.5 34.5z" />
<glyph unicode="t" horiz-adv-x="232" d="M123 592q17 0 22 -21.5t5 -56.5q0 -27 -1.5 -59t-5.5 -74q39 16 55 16q7 0 11.5 -4.5t6 -11t2 -14t0.5 -12.5q0 -17 -9 -24t-21.5 -10.5t-26 -6t-22.5 -10.5q0 -26 -0.5 -43t-1.5 -31t-1.5 -26t-0.5 -27q0 -5 1 -28.5t3.5 -51t6.5 -51.5t9 -28q15 -14 26 -18.5t18 -6.5 t10.5 -6.5t3.5 -17.5q0 -12 -4 -16t-18 -4q-35 0 -56.5 7.5t-33.5 25t-16 45t-4 67.5q0 33 0.5 59t0.5 49l1 45q1 22 1 46q-25 -6 -39 -11t-22.5 -8.5t-14 -5.5t-12.5 -2q-16 0 -16 18q0 33 8.5 42t23 11.5t34.5 7t44 28.5q6 39 8.5 78t5 70.5t6.5 51t13 19.5z" />
<glyph unicode="u" horiz-adv-x="349" d="M166 -14q-47 0 -74 25t-41.5 61.5t-18.5 78.5t-4 77q0 51 5 90.5t5 64.5q0 11 3.5 20.5t14.5 9.5t16 -13.5t5 -45.5q0 -12 -0.5 -30t-1.5 -39t-1.5 -43t-0.5 -43q0 -44 5 -71.5t15 -43t24.5 -21.5t33.5 -6q24 0 40 14.5t26.5 35.5t16 43.5t8.5 38.5q1 43 1.5 81.5t2 67.5 t6.5 45.5t15 16.5q9 0 15 -7t9.5 -18t6 -26t4.5 -31q4 -36 10 -71l12 -69q6 -34 10 -68t4 -68q0 -23 -22 -23q-9 0 -17 8t-13.5 20.5t-9.5 28.5t-6 33q-4 -16 -12 -37t-21 -40t-31 -32.5t-40 -13.5z" />
<glyph unicode="v" horiz-adv-x="373" d="M329 413q16 0 26 -17.5t10 -42.5q0 -13 -8 -32.5t-19 -40.5l-22 -42q-12 -20 -19 -36l-21 -44l-27 -55l-28 -56q-14 -27 -27 -49t-23.5 -35.5t-17.5 -13.5q-21 0 -34 7t-20 18.5t-10 26.5t-5 31q-4 30 -17 72l-26 91q-13 48 -23.5 96.5t-10.5 89.5q0 22 6 30.5t17 8.5 q8 0 13 -7t7.5 -18t3.5 -23.5t1 -22.5t4 -35t13 -62.5t25 -86t40 -105.5q21 30 41 65l39 69l33 63q15 30 24 51q4 9 8 27t10 35t14.5 30t22.5 13z" />
<glyph unicode="w" horiz-adv-x="434" d="M196 276q19 0 28 -19.5t15 -48.5q6 -30 14 -46.5t24 -35.5q11 11 22 30.5t21.5 43.5t19.5 51l17 53q5 18 9.5 28t8.5 15t8 6t9 1q16 0 24 -15.5t8 -35.5q0 -19 -5.5 -38.5t-15.5 -33.5l-19 -37q-9 -15 -17 -32l-19 -40q-10 -22 -23 -55q-8 -20 -13.5 -38.5t-12 -33.5 t-16.5 -24t-28 -9q-13 0 -16 11q-5 19 -13 41.5t-18 45.5l-20 44q-10 21 -19 37q-8 -13 -18 -38l-19 -49q-10 -25 -18.5 -43.5t-12.5 -18.5q-8 0 -18 16.5t-20 43.5t-19 62.5t-16.5 73.5t-12 76t-4.5 71q0 36 13 36q10 0 17.5 -10t12.5 -24q11 -28 14.5 -59.5t6 -60t7.5 -51 t19 -32.5q21 32 35 58l24 45q10 19 18.5 29t17.5 10z" />
<glyph unicode="x" horiz-adv-x="355" d="M83 394q13 0 25.5 -25t25.5 -58l25 -68q13 -35 26 -53q12 12 21.5 23.5t17 23.5t14 26t12.5 32q12 33 27.5 59.5t38.5 26.5q13 0 21 -5t8 -16t-9.5 -27t-23.5 -35q-7 -9 -14.5 -25t-18.5 -36.5t-27 -44t-40 -45.5q8 -23 18 -43l19 -36l14 -29t6 -23q0 -5 -5 -9t-19 -4 q-13 0 -21 10.5t-15 25.5l-17 33q-9 18 -23 32q-13 -9 -32.5 -25.5t-40 -32t-39.5 -27.5t-31 -12q-22 0 -22 12q0 3 20 20l45 39l52 45q25 23 37 39l-32 56q-16 30 -29 58t-21 51.5t-8 37.5q0 11 3 20t12 9z" />
<glyph unicode="y" horiz-adv-x="390" d="M347 299q16 0 19 -14t3 -33q0 -29 -2.5 -53t-5.5 -48.5t-5.5 -52t-2.5 -63.5q0 -32 -3.5 -73.5t-13 -85.5t-26.5 -87t-42.5 -76.5t-62 -54t-85.5 -20.5q-35 0 -56.5 7t-33 22t-15 38t-3.5 55q0 22 4.5 35.5t15.5 13.5q15 0 21.5 -8t9 -20.5t3.5 -26.5t5 -26.5t13.5 -20.5 t28.5 -8q52 0 87.5 39t58 99.5t34.5 134.5t17 145q-39 -63 -78.5 -93t-93.5 -30q-23 0 -39.5 13.5t-41.5 41.5q-26 29 -33.5 72.5t-7.5 112.5q0 36 1.5 58t5 33.5t10 15t17.5 3.5q28 0 28 -24q0 -9 -1.5 -23.5t-4 -31.5t-4 -35t-1.5 -35q0 -16 5 -41.5t15 -50t25 -42 t36 -17.5q28 0 51.5 19t43 47t35.5 61l28 62q12 28 22 47t19 19z" />
<glyph unicode="z" horiz-adv-x="363" d="M300 76q16 0 31 -2t15 -14q0 -21 -16.5 -33.5t-42 -19t-55 -8.5t-56.5 -2q-14 0 -26 0.5t-36 0.5q-12 0 -20 -0.5t-14 -0.5q-10 0 -21.5 0.5t-21 3t-16 6.5t-6.5 11q0 29 12 52.5t30 45t38.5 43t37.5 47.5l26 38q12 18 25.5 34.5t30 34t39.5 38.5q-52 1 -88 7t-59 6 q-8 0 -20.5 -1.5t-18.5 -1.5q-5 0 -9.5 3t-4.5 14q0 15 21 22t43 7q18 0 31.5 -1.5t27 -3.5t28.5 -3.5t38 -1.5q35 0 60 -5t25 -22t-8.5 -30.5t-23 -28t-34 -31.5t-41.5 -42l-34 -40l-31 -37l-35 -45l-46 -62q19 -4 34.5 -4.5t21.5 -0.5q25 0 47 4t42 9.5t39.5 9.5t40.5 4z " />
<glyph unicode="{" horiz-adv-x="393" d="M332 25q19 0 27.5 -16.5t8.5 -46.5q0 -19 -12 -33.5t-30 -24t-38.5 -14.5t-36.5 -5q-17 0 -38.5 9t-41 23.5t-32.5 31.5t-13 33q0 29 3.5 51t3.5 42q0 26 -10.5 64.5t-32.5 78.5q-18 32 -32.5 42.5t-25 13.5t-16 5t-5.5 17q0 19 12.5 27.5t31 13t40 9t40 15t31 31 t12.5 57.5q0 10 -2 19l-5 20q-3 10 -5.5 22t-2.5 29q0 16 7.5 37.5t20 42t28 37.5t30.5 24q23 11 39 12.5t24 1.5q12 0 14.5 -12.5t2.5 -23.5q0 -8 -9 -13t-23 -10l-30 -11q-16 -6 -30 -16t-23 -26t-9 -39q0 -20 2.5 -35.5t5.5 -29t5.5 -26t2.5 -26.5q0 -33 -18 -63 q-10 -18 -42 -40t-83 -30q19 -15 32.5 -29.5t24 -31t19 -36.5t17.5 -45q7 -22 10 -56.5t10 -67.5t20 -57t40 -24q25 0 35.5 12.5t16.5 27.5l10 26q5 13 19 13z" />
<glyph unicode="|" horiz-adv-x="138" d="M70 776q10 0 16.5 -12.5t10.5 -30.5t6 -38t2 -36q0 -6 -0.5 -19.5t-0.5 -34.5q0 -6 -2 -44l-3 -94q-2 -55 -4 -120l-4 -125l-3 -109q-2 -48 -2 -70q0 -1 -1.5 -13t-3 -27t-2.5 -29.5t-1 -19.5q0 -8 2.5 -13.5t2.5 -11.5q0 -10 -5 -17t-13 -7q-13 0 -20.5 5t-11.5 12 t-5 14.5t-1 12.5q0 16 3.5 32.5t7.5 32t7.5 31t3.5 29.5q0 15 -1 43l-4 66q-2 38 -3.5 81t-1.5 88q0 15 3 49l6 74q4 40 7 77.5t3 57.5q0 7 -1 22t-2.5 31.5t-2.5 31.5t-1 23q0 21 1.5 33t4.5 17.5t6.5 6.5t6.5 1z" />
<glyph unicode="}" d="M118 788q15 0 32 -17.5t31.5 -45t24 -62t9.5 -67.5q0 -17 -7.5 -37t-16 -38.5t-16 -33t-7.5 -20.5q0 -17 17 -30t44 -24q22 -9 36.5 -13.5t22.5 -10.5t11.5 -16t3.5 -30q0 -29 -14 -43.5t-30.5 -26t-30.5 -26t-14 -42.5q0 -16 13 -38l28 -49q16 -26 29 -54.5t13 -56.5 t-11 -49t-26.5 -36t-32 -24t-27.5 -13q-8 -3 -30.5 -5.5t-61.5 -2.5q-37 0 -47.5 5.5t-10.5 17.5q0 5 5 10.5t19 8.5t42 3.5t55.5 8.5t48.5 29.5t21 66.5q0 19 -12 42t-27 49t-27 53t-12 54q0 12 3.5 26t14 28.5t29.5 29t50 28.5q-15 18 -42 30l-52 23q-27 12 -46.5 27 t-19.5 39q0 27 12 47t26.5 40t26.5 41.5t12 51.5l-3 20q-1 13 -10 26q-13 18 -26 30l-22 22q-10 10 -16 18.5t-6 19.5q0 10 6 13t18 3z" />
<glyph unicode="~" horiz-adv-x="390" d="M150 330q14 0 25.5 -9t22.5 -19.5t22 -19.5t23 -9t24.5 19t25 41.5t26 41.5t28.5 19q11 0 15.5 -8t4.5 -21q0 -17 -14 -43l-27 -46q-12 -20 -23.5 -35t-23.5 -23t-27 -8q-12 0 -29.5 9t-35.5 20t-35 20t-27 9q-14 0 -21.5 -12.5t-14.5 -27t-16 -27t-24 -12.5 q-13 0 -22.5 4t-9.5 17q0 3 7.5 22t23.5 40.5t41 39.5t61 18z" />
<glyph unicode="&#xa1;" horiz-adv-x="166" d="M99 575q-11 0 -21 6.5t-17.5 16.5t-11.5 22t-4 23q0 8 1.5 17.5t5.5 17.5t9.5 13.5t13.5 5.5q9 0 20.5 -2.5t21 -9.5t16.5 -18t7 -27q0 -11 -1.5 -22t-6 -21t-12.5 -16t-21 -6zM56 5q-9 0 -16.5 6t-13 15t-8.5 18.5t-3 16.5q2 75 8.5 159.5t14.5 162.5q2 20 2.5 39.5 t4 35t12.5 25t28 9.5q7 0 13 -10.5t6 -46.5q0 -24 -1 -65.5t-3 -89.5t-5.5 -97t-9 -88.5t-13 -64.5t-16.5 -25z" />
<glyph unicode="&#xa2;" horiz-adv-x="314" d="M172 630q19 0 25.5 -20.5t6.5 -71.5q8 0 23.5 -4t31 -13t27 -24.5t11.5 -37.5q0 -13 -3.5 -20t-20.5 -7q-15 0 -22 5t-13 12.5t-14.5 15t-26.5 12.5q-5 -38 -6.5 -68.5t-1.5 -70.5v-34q0 -17 1 -39q20 4 35 6t27 2q35 0 35 -18q0 -19 -12.5 -31.5t-28.5 -20t-32 -11 t-23 -4.5q1 -29 1.5 -52t0.5 -40q0 -52 -8.5 -68.5t-28.5 -16.5q-14 0 -25 14q-7 10 -7 105v35q0 18 1 38q-45 41 -76.5 89t-31.5 109q0 34 13 55t31 34q20 15 40.5 22.5t27.5 15.5q1 15 1 32.5t3.5 33t12 26t26.5 10.5zM59 365q0 -20 18.5 -44t44.5 -41q-3 27 -3 55 t2.5 55.5t7.5 53.5q-24 -10 -41 -25q-29 -24 -29 -54z" />
<glyph unicode="&#xa3;" horiz-adv-x="286" d="M210 -19q-6 0 -22 3t-37.5 6t-47 6t-50.5 3q-17 0 -23 10t-6 26q0 21 7.5 32t20.5 22q22 18 40.5 42t31.5 51t20 55t7 53q-152 2 -164 8q-16 7 -16 24q0 16 17 21t40 6t46.5 1.5t37.5 8.5l-25 58q-10 24 -15.5 43t-8 37t-2.5 42q0 43 15 72.5t36 48.5t43.5 27.5t38.5 8.5 q9 0 19.5 -7t19.5 -18t14.5 -24.5t5.5 -26.5q0 -17 -4 -23.5t-10 -6.5q-12 0 -17 7t-9.5 15t-12 15t-25.5 7q-16 0 -31 -9.5t-26.5 -23t-18.5 -28.5t-7 -27q0 -17 6.5 -42.5t17 -52t24.5 -50.5t28 -36q33 10 50 10t28.5 -7t11.5 -27q0 -13 -11.5 -24t-51.5 -18 q-4 -52 -11.5 -84t-17.5 -55.5t-23.5 -43.5t-29.5 -48q9 -6 29 -9.5t40.5 -9.5t35.5 -17.5t15 -33.5q0 -17 -23 -17z" />
<glyph unicode="&#xa4;" horiz-adv-x="2098" d="M45 223h121v50h-32v156h32v55h-32v66h780v-82q-14 23 -43 23q-82 0 -82 -136q0 -135 85 -135q26 0 55 33v-30h43v327h664v-46h61v46h356v-451h-2008v124zM1601 223v167q0 96 -84 96q-42 0 -55 -43q-16 43 -49 43q-32 0 -48 -43v41h-57v-211h-34v-50h124v50h-33v108 q0 41 33 41q27 0 27 -41v-158h91v50h-34v108q0 39 34 39q26 0 26 -39v-158h59zM390 140h58v99q13 -21 43 -21q82 0 82 135t-86 135q-25 0 -55 -36v32h-42v-344zM779 351q0 139 -98 139q-96 0 -96 -139q0 -135 96 -135q98 0 98 135zM235 140h37q98 11 98 126v218h-59v-161 q0 -47 -35 -47q-34 0 -34 47v161h-57v-151q0 -113 82 -113q24 0 44 14q0 -41 -49 -41h-27v-53zM1151 484h-26v-41q-20 47 -59 47q-76 0 -76 -77q0 -48 39 -64q-41 -17 -41 -58q0 -38 21 -56.5t59 -18.5q39 0 61 23t22 71h-26q-4 -34 -45 -34q-35 0 -35 25q0 32 35 32h18v32 h-18q-35 0 -35 30q0 29 35 29q31 0 45 -36h26v96zM1881 481h-28v-38q-21 47 -53 47q-89 0 -89 -139q0 -133 91 -133q63 0 79 103h-28q-5 -41 -44 -41q-41 0 -41 71q0 73 41 73q39 0 44 -48h28v105zM1249 273h-25v115q0 36 25 36q10 0 21 -11l20 59q-13 13 -30 14 q-37 0 -55 -43v41h-34v-261h78v50zM1610 484v-55h26v-206h61v261h-87zM443 395q10 27 37 27q37 0 37 -67q0 -77 -39 -77q-24 0 -35 29v88zM720 351q0 -71 -39 -71q-37 0 -37 71q0 73 37 73q39 0 39 -73zM917 310q-10 -25 -35 -25q-38 0 -38 68q0 76 39 76q24 0 34 -28v-91z M45 273v156h36v-156h-36zM45 484v66h36v-66h-36z" />
<glyph unicode="&#xa5;" horiz-adv-x="484" d="M447 618q11 0 16 -8t5 -21q0 -15 -6.5 -32.5t-17 -35.5t-23 -35t-24.5 -31q-22 -26 -31 -42l-19 -33q-10 -17 -26 -40.5t-51 -63.5q22 -2 34 -4t17.5 -5.5t6.5 -9t1 -12.5q0 -17 -16 -23t-35.5 -9.5t-35.5 -9t-16 -21.5t12 -19.5t27 -5t27 -6t12 -22.5q-2 -9 -7 -14 t-14 -9l-21 -11q-12 -7 -27 -19q0 -38 -2 -61t-5.5 -35.5t-8.5 -16.5t-11 -4q-14 0 -20 8t-8 21.5t-2.5 30.5t-3.5 35q-9 0 -22 -1.5t-27.5 -3t-29 -2.5t-24.5 -1q-17 0 -29 6.5t-12 21.5q0 9 21 15.5t46.5 13.5t46.5 16.5t21 23.5q0 27 -53 27q-16 0 -35.5 -1.5t-33.5 -1.5 q-32 0 -41.5 6t-9.5 13q0 8 14.5 10t39 8.5t57 22t69.5 51.5l-25 49l-19 39l-16 33l-17 32q-9 18 -22 40l-24 41q-11 20 -19 37.5t-8 26.5q0 17 7 20t16 3q13 0 21.5 -5.5t16 -17.5t16.5 -29.5t23 -41.5l26 -42l24 -37l25 -44q14 -24 33 -61q19 16 35 37t30 45l29 48 q14 24 30 47q18 24 24 45.5t12 38t17 26.5t40 10z" />
<glyph unicode="&#xa6;" horiz-adv-x="172" d="M92 691q16 0 24.5 -9t12 -20.5t3.5 -21.5v-12q0 -51 -1.5 -104.5t-6.5 -104.5q-2 -14 -4.5 -28t-7 -25.5t-11.5 -19t-17 -7.5q-7 0 -11.5 6t-6.5 22.5t-3 45t-1 72.5q0 35 1.5 71.5t4.5 66.5t9 49t15 19zM86 238q18 0 28 -15.5t10 -25.5q-2 -54 -8 -114.5t-13 -117.5 q-2 -14 -2.5 -28t-4 -25t-11.5 -18t-26 -7q-6 0 -11.5 7.5t-5.5 33.5q0 17 1 47t3 64.5t5 70t8 64t11.5 46.5t15.5 18z" />
<glyph unicode="&#xa7;" horiz-adv-x="383" d="M180 669q20 0 50 -7.5t58 -21.5t48 -33t20 -43q0 -20 -9.5 -36t-32.5 -16q-6 0 -14 5t-8 16q0 9 5 15t5 13q0 14 -12 25t-29 19t-35 12t-30 4q-13 0 -31.5 -8.5t-35.5 -22t-29 -30t-12 -32.5q0 -19 17 -32t43 -24l56 -22q30 -11 56 -26.5t43 -38t17 -56.5 q0 -29 -23.5 -48t-52.5 -30l36 -20q19 -10 34 -25t24.5 -38t9.5 -59q0 -30 -15 -53.5t-38 -40t-50 -25t-51 -8.5q-22 0 -54 8.5t-61.5 24t-50.5 37.5t-21 48q0 23 10.5 41t34.5 18q7 0 15 -5t8 -19q0 -11 -5 -18t-5 -15q2 -16 14.5 -28t30 -20.5t36 -13t31.5 -4.5t32.5 9.5 t37.5 24.5t30.5 34t12.5 37q0 22 -18 37t-45.5 28t-59.5 26t-59.5 30.5t-45.5 42.5t-18 61q0 26 17 45.5t40 33.5q-12 6 -24.5 14.5t-22.5 21.5t-16 31t-6 42q0 28 15 49.5t37 36t48 22t48 7.5zM149 421q-20 -2 -29 -19.5t-9 -36.5q0 -17 11 -32.5t27 -27.5t34 -19t31 -7 q20 0 31 15t11 34q0 13 -9.5 26t-24.5 25t-34.5 22.5t-38.5 19.5z" />
<glyph unicode="&#xa8;" horiz-adv-x="350" d="M29 466q0 13 5 25t12.5 21.5t15.5 15.5t14 6q20 0 34.5 -11.5t14.5 -31.5q0 -10 -1 -23.5t-4.5 -25.5t-10 -20.5t-18.5 -8.5q-27 0 -44.5 14.5t-17.5 38.5zM189 485q0 12 5.5 23t14.5 20t20.5 14.5t23.5 5.5q11 0 22.5 -1.5t20.5 -6t15 -12t6 -19.5q0 -14 -9.5 -27.5 t-23 -24t-29.5 -17t-28 -6.5q-16 0 -27 17.5t-11 33.5z" />
<glyph unicode="&#xa9;" horiz-adv-x="503" d="M292 553q32 0 60.5 -17t50 -44.5t36 -61.5t18.5 -68q3 -25 7.5 -42t9 -30.5t7.5 -25t3 -24.5q0 -23 -13.5 -39t-35.5 -31l-49 -32q-26 -17 -52 -42q-35 -35 -82.5 -60t-108.5 -25q-21 0 -37.5 16.5t-29.5 43t-22.5 60t-15.5 67t-9 63.5t-3 51q0 59 20 104t55.5 75.5 t84.5 46t106 15.5zM283 510q-57 0 -97.5 -15t-66.5 -42t-38.5 -64.5t-12.5 -82.5q0 -23 5 -65.5t16.5 -84t31 -72t48.5 -30.5q7 0 21 6t29.5 15t31.5 20.5t28 22.5q25 24 50 39t44.5 28t32 27.5t12.5 37.5q0 26 -4 49t-9 60q-2 17 -11 43t-24.5 50t-37 41t-49.5 17zM270 381 q29 0 29 -12q0 -6 -9 -8.5t-24 -8.5t-35 -19.5t-42 -41.5q17 -3 31 -4t25 -1q22 0 34 2.5t17 2.5q11 0 11 -4q0 -11 -13.5 -18t-30.5 -11t-33.5 -5t-22.5 -1q-18 0 -34 7t-28 16.5t-19 19.5t-7 16q0 8 20.5 20t46.5 23t51 19t33 8z" />
<glyph unicode="&#xaa;" horiz-adv-x="336" d="M143 716q10 0 24.5 -2.5t29.5 -6.5t29 -9t23 -10q7 -9 12.5 -29t10 -45.5t7 -54t2.5 -54.5q0 -42 -7.5 -72t-23.5 -30q-13 0 -19 9t-12 41q-63 2 -98.5 19.5t-52.5 39t-20.5 41.5t-3.5 27q0 21 4.5 45t16 44t30.5 33.5t48 13.5zM149 654q-15 0 -25 -7.5t-16.5 -19.5 t-9 -25.5t-2.5 -25.5q0 -11 12 -24.5t28.5 -24.5t33.5 -18.5t26 -7.5q15 0 23 4q0 36 -1.5 64t-8.5 46.5t-21 28.5t-39 10z" />
<glyph unicode="&#xab;" horiz-adv-x="248" d="M111 452q5 0 5 -6q0 -5 -8 -18l-18 -29l-17 -30.5t-8 -21.5q0 -11 8.5 -24.5t18.5 -25.5l18 -24q8 -12 8 -19t-6 -10t-15 -3q-3 0 -13.5 7t-23.5 17.5t-24 23.5t-14 24q0 6 6.5 28.5t18.5 47t28 44t36 19.5zM192 446q14 0 14 -16q0 -8 -3 -14.5t-8 -15t-11 -20.5t-12 -30 q15 -14 25.5 -22.5t17.5 -15.5t11 -14t6 -17q0 -14 -4 -27t-13 -13q-8 0 -22 13.5t-28.5 31.5t-25 35.5t-10.5 25.5q0 5 7.5 21t17.5 33.5t21 31t17 13.5z" />
<glyph unicode="&#xac;" d="M94 427q39 0 77 -14l66 -24q20 -8 27.5 -17.5t7.5 -35.5q0 -9 -2 -16t-4.5 -15t-4.5 -17.5t-2 -23.5q0 -15 -9 -31t-23 -16q-6 0 -9 7t-4.5 16.5t-1.5 20.5v17q0 18 3 41q-21 8 -47.5 14.5t-49.5 14t-39.5 17t-17.5 23.5q0 18 8 28.5t25 10.5z" />
<glyph unicode="&#xad;" horiz-adv-x="313" d="M243 385q17 0 34 -3.5t17 -19.5q0 -9 -7 -15t-18.5 -9t-25.5 -4t-28 -1q-39 0 -71 2.5t-67 2.5q-11 0 -16 -1t-9 -2.5t-8.5 -2.5t-14.5 -1q-18 0 -18 14q0 18 10 31t30 13q29 0 48 -5t44 -5q17 0 30 1t24 2l22 2q11 1 24 1z" />
<glyph unicode="&#xae;" horiz-adv-x="520" d="M221 11q-103 0 -149.5 57.5t-46.5 171.5q0 61 24 105t64.5 72.5t92 42.5t107.5 14q40 0 74 -12t58 -34.5t37.5 -55t13.5 -72.5q0 -70 -21 -124t-57.5 -90.5t-87 -55.5t-109.5 -19zM301 447q-47 0 -88 -15.5t-72 -46t-49 -77t-18 -107.5q0 -25 8 -51t23.5 -47t38.5 -34.5 t52 -13.5q71 0 119 14.5t77 44.5t41.5 77t12.5 112q0 25 -4 35.5t-11.5 17.5t-18.5 14t-24 24q-22 28 -40 40.5t-47 12.5zM203 362q18 0 27.5 -18t9.5 -41q0 -18 -6 -37.5t-24 -34.5q39 -20 64 -30.5t40 -16t21 -8.5t7 -8q0 -10 -5.5 -16.5t-16.5 -6.5q-20 0 -37.5 7 t-33.5 16q-9 5 -15 8t-14 8l-20 13l-33 23q-3 -20 -3.5 -36t-1 -27.5t-3 -17.5t-8.5 -6q-9 0 -14.5 13.5t-8 30t-3 32t-0.5 19.5q0 22 2.5 46t10.5 43.5t23.5 32t41.5 12.5zM164 325q0 -67 8 -67q13 0 27 7.5t14 24.5q0 13 -8.5 24t-40.5 11z" />
<glyph unicode="&#xaf;" horiz-adv-x="313" d="M243 713q17 0 34 -3.5t17 -19.5q0 -9 -7 -15t-18.5 -9t-25.5 -4t-28 -1q-39 0 -71 2.5t-67 2.5q-11 0 -16 -1t-9 -2.5t-8.5 -2.5t-14.5 -1q-18 0 -18 14q0 18 10 31t30 13q29 0 48 -5t44 -5q17 0 30 1t24 2l22 2q11 1 24 1z" />
<glyph unicode="&#xb0;" horiz-adv-x="241" d="M108 498q-27 0 -44.5 4t-27.5 13.5t-13.5 24.5t-3.5 38q0 30 10 50.5t25.5 33.5t33.5 19t33 6t29.5 -5t26 -13.5t18 -19.5t6.5 -23q0 -15 -5.5 -36.5t-17 -42t-29 -35t-41.5 -14.5zM120 652q-6 0 -17 -4.5t-21.5 -13.5t-18 -22t-7.5 -30q0 -12 1 -21t5.5 -15.5t13.5 -10 t26 -3.5q15 0 26 11t18 25.5t10.5 29.5t3.5 24q0 4 -4.5 9.5t-11 10t-13.5 7.5t-11 3z" />
<glyph unicode="&#xb1;" horiz-adv-x="404" d="M166 251q0 10 6 17.5t13.5 15t14 17t6.5 23.5q0 16 -1 40t-6.5 47t-17.5 39.5t-34 16.5q-16 0 -29.5 -4t-26.5 -9.5t-25.5 -9.5t-26.5 -4q-10 0 -17.5 4.5t-7.5 14.5q0 29 20 40t49 16l59 10q30 6 50 23q0 12 1 24.5t4.5 23t10 17t18.5 6.5t15.5 -13.5t3.5 -30.5 q0 -8 -1 -21l-3 -21l18 -19q10 -11 33 -13t46 -3.5t40 -7t17 -23.5q0 -3 1 -6t5 -4h-133q-9 0 -14 -7.5t-8 -17t-4 -18.5t-1 -12q0 -32 7 -52t7 -37q0 -37 -15.5 -56.5t-57.5 -19.5q-16 0 -16 14zM305 186q17 0 34 -3.5t17 -19.5q0 -9 -7 -15t-18.5 -9t-25.5 -4t-28 -1 q-39 0 -71 2.5t-67 2.5q-11 0 -16 -1t-9 -2.5t-8.5 -2.5t-14.5 -1q-18 0 -18 14q0 18 10 31t30 13q29 0 48 -5t44 -5q17 0 30 1t24 2l22 2q11 1 24 1z" />
<glyph unicode="&#xb2;" horiz-adv-x="373" d="M174 677q32 0 45 -22t13 -54q0 -33 -9 -59.5t-24 -49.5t-35.5 -42.5t-42.5 -38.5q10 -9 30.5 -15t45 -10.5t50 -8.5t46.5 -10.5t34.5 -15.5t13.5 -23q0 -11 -3.5 -16.5t-14.5 -5.5q-26 0 -43 5l-39 14q-15 6 -49 13t-68.5 17t-60.5 23.5t-26 32.5q0 13 22 29l49 38 q27 21 49.5 48t22.5 61q0 13 -9 16t-18 3q-14 0 -22 -4t-14 -8.5t-12 -8.5t-16 -4q-9 0 -14 1.5t-5 10.5q0 12 5 26.5t17 27.5t32 21.5t50 8.5z" />
<glyph unicode="&#xb3;" horiz-adv-x="345" d="M73 697l29 -3q13 -2 27 -6q24 -6 52 -9t51 -9t38.5 -17.5t15.5 -35.5q0 -5 -1.5 -9.5t-1.5 -6.5q0 -5 5 -18l11 -29q6 -16 11 -32t5 -25t-6 -19t-17 -14q5 -3 8.5 -11t6 -17t3.5 -16.5t1 -10.5q0 -17 -12.5 -35.5t-32.5 -33.5t-44 -24.5t-48 -9.5q-13 0 -34.5 3.5 t-42.5 11t-36 18t-15 25.5q0 13 8 15.5t19 2.5q13 0 26 -4.5t26 -10.5t27 -10.5t29 -4.5q11 0 22 8t20.5 18.5t16.5 21.5t10 17q-1 20 -19.5 27t-40.5 10t-40 7t-18 19q0 14 13 25.5t29 11.5q20 0 39.5 -1.5t37.5 -6.5v9q0 51 -33 85.5t-96 34.5q-12 0 -23 -3t-28 -3 q-14 0 -17 10.5t-3 26.5q0 18 5.5 23t16.5 5z" />
<glyph unicode="&#xb4;" horiz-adv-x="266" d="M224 539q8 0 16 -7.5t8 -17.5q0 -25 -22 -49t-52 -43t-62 -30.5t-52 -11.5q-12 0 -25.5 6t-13.5 20q0 13 9.5 20t24 12t31.5 10t31 13q15 8 29 21l28 26q13 13 25.5 22t24.5 9z" />
<glyph unicode="&#xb5;" horiz-adv-x="356" d="M41 -127q-7 0 -8 7.5t-1 21.5v32q0 21 1 45.5t3.5 50t6.5 47.5q4 21 5.5 40t1.5 37q0 29 -3 56l-7 53l-7 54q-4 28 -4 58q0 15 9 18.5t17 3.5q6 0 11.5 -5.5t9 -22.5t6 -48.5t2.5 -82.5q16 -46 35 -79.5t37.5 -56t34 -33.5t23.5 -11q13 0 25 18t21 44t14 55t5 51 q0 21 -7 40t-15.5 36.5t-15.5 34.5t-7 34q0 14 5 29.5t19 15.5q18 0 30.5 -22t20 -51.5t10.5 -58.5t3 -43q0 -39 -10 -87t-26 -90.5t-37.5 -71t-43.5 -28.5q-16 0 -28 6t-24.5 22t-27.5 42l-37 68q-2 -8 -3 -19t-1 -23q0 -24 2 -47t2 -31q0 -14 -3 -32.5t-8.5 -35.5 t-14.5 -29t-21 -12z" />
<glyph unicode="&#xb6;" horiz-adv-x="519" d="M277 552q-15 23 -39.5 41t-53.5 18q-10 -3 -27.5 -10.5t-35 -18t-30.5 -24t-13 -28.5q0 -27 13 -53.5t37 -47t58 -33.5t77 -13q6 9 10.5 26.5t4.5 41.5v31q0 25 -1 70zM296 679q12 0 18.5 -20.5t6.5 -68.5q26 -32 32 -45.5t6 -24.5q0 -8 -8.5 -15t-31.5 -14q1 -8 1 -15 v-12q0 -24 -3 -42q12 -10 14 -17t2 -15q0 -15 -5.5 -30.5t-13.5 -32.5q-4 -35 -7 -73t-4.5 -74t-2 -68t-0.5 -56q0 -31 0.5 -52.5t0.5 -35.5q-2 -10 -4 -12t-10 -2q-5 0 -10.5 3.5t-10.5 19t-8.5 46.5t-3.5 86q0 51 3 106.5t10 115.5q-14 -5 -27.5 -6.5t-25.5 -1.5 q-56 0 -93 26t-59.5 61.5t-31.5 72t-9 58.5q0 28 17.5 49t43 35t55.5 22.5t54 11.5q17 -2 40 -11t38 -17q9 48 27 48zM450 680q13 0 17 -8.5t4 -22.5q0 -9 -2.5 -53t-6.5 -107l-9 -136q-5 -73 -9 -139t-6.5 -116t-2.5 -67q0 -33 -5 -47t-18 -14q-17 0 -17 44q0 81 2.5 150.5 t6 138t6 139.5t2.5 155q0 16 1.5 31t5.5 26.5t11.5 18.5t19.5 7z" />
<glyph unicode="&#xb7;" horiz-adv-x="144" d="M88 320q23 0 32 -7.5t9 -27.5q0 -8 -0.5 -18.5t-4.5 -19.5t-11.5 -15.5t-22.5 -6.5q-5 0 -11.5 3t-13.5 9.5t-11.5 16.5t-4.5 24q0 42 39 42z" />
<glyph unicode="&#xb8;" horiz-adv-x="172" d="M65 19q37 0 58 -17.5t21 -52.5q0 -16 -9.5 -44.5t-24.5 -57t-33 -49.5t-35 -21q-7 0 -9.5 7t-2.5 14q0 19 12 34.5t27 31.5t27 34t12 42q0 13 -10.5 20.5t-22.5 13.5t-22.5 13.5t-10.5 21.5q0 5 4 7.5t19 2.5z" />
<glyph unicode="&#xb9;" horiz-adv-x="197" d="M95 708q15 0 22 -11t7 -20q0 -10 -1 -20.5t-1 -26.5q0 -29 1.5 -62t4 -67.5t4 -69t1.5 -65.5q0 -14 -6 -19t-21 -5q-10 0 -14.5 18t-6.5 43.5t-2.5 54t-1.5 50.5q-2 23 -6 40t-8 32t-7 29t-3 31q0 10 1.5 22t6 22t12 17t18.5 7z" />
<glyph unicode="&#xba;" horiz-adv-x="332" d="M215 731q15 0 25.5 -12t17.5 -32.5t10 -48t3 -58.5t-2.5 -73t-14 -80.5t-34.5 -65t-65 -26.5q-31 0 -49 20.5t-27.5 54t-12 76t-2.5 86.5q0 57 17 84.5t46 40.5q29 12 51 23t37 11zM170 407q18 0 28.5 12t16 29.5t7.5 38t2 37.5q0 9 -1.5 21.5t-1.5 19.5h-3 q-7 0 -11 14.5t-6.5 32t-4 33t-4.5 18.5q-6 -1 -20 -5.5t-28.5 -14t-25.5 -25t-11 -38.5q0 -18 1 -47.5t7 -57t19 -48t36 -20.5z" />
<glyph unicode="&#xbb;" horiz-adv-x="248" d="M153 436q10 0 23.5 -8t25.5 -20.5t20.5 -26.5t8.5 -26q0 -2 -6.5 -22.5t-19 -44t-29.5 -43t-38 -19.5q-8 0 -9 3q6 10 15 23l20 28q9 13 15.5 24.5t6.5 19.5q0 10 -8 23t-18 27l-18 26q-8 12 -9 23q4 13 20 13zM44 453q4 0 17 -15t26.5 -34.5t24 -39.5t10.5 -30 q0 -5 -8 -19.5t-19.5 -30t-23 -27.5t-17.5 -12q-8 0 -11 4.5t-3 10.5q0 16 12.5 29.5t18.5 35.5q-2 9 -10 19l-16 20q-8 11 -15 23.5t-7 26.5q0 13 4.5 26t16.5 13z" />
<glyph unicode="&#xbc;" horiz-adv-x="738" d="M534 646q16 0 22.5 -6t6.5 -15q0 -15 -10 -28l-19 -24q-5 -5 -20 -31l-35 -60l-45 -73q-25 -39 -50 -70l-46 -58l-53 -68l-54 -69l-48 -62q-21 -27 -35.5 -43.5t-17.5 -16.5q-8 0 -12.5 7t-7.5 16.5t-4 19t-1 15.5q1 16 9 29.5t19 25.5l25 27q14 15 28 33q32 45 66 85 t60 86q19 34 35 55t31 37l28 30q14 14 29 36q10 18 18.5 39t19 39.5t25 31t36.5 12.5zM115 652q15 0 22 -11t7 -20q0 -10 -1 -20.5t-1 -26.5q0 -29 1.5 -62t4 -67.5t4 -69t1.5 -65.5q0 -14 -6 -19t-21 -5q-10 0 -14.5 18t-6.5 43.5t-2.5 54t-1.5 50.5q-2 23 -6 40t-8 32 t-7 29t-3 31q0 10 1.5 22t6 22t12 17t18.5 7zM600 449q11 0 13 -5t2 -11q0 -23 -1.5 -47.5t-3.5 -50.5l-10 -87q-4 -41 -4 -62q6 -2 19 -5t24 -8q9 -5 15 -10t6 -13q0 -10 -6 -15t-21 -8q-17 -4 -55 -4q1 -11 1 -26v-30q0 -22 -2 -49.5t-9 -47.5q-8 -24 -21 -24 q-20 0 -25 15.5t-5 38.5v32q0 21 0.5 43t1.5 41t2 26q-20 8 -34 10t-23 4.5t-13.5 8.5t-4.5 21q0 12 1.5 21t3.5 16.5t3.5 16t1.5 20.5q0 7 -2 14t-2 22q0 14 3.5 26t18.5 12q16 0 21.5 -16.5t5.5 -39.5q0 -19 -1.5 -38.5t-5.5 -34.5q38 -11 48 -11q2 51 8 88.5t12 63.5 q7 31 8.5 51.5t3.5 31.5t7 15.5t19 4.5z" />
<glyph unicode="&#xbd;" horiz-adv-x="738" d="M534 646q16 0 22.5 -6t6.5 -15q0 -15 -10 -28l-19 -24q-5 -5 -20 -31l-35 -60l-45 -73q-25 -39 -50 -70l-46 -58l-53 -68l-54 -69l-48 -62q-21 -27 -35.5 -43.5t-17.5 -16.5q-8 0 -12.5 7t-7.5 16.5t-4 19t-1 15.5q1 16 9 29.5t19 25.5l25 27q14 15 28 33q32 45 66 85 t60 86q19 34 35 55t31 37l28 30q14 14 29 36q10 18 18.5 39t19 39.5t25 31t36.5 12.5zM132 661q15 0 22 -11t7 -20q0 -10 -1 -20.5t-1 -26.5q0 -29 1.5 -62t4 -67.5t4 -69t1.5 -65.5q0 -14 -6 -19t-21 -5q-10 0 -14.5 18t-6.5 43.5t-2.5 54t-1.5 50.5q-2 23 -6 40t-8 32 t-7 29t-3 31q0 10 1.5 22t6 22t12 17t18.5 7zM530 353q32 0 45 -22t13 -54q0 -33 -9 -59.5t-24 -49.5t-35.5 -42.5t-42.5 -38.5q10 -9 30.5 -15t45 -10.5t50 -8.5t46.5 -10.5t34.5 -15.5t13.5 -23q0 -11 -3.5 -16.5t-14.5 -5.5q-26 0 -43 5l-39 14q-15 6 -49 13t-68.5 17 t-60.5 23.5t-26 32.5q0 13 22 29l49 38q27 21 49.5 48t22.5 61q0 13 -9 16t-18 3q-14 0 -22 -4t-14 -8.5t-12 -8.5t-16 -4q-9 0 -14 1.5t-5 10.5q0 12 5 26.5t17 27.5t32 21.5t50 8.5z" />
<glyph unicode="&#xbe;" horiz-adv-x="738" d="M534 646q16 0 22.5 -6t6.5 -15q0 -15 -10 -28l-19 -24q-5 -5 -20 -31l-35 -60l-45 -73q-25 -39 -50 -70l-46 -58l-53 -68l-54 -69l-48 -62q-21 -27 -35.5 -43.5t-17.5 -16.5q-8 0 -12.5 7t-7.5 16.5t-4 19t-1 15.5q1 16 9 29.5t19 25.5l25 27q14 15 28 33q32 45 66 85 t60 86q19 34 35 55t31 37l28 30q14 14 29 36q10 18 18.5 39t19 39.5t25 31t36.5 12.5zM34 703l29 -3q13 -2 27 -6q24 -6 52 -9t51 -9t38.5 -17.5t15.5 -35.5q0 -5 -1.5 -9.5t-1.5 -6.5q0 -5 5 -18l11 -29q6 -16 11 -32t5 -25t-6 -19t-17 -14q5 -3 8.5 -11t6 -17t3.5 -16.5 t1 -10.5q0 -17 -12.5 -35.5t-32.5 -33.5t-44 -24.5t-48 -9.5q-13 0 -34.5 3.5t-42.5 11t-36 18t-15 25.5q0 13 8 15.5t19 2.5q13 0 26 -4.5t26 -10.5t27 -10.5t29 -4.5q11 0 22 8t20.5 18.5t16.5 21.5t10 17q-1 20 -19.5 27t-40.5 10t-40 7t-18 19q0 14 13 25.5t29 11.5 q20 0 39.5 -1.5t37.5 -6.5v9q0 51 -33 85.5t-96 34.5q-12 0 -23 -3t-28 -3q-14 0 -17 10.5t-3 26.5q0 18 5.5 23t16.5 5zM642 486q11 0 13 -5t2 -11q0 -23 -1.5 -47.5t-3.5 -50.5l-10 -87q-4 -41 -4 -62q6 -2 19 -5t24 -8q9 -5 15 -10t6 -13q0 -10 -6 -15t-21 -8 q-17 -4 -55 -4q1 -11 1 -26v-30q0 -22 -2 -49.5t-9 -47.5q-8 -24 -21 -24q-20 0 -25 15.5t-5 38.5v32q0 21 0.5 43t1.5 41t2 26q-20 8 -34 10t-23 4.5t-13.5 8.5t-4.5 21q0 12 1.5 21t3.5 16.5t3.5 16t1.5 20.5q0 7 -2 14t-2 22q0 14 3.5 26t18.5 12q16 0 21.5 -16.5 t5.5 -39.5q0 -19 -1.5 -38.5t-5.5 -34.5q38 -11 48 -11q2 51 8 88.5t12 63.5q7 31 8.5 51.5t3.5 31.5t7 15.5t19 4.5z" />
<glyph unicode="&#xbf;" horiz-adv-x="352" d="M185 -15q-9 0 -23.5 1t-17.5 6q-16 29 -34.5 58t-34.5 59.5t-26.5 63.5t-10.5 71q0 43 20.5 70.5t49.5 44.5q30 17 62.5 26t56.5 11q0 37 -2.5 61t-2.5 49q0 12 2.5 22.5t13.5 10.5q10 0 18.5 -23t15 -54.5t10 -64.5t3.5 -52q-24 -6 -47.5 -14.5t-43.5 -17.5t-35.5 -17.5 t-22.5 -15.5q-20 -19 -37.5 -43.5t-17.5 -44.5q0 -4 7.5 -16t18.5 -28l25 -33l26 -33l20 -24q8 -10 9 -10q15 0 27.5 4t25.5 9t27 9t32 4q14 0 26 -3t12 -16q0 -10 -5 -15.5t-13 -8.5t-17.5 -4.5t-18.5 -3.5q-21 -4 -33 -10.5t-22 -12.5t-19 -10.5t-24 -4.5zM215 608 q-23 0 -27.5 18.5t-4.5 40.5t9 36.5t41 14.5q33 0 55 -18.5t22 -52.5q0 -14 -11 -21.5t-26 -11.5t-31.5 -5t-26.5 -1z" />
<glyph unicode="&#xc0;" horiz-adv-x="398" d="M365 18q-14 0 -22.5 5t-13.5 13t-7 18l-4 21q-2 12 -7 26t-11 29t-12.5 29t-10.5 26q-50 9 -92 9q-12 0 -23.5 -0.5t-22.5 -1.5q-15 -34 -24 -61t-16.5 -46.5t-15 -30t-19.5 -10.5q-16 0 -22 10.5t-6 26.5q0 22 5 42.5t16 46.5q-5 13 -13 20t-15.5 11.5t-13 7t-5.5 5.5 q0 20 20 31.5t62 19.5q2 24 6 58l10 73l12 78l14 76q6 37 12.5 66.5t11.5 47.5q6 20 16.5 28t22.5 8q14 0 24.5 -9.5t13.5 -26.5q17 -100 41.5 -207t54.5 -224q6 -21 15.5 -42.5t18 -43.5t15 -44t6.5 -44q0 -15 -3 -28t-18 -13zM149 264q14 2 27 3t27 1t29 -1t30 -3 q-11 26 -30 94t-38 171q-5 -43 -10 -79t-10.5 -68t-11.5 -61t-13 -57zM119 846q12 0 18.5 -4t13.5 -10t15 -14t23 -16q14 -8 38 -17t46.5 -19.5t39 -22t16.5 -24.5q0 -14 -13.5 -20t-25.5 -6q-20 0 -52 11.5t-62 30.5t-52 43t-22 49q0 19 17 19z" />
<glyph unicode="&#xc1;" horiz-adv-x="398" d="M365 18q-14 0 -22.5 5t-13.5 13t-7 18l-4 21q-2 12 -7 26t-11 29t-12.5 29t-10.5 26q-50 9 -92 9q-12 0 -23.5 -0.5t-22.5 -1.5q-15 -34 -24 -61t-16.5 -46.5t-15 -30t-19.5 -10.5q-16 0 -22 10.5t-6 26.5q0 22 5 42.5t16 46.5q-5 13 -13 20t-15.5 11.5t-13 7t-5.5 5.5 q0 20 20 31.5t62 19.5q2 24 6 58l10 73l12 78l14 76q6 37 12.5 66.5t11.5 47.5q6 20 16.5 28t22.5 8q14 0 24.5 -9.5t13.5 -26.5q17 -100 41.5 -207t54.5 -224q6 -21 15.5 -42.5t18 -43.5t15 -44t6.5 -44q0 -15 -3 -28t-18 -13zM149 264q14 2 27 3t27 1t29 -1t30 -3 q-11 26 -30 94t-38 171q-5 -43 -10 -79t-10.5 -68t-11.5 -61t-13 -57zM260 839q8 0 16 -7.5t8 -17.5q0 -25 -22 -49t-52 -43t-62 -30.5t-52 -11.5q-12 0 -25.5 6t-13.5 20q0 13 9.5 20t24 12t31.5 10t31 13q15 8 29 21l28 26q13 13 25.5 22t24.5 9z" />
<glyph unicode="&#xc2;" horiz-adv-x="398" d="M365 18q-14 0 -22.5 5t-13.5 13t-7 18l-4 21q-2 12 -7 26t-11 29t-12.5 29t-10.5 26q-50 9 -92 9q-12 0 -23.5 -0.5t-22.5 -1.5q-15 -34 -24 -61t-16.5 -46.5t-15 -30t-19.5 -10.5q-16 0 -22 10.5t-6 26.5q0 22 5 42.5t16 46.5q-5 13 -13 20t-15.5 11.5t-13 7t-5.5 5.5 q0 20 20 31.5t62 19.5q2 24 6 58l10 73l12 78l14 76q6 37 12.5 66.5t11.5 47.5q6 20 16.5 28t22.5 8q14 0 24.5 -9.5t13.5 -26.5q17 -100 41.5 -207t54.5 -224q6 -21 15.5 -42.5t18 -43.5t15 -44t6.5 -44q0 -15 -3 -28t-18 -13zM149 264q14 2 27 3t27 1t29 -1t30 -3 q-11 26 -30 94t-38 171q-5 -43 -10 -79t-10.5 -68t-11.5 -61t-13 -57zM162 815q9 0 35.5 -10.5t54.5 -28t50 -41t22 -49.5q0 -6 -5.5 -8t-12.5 -2q-22 0 -35 13.5t-23.5 29t-22.5 29t-31 13.5q-18 -10 -29.5 -23.5t-20 -25.5t-17 -20.5t-21.5 -8.5q-9 0 -14.5 8.5t-5.5 19.5 q0 13 8.5 28t20.5 29t25 26z" />
<glyph unicode="&#xc3;" horiz-adv-x="398" d="M365 18q-14 0 -22.5 5t-13.5 13t-7 18l-4 21q-2 12 -7 26t-11 29t-12.5 29t-10.5 26q-50 9 -92 9q-12 0 -23.5 -0.5t-22.5 -1.5q-15 -34 -24 -61t-16.5 -46.5t-15 -30t-19.5 -10.5q-16 0 -22 10.5t-6 26.5q0 22 5 42.5t16 46.5q-5 13 -13 20t-15.5 11.5t-13 7t-5.5 5.5 q0 20 20 31.5t62 19.5q2 24 6 58l10 73l12 78l14 76q6 37 12.5 66.5t11.5 47.5q6 20 16.5 28t22.5 8q14 0 24.5 -9.5t13.5 -26.5q17 -100 41.5 -207t54.5 -224q6 -21 15.5 -42.5t18 -43.5t15 -44t6.5 -44q0 -15 -3 -28t-18 -13zM149 264q14 2 27 3t27 1t29 -1t30 -3 q-11 26 -30 94t-38 171q-5 -43 -10 -79t-10.5 -68t-11.5 -61t-13 -57zM306 850q8 0 10.5 -6t2.5 -13q0 -9 -6 -22t-14 -26.5t-16 -25.5t-12 -19t-9.5 -12t-14.5 -5q-14 0 -25 6l-20 13l-22 12t-26 6q-14 0 -20.5 -8t-11 -17.5t-9.5 -17.5t-15 -8q-7 0 -13 4.5t-6 8.5 q0 3 5.5 18t14 32t19 30.5t21.5 13.5q5 0 17 -5q13 -5 22 -12l17 -13q8 -6 17 -10.5t23 -4.5q8 0 15 13l16 28q9 15 18.5 27.5t21.5 12.5z" />
<glyph unicode="&#xc4;" horiz-adv-x="398" d="M365 18q-14 0 -22.5 5t-13.5 13t-7 18l-4 21q-2 12 -7 26t-11 29t-12.5 29t-10.5 26q-50 9 -92 9q-12 0 -23.5 -0.5t-22.5 -1.5q-15 -34 -24 -61t-16.5 -46.5t-15 -30t-19.5 -10.5q-16 0 -22 10.5t-6 26.5q0 22 5 42.5t16 46.5q-5 13 -13 20t-15.5 11.5t-13 7t-5.5 5.5 q0 20 20 31.5t62 19.5q2 24 6 58l10 73l12 78l14 76q6 37 12.5 66.5t11.5 47.5q6 20 16.5 28t22.5 8q14 0 24.5 -9.5t13.5 -26.5q17 -100 41.5 -207t54.5 -224q6 -21 15.5 -42.5t18 -43.5t15 -44t6.5 -44q0 -15 -3 -28t-18 -13zM149 264q14 2 27 3t27 1t29 -1t30 -3 q-11 26 -30 94t-38 171q-5 -43 -10 -79t-10.5 -68t-11.5 -61t-13 -57zM52 740q0 13 5 25t12.5 21.5t15.5 15.5t14 6q20 0 34.5 -11.5t14.5 -31.5q0 -10 -1 -23.5t-4.5 -25.5t-10 -20.5t-18.5 -8.5q-27 0 -44.5 14.5t-17.5 38.5zM212 759q0 12 5.5 23t14.5 20t20.5 14.5 t23.5 5.5q11 0 22.5 -1.5t20.5 -6t15 -12t6 -19.5q0 -14 -9.5 -27.5t-23 -24t-29.5 -17t-28 -6.5q-16 0 -27 17.5t-11 33.5z" />
<glyph unicode="&#xc5;" horiz-adv-x="398" d="M365 18q-14 0 -22.5 5t-13.5 13t-7 18l-4 21q-2 12 -7 26t-11 29t-12.5 29t-10.5 26q-50 9 -92 9q-12 0 -23.5 -0.5t-22.5 -1.5q-15 -34 -24 -61t-16.5 -46.5t-15 -30t-19.5 -10.5q-16 0 -22 10.5t-6 26.5q0 22 5 42.5t16 46.5q-5 13 -13 20t-15.5 11.5t-13 7t-5.5 5.5 q0 20 20 31.5t62 19.5q2 24 6 58l10 73l12 78l14 76q6 37 12.5 66.5t11.5 47.5q6 20 16.5 28t22.5 8q14 0 24.5 -9.5t13.5 -26.5q17 -100 41.5 -207t54.5 -224q6 -21 15.5 -42.5t18 -43.5t15 -44t6.5 -44q0 -15 -3 -28t-18 -13zM149 264q14 2 27 3t27 1t29 -1t30 -3 q-11 26 -30 94t-38 171q-5 -43 -10 -79t-10.5 -68t-11.5 -61t-13 -57zM195 863q28 0 44.5 -16.5t24.5 -40.5t10 -51.5t2 -49.5q0 -7 -2 -14t-8.5 -13t-19 -9.5t-32.5 -3.5q-3 0 -19 2.5t-33.5 10.5t-31.5 22t-14 38q0 23 3 45.5t11.5 40t24 28.5t40.5 11zM186 800 q-20 0 -26.5 -10t-6.5 -21q0 -9 1 -19t4.5 -17.5t11 -12.5t19.5 -5q14 0 25.5 9t11.5 23q0 25 -6.5 39t-33.5 14z" />
<glyph unicode="&#xc6;" horiz-adv-x="586" d="M235 738q14 0 19.5 -4.5t13.5 -16.5q85 24 145 32.5t102 8.5q32 0 32 -26q0 -14 -6.5 -24.5t-19.5 -12.5q-29 -2 -58.5 -2t-61 -2.5t-65.5 -10.5t-71 -25q3 -59 4.5 -98t5.5 -78q2 -19 6 -47t11 -65q31 6 62.5 17t61.5 24.5t58 27.5l51 26q13 7 26 7q25 0 25 -34 q0 -20 -26 -40.5t-68 -40t-95 -37.5t-107 -34q4 -77 6 -122t5 -68.5t8.5 -30t17.5 -6.5h66q33 0 57.5 3.5t43 7t33 7t28.5 3.5q12 0 14.5 -9.5t2.5 -36.5q-1 -9 -24.5 -15.5t-62 -11t-88 -7t-101.5 -2.5q-21 0 -33.5 4.5t-18.5 12t-7.5 16.5t-1.5 17q0 14 2 31l5 43 q3 26 5 63t2 91q-15 0 -35 -1.5t-40 -6t-37 -13.5t-27 -25q-2 -16 -6.5 -39.5t-10.5 -48.5l-12 -51q-6 -26 -10 -45q-5 -18 -14.5 -29t-17.5 -11q-13 0 -13 22q0 32 12 78t27 112q-17 2 -17 19q0 16 12.5 29.5t22.5 27.5q9 47 17 93.5t19.5 95t28 100t42.5 108.5 q12 27 24.5 38t30.5 12zM245 359q-6 22 -10.5 58.5t-7 77.5t-4 82t-1.5 73q-36 -97 -58.5 -175t-33.5 -147q30 8 46.5 11.5t27 6t19 5t22.5 8.5z" />
<glyph unicode="&#xc7;" horiz-adv-x="348" d="M279 611q16 0 23 -14t7 -23q0 -28 -29 -33q-75 -11 -117.5 -31t-64 -51.5t-26.5 -77t-5 -106.5q0 -36 5.5 -69t19.5 -57.5t38 -39t62 -14.5q22 0 36.5 3.5t24.5 7t17.5 7t16.5 3.5q19 0 26 -15t7 -26q0 -19 -13 -33.5t-32 -24t-40.5 -14.5t-38.5 -5q-39 0 -66.5 16.5 t-46.5 43.5t-30 61.5t-17 70.5t-8 70.5t-2 61.5q0 56 11 108t39 92.5t77 64.5t126 24zM152 19q37 0 58 -17.5t21 -52.5q0 -16 -9.5 -44.5t-24.5 -57t-33 -49.5t-35 -21q-7 0 -9.5 7t-2.5 14q0 19 12 34.5t27 31.5t27 34t12 42q0 13 -10.5 20.5t-22.5 13.5t-22.5 13.5 t-10.5 21.5q0 5 4 7.5t19 2.5z" />
<glyph unicode="&#xc8;" d="M227 586q17 0 25 -10.5t8 -28.5q-1 -14 -17.5 -23.5t-39.5 -17t-49.5 -14t-47.5 -14.5q3 -23 3 -41q0 -21 -3.5 -45.5t-5.5 -62.5q38 3 66 10.5t48 16.5l35 14q14 6 25 6q10 0 22.5 -14.5t12.5 -34.5q0 -12 -13.5 -21t-34.5 -16t-47 -12t-50.5 -8.5t-44.5 -5.5l-30 -3 q-2 -20 -5 -44.5t-3 -66.5v-54q41 2 69 5.5t47.5 6.5t33.5 5.5t28 2.5q12 0 22 -15.5t10 -28.5q0 -10 -7 -15.5t-25 -8t-47.5 -3t-74.5 -0.5q-60 0 -83 5.5t-23 16.5q0 20 1.5 37t4 34t4 36t1.5 42v82q2 31 11 64.5t9 60.5q0 14 -2 23.5t-4.5 17.5t-4.5 15t-2 16 q0 26 7.5 35.5t27.5 17.5l66 24q38 14 77 14zM70 762q12 0 18.5 -4t13.5 -10t15 -14t23 -16q14 -8 38 -17t46.5 -19.5t39 -22t16.5 -24.5q0 -14 -13.5 -20t-25.5 -6q-20 0 -52 11.5t-62 30.5t-52 43t-22 49q0 19 17 19z" />
<glyph unicode="&#xc9;" d="M227 586q17 0 25 -10.5t8 -28.5q-1 -14 -17.5 -23.5t-39.5 -17t-49.5 -14t-47.5 -14.5q3 -23 3 -41q0 -21 -3.5 -45.5t-5.5 -62.5q38 3 66 10.5t48 16.5l35 14q14 6 25 6q10 0 22.5 -14.5t12.5 -34.5q0 -12 -13.5 -21t-34.5 -16t-47 -12t-50.5 -8.5t-44.5 -5.5l-30 -3 q-2 -20 -5 -44.5t-3 -66.5v-54q41 2 69 5.5t47.5 6.5t33.5 5.5t28 2.5q12 0 22 -15.5t10 -28.5q0 -10 -7 -15.5t-25 -8t-47.5 -3t-74.5 -0.5q-60 0 -83 5.5t-23 16.5q0 20 1.5 37t4 34t4 36t1.5 42v82q2 31 11 64.5t9 60.5q0 14 -2 23.5t-4.5 17.5t-4.5 15t-2 16 q0 26 7.5 35.5t27.5 17.5l66 24q38 14 77 14zM256 752q8 0 16 -7.5t8 -17.5q0 -25 -22 -49t-52 -43t-62 -30.5t-52 -11.5q-12 0 -25.5 6t-13.5 20q0 13 9.5 20t24 12t31.5 10t31 13q15 8 29 21l28 26q13 13 25.5 22t24.5 9z" />
<glyph unicode="&#xca;" d="M227 586q17 0 25 -10.5t8 -28.5q-1 -14 -17.5 -23.5t-39.5 -17t-49.5 -14t-47.5 -14.5q3 -23 3 -41q0 -21 -3.5 -45.5t-5.5 -62.5q38 3 66 10.5t48 16.5l35 14q14 6 25 6q10 0 22.5 -14.5t12.5 -34.5q0 -12 -13.5 -21t-34.5 -16t-47 -12t-50.5 -8.5t-44.5 -5.5l-30 -3 q-2 -20 -5 -44.5t-3 -66.5v-54q41 2 69 5.5t47.5 6.5t33.5 5.5t28 2.5q12 0 22 -15.5t10 -28.5q0 -10 -7 -15.5t-25 -8t-47.5 -3t-74.5 -0.5q-60 0 -83 5.5t-23 16.5q0 20 1.5 37t4 34t4 36t1.5 42v82q2 31 11 64.5t9 60.5q0 14 -2 23.5t-4.5 17.5t-4.5 15t-2 16 q0 26 7.5 35.5t27.5 17.5l66 24q38 14 77 14zM123 760q9 0 35.5 -10.5t54.5 -28t50 -41t22 -49.5q0 -6 -5.5 -8t-12.5 -2q-22 0 -35 13.5t-23.5 29t-22.5 29t-31 13.5q-18 -10 -29.5 -23.5t-20 -25.5t-17 -20.5t-21.5 -8.5q-9 0 -14.5 8.5t-5.5 19.5q0 13 8.5 28t20.5 29 t25 27z" />
<glyph unicode="&#xcb;" d="M227 586q17 0 25 -10.5t8 -28.5q-1 -14 -17.5 -23.5t-39.5 -17t-49.5 -14t-47.5 -14.5q3 -23 3 -41q0 -21 -3.5 -45.5t-5.5 -62.5q38 3 66 10.5t48 16.5l35 14q14 6 25 6q10 0 22.5 -14.5t12.5 -34.5q0 -12 -13.5 -21t-34.5 -16t-47 -12t-50.5 -8.5t-44.5 -5.5l-30 -3 q-2 -20 -5 -44.5t-3 -66.5v-54q41 2 69 5.5t47.5 6.5t33.5 5.5t28 2.5q12 0 22 -15.5t10 -28.5q0 -10 -7 -15.5t-25 -8t-47.5 -3t-74.5 -0.5q-60 0 -83 5.5t-23 16.5q0 20 1.5 37t4 34t4 36t1.5 42v82q2 31 11 64.5t9 60.5q0 14 -2 23.5t-4.5 17.5t-4.5 15t-2 16 q0 26 7.5 35.5t27.5 17.5l66 24q38 14 77 14zM26 662q0 13 5 25t12.5 21.5t15.5 15.5t14 6q20 0 34.5 -11.5t14.5 -31.5q0 -10 -1 -23.5t-4.5 -25.5t-10 -20.5t-18.5 -8.5q-27 0 -44.5 14.5t-17.5 38.5zM186 681q0 12 5.5 23t14.5 20t20.5 14.5t23.5 5.5q11 0 22.5 -1.5 t20.5 -6t15 -12t6 -19.5q0 -14 -9.5 -27.5t-23 -24t-29.5 -17t-28 -6.5q-16 0 -27 17.5t-11 33.5z" />
<glyph unicode="&#xcc;" horiz-adv-x="347" d="M66 619q17 0 36.5 -6.5t54.5 -11.5q24 -4 47.5 -6.5t38.5 -10.5q16 -7 16 -23q0 -8 -5 -11t-20 -3q-11 0 -26 2t-35 5q4 -54 5.5 -107t1.5 -107q0 -32 -1 -59.5t-2.5 -56t-2.5 -59.5t-1 -70q0 -11 1.5 -20.5t3.5 -12.5q35 0 54 2t30 4.5t18 4.5t18 2t26 -4.5t15 -17.5 q0 -17 -23 -26.5t-55.5 -14.5t-66.5 -6t-56 -1q-17 0 -38.5 1t-40.5 5t-32 12.5t-13 22.5q0 17 19 22t49 5h16q7 0 15 -1l4 20q-1 145 -3.5 227.5t-6.5 108.5q-2 15 -3 32t-1 35q0 28 3 61q-35 13 -47.5 26t-12.5 26q0 4 4 7.5t16 3.5zM66 784q12 0 18.5 -4t13.5 -10t15 -14 t23 -16q14 -8 38 -17t46.5 -19.5t39 -22t16.5 -24.5q0 -14 -13.5 -20t-25.5 -6q-20 0 -52 11.5t-62 30.5t-52 43t-22 49q0 19 17 19z" />
<glyph unicode="&#xcd;" horiz-adv-x="347" d="M66 619q17 0 36.5 -6.5t54.5 -11.5q24 -4 47.5 -6.5t38.5 -10.5q16 -7 16 -23q0 -8 -5 -11t-20 -3q-11 0 -26 2t-35 5q4 -54 5.5 -107t1.5 -107q0 -32 -1 -59.5t-2.5 -56t-2.5 -59.5t-1 -70q0 -11 1.5 -20.5t3.5 -12.5q35 0 54 2t30 4.5t18 4.5t18 2t26 -4.5t15 -17.5 q0 -17 -23 -26.5t-55.5 -14.5t-66.5 -6t-56 -1q-17 0 -38.5 1t-40.5 5t-32 12.5t-13 22.5q0 17 19 22t49 5h16q7 0 15 -1l4 20q-1 145 -3.5 227.5t-6.5 108.5q-2 15 -3 32t-1 35q0 28 3 61q-35 13 -47.5 26t-12.5 26q0 4 4 7.5t16 3.5zM241 802q8 0 16 -7.5t8 -17.5 q0 -25 -22 -49t-52 -43t-62 -30.5t-52 -11.5q-12 0 -25.5 6t-13.5 20q0 13 9.5 20t24 12t31.5 10t31 13q15 8 29 21l27 26q14 13 26.5 22t24.5 9z" />
<glyph unicode="&#xce;" horiz-adv-x="347" d="M66 619q17 0 36.5 -6.5t54.5 -11.5q24 -4 47.5 -6.5t38.5 -10.5q16 -7 16 -23q0 -8 -5 -11t-20 -3q-11 0 -26 2t-35 5q4 -54 5.5 -107t1.5 -107q0 -32 -1 -59.5t-2.5 -56t-2.5 -59.5t-1 -70q0 -11 1.5 -20.5t3.5 -12.5q35 0 54 2t30 4.5t18 4.5t18 2t26 -4.5t15 -17.5 q0 -17 -23 -26.5t-55.5 -14.5t-66.5 -6t-56 -1q-17 0 -38.5 1t-40.5 5t-32 12.5t-13 22.5q0 17 19 22t49 5h16q7 0 15 -1l4 20q-1 145 -3.5 227.5t-6.5 108.5q-2 15 -3 32t-1 35q0 28 3 61q-35 13 -47.5 26t-12.5 26q0 4 4 7.5t16 3.5zM118 802q9 0 35.5 -10.5t54.5 -28 t50 -41t22 -49.5q0 -6 -5.5 -8t-12.5 -2q-22 0 -35 13.5t-23.5 29t-22.5 29t-31 13.5q-18 -10 -29.5 -23.5t-20 -25.5t-17 -20.5t-21.5 -8.5q-9 0 -14.5 8.5t-5.5 19.5q0 13 8.5 28t20.5 29t25 27z" />
<glyph unicode="&#xcf;" horiz-adv-x="347" d="M66 619q17 0 36.5 -6.5t54.5 -11.5q24 -4 47.5 -6.5t38.5 -10.5q16 -7 16 -23q0 -8 -5 -11t-20 -3q-11 0 -26 2t-35 5q4 -54 5.5 -107t1.5 -107q0 -32 -1 -59.5t-2.5 -56t-2.5 -59.5t-1 -70q0 -11 1.5 -20.5t3.5 -12.5q35 0 54 2t30 4.5t18 4.5t18 2t26 -4.5t15 -17.5 q0 -17 -23 -26.5t-55.5 -14.5t-66.5 -6t-56 -1q-17 0 -38.5 1t-40.5 5t-32 12.5t-13 22.5q0 17 19 22t49 5h16q7 0 15 -1l4 20q-1 145 -3.5 227.5t-6.5 108.5q-2 15 -3 32t-1 35q0 28 3 61q-35 13 -47.5 26t-12.5 26q0 4 4 7.5t16 3.5zM19 698q0 13 5 25t12.5 21.5 t15.5 15.5t14 6q20 0 34.5 -11.5t14.5 -31.5q0 -10 -1 -23.5t-4.5 -25.5t-10 -20.5t-18.5 -8.5q-27 0 -44.5 14.5t-17.5 38.5zM179 717q0 12 5.5 23t14.5 20t20.5 14.5t23.5 5.5q11 0 22.5 -1.5t20.5 -6t15 -12t6 -19.5q0 -14 -9.5 -27.5t-23 -24t-29.5 -17t-28 -6.5 q-16 0 -27 17.5t-11 33.5z" />
<glyph unicode="&#xd0;" horiz-adv-x="441" d="M94 -7q-20 0 -36 6.5t-16 28.5q0 11 12 19t37 26q0 25 -2.5 52t-5.5 51.5t-7 45.5l-5 33q-18 0 -28.5 -2t-17 -5t-12 -5t-13.5 -2q-16 0 -22 15t-6 32q0 8 11 12t26 8t30 11t23 21q0 60 -10 115t-10 98q0 19 15.5 31.5t37.5 19.5t45.5 10t38.5 3q46 0 94 -26.5t87 -77.5 q18 -23 28 -42.5t15 -43.5t6.5 -55.5t1.5 -76.5q0 -56 -18.5 -100t-48 -77.5t-66 -57t-71.5 -38.5t-65.5 -22t-47.5 -7zM246 347q0 -15 -9.5 -23t-25 -13.5t-35.5 -11t-42 -14.5q3 -24 5.5 -53t4 -58t2.5 -55l3 -44q56 10 96.5 36t66.5 62t38 80.5t12 92.5q0 23 -15.5 62 t-40 76.5t-54.5 65t-59 27.5q-19 0 -38 -5t-51 -26q7 -30 13.5 -78.5t10.5 -109.5q36 6 57 11.5t33 5.5q28 0 28 -28z" />
<glyph unicode="&#xd1;" horiz-adv-x="436" d="M90 506q-17 -39 -17 -80q0 -24 3 -58.5t7 -70t7 -67t3 -48.5v-56q0 -28 0.5 -52.5t0.5 -43.5v-25q0 -23 -7.5 -38t-17.5 -15q-12 0 -24.5 22t-12.5 50q0 78 -1.5 152.5t-1.5 128.5q0 30 1.5 80t5 99.5t9.5 90t16 52.5q19 -15 39 -39.5t37.5 -54.5t32 -63t23.5 -66l11 -45 l18 -65q9 -34 18 -63t18 -54.5t18.5 -49.5t20.5 -48q6 21 11 35l8 26q4 12 6.5 24.5t4.5 30.5q3 26 5 63l6 76q2 40 5 78t7 67q4 23 8 37.5t17 14.5q16 0 26.5 -10.5t10.5 -22.5q0 -6 -2 -31t-5 -59t-7 -72.5t-7 -71.5l-5 -54q-2 -23 -2 -25q0 -24 -2.5 -40.5t-6.5 -34 t-8.5 -41t-8.5 -60.5q-4 -35 -8.5 -56t-11 -32t-16 -14t-24.5 -3q-12 0 -20.5 15.5t-14.5 39.5t-9 53l-7 56q-3 28 -11 58t-17.5 57t-20.5 49t-20 36q0 17 -7 52t-19 70q-15 44 -29 70t-33 46zM353 738q8 0 10.5 -6t2.5 -13q0 -9 -6 -22t-14 -26.5t-16 -25.5t-12 -19 t-9.5 -12t-14.5 -5q-14 0 -24 6l-22 13q-10 6 -21 12t-26 6q-14 0 -20.5 -8t-11 -17.5t-9.5 -17.5t-15 -8q-7 0 -13 4.5t-6 8.5q0 3 5.5 18t14 32t19 30.5t21.5 13.5q5 0 17 -5q13 -5 22 -12l17 -13q8 -6 17 -10.5t23 -4.5q8 0 16 13l16 28q8 15 17.5 27.5t21.5 12.5z" />
<glyph unicode="&#xd2;" horiz-adv-x="427" d="M224 546q2 0 22 -3t45.5 -8t49.5 -12.5t34 -17.5q6 -16 12 -37.5t11 -45t8 -47t3 -43.5q-5 -19 -8.5 -45.5t-6 -55t-3.5 -56.5t-1 -51q-9 -26 -36.5 -47.5t-62 -37.5t-69 -25t-57.5 -9t-39 9t-28 23t-22 33l-19 36q-12 21 -21 33t-15 22t-9 22.5t-3 34.5q0 27 7 61.5 t20 71t31.5 71.5t42.5 62.5t52.5 44.5t61.5 17zM215 497q-26 0 -53.5 -30t-50.5 -70t-38 -79t-15 -57q0 -26 8 -60.5t23 -65.5t36 -52.5t47 -21.5q13 0 33.5 3.5t43 13.5t43.5 26.5t35 42.5q9 18 14 32.5t8 39t3.5 64.5t0.5 108q-5 18 -20 37t-34.5 34.5t-41.5 25t-42 9.5z M117 737q12 0 18.5 -4t13.5 -10t15 -14t23 -16q14 -8 38 -17t46.5 -19.5t39 -22t16.5 -24.5q0 -14 -13.5 -20t-25.5 -6q-20 0 -52 11.5t-62 30.5t-52 43t-22 49q0 19 17 19z" />
<glyph unicode="&#xd3;" horiz-adv-x="427" d="M224 546q2 0 22 -3t45.5 -8t49.5 -12.5t34 -17.5q6 -16 12 -37.5t11 -45t8 -47t3 -43.5q-5 -19 -8.5 -45.5t-6 -55t-3.5 -56.5t-1 -51q-9 -26 -36.5 -47.5t-62 -37.5t-69 -25t-57.5 -9t-39 9t-28 23t-22 33l-19 36q-12 21 -21 33t-15 22t-9 22.5t-3 34.5q0 27 7 61.5 t20 71t31.5 71.5t42.5 62.5t52.5 44.5t61.5 17zM215 497q-26 0 -53.5 -30t-50.5 -70t-38 -79t-15 -57q0 -26 8 -60.5t23 -65.5t36 -52.5t47 -21.5q13 0 33.5 3.5t43 13.5t43.5 26.5t35 42.5q9 18 14 32.5t8 39t3.5 64.5t0.5 108q-5 18 -20 37t-34.5 34.5t-41.5 25t-42 9.5z M317 740q8 0 16 -7.5t8 -17.5q0 -25 -22 -49t-52 -43t-62 -30.5t-52 -11.5q-12 0 -25.5 6t-13.5 20q0 13 9.5 20t24 12t31.5 10t31 13q15 8 29 21l27 26q14 13 26.5 22t24.5 9z" />
<glyph unicode="&#xd4;" horiz-adv-x="427" d="M224 546q2 0 22 -3t45.5 -8t49.5 -12.5t34 -17.5q6 -16 12 -37.5t11 -45t8 -47t3 -43.5q-5 -19 -8.5 -45.5t-6 -55t-3.5 -56.5t-1 -51q-9 -26 -36.5 -47.5t-62 -37.5t-69 -25t-57.5 -9t-39 9t-28 23t-22 33l-19 36q-12 21 -21 33t-15 22t-9 22.5t-3 34.5q0 27 7 61.5 t20 71t31.5 71.5t42.5 62.5t52.5 44.5t61.5 17zM215 497q-26 0 -53.5 -30t-50.5 -70t-38 -79t-15 -57q0 -26 8 -60.5t23 -65.5t36 -52.5t47 -21.5q13 0 33.5 3.5t43 13.5t43.5 26.5t35 42.5q9 18 14 32.5t8 39t3.5 64.5t0.5 108q-5 18 -20 37t-34.5 34.5t-41.5 25t-42 9.5z M190 732q9 0 35.5 -10.5t54.5 -28t50 -41t22 -49.5q0 -6 -5.5 -8t-12.5 -2q-22 0 -35 13.5t-23.5 29t-22.5 29t-31 13.5q-18 -10 -29.5 -23.5t-20 -25.5t-17 -20.5t-21.5 -8.5q-9 0 -14.5 8.5t-5.5 19.5q0 13 8.5 28t20.5 29t25 27z" />
<glyph unicode="&#xd5;" horiz-adv-x="427" d="M224 546q2 0 22 -3t45.5 -8t49.5 -12.5t34 -17.5q6 -16 12 -37.5t11 -45t8 -47t3 -43.5q-5 -19 -8.5 -45.5t-6 -55t-3.5 -56.5t-1 -51q-9 -26 -36.5 -47.5t-62 -37.5t-69 -25t-57.5 -9t-39 9t-28 23t-22 33l-19 36q-12 21 -21 33t-15 22t-9 22.5t-3 34.5q0 27 7 61.5 t20 71t31.5 71.5t42.5 62.5t52.5 44.5t61.5 17zM215 497q-26 0 -53.5 -30t-50.5 -70t-38 -79t-15 -57q0 -26 8 -60.5t23 -65.5t36 -52.5t47 -21.5q13 0 33.5 3.5t43 13.5t43.5 26.5t35 42.5q9 18 14 32.5t8 39t3.5 64.5t0.5 108q-5 18 -20 37t-34.5 34.5t-41.5 25t-42 9.5z M328 732q8 0 10.5 -6t2.5 -13q0 -9 -6 -22t-14 -26.5t-16 -25.5t-12 -19t-9.5 -12t-14.5 -5q-14 0 -25 6l-20 13l-22 12t-26 6q-14 0 -20.5 -8t-11 -17.5t-9.5 -17.5t-15 -8q-7 0 -13 4.5t-6 8.5q0 3 5.5 18t14 32t19 30.5t21.5 13.5q5 0 17 -5q13 -5 22 -12l17 -13 q8 -6 17 -10.5t23 -4.5q8 0 15 13l16 28q9 15 18.5 27.5t21.5 12.5z" />
<glyph unicode="&#xd6;" horiz-adv-x="427" d="M224 546q2 0 22 -3t45.5 -8t49.5 -12.5t34 -17.5q6 -16 12 -37.5t11 -45t8 -47t3 -43.5q-5 -19 -8.5 -45.5t-6 -55t-3.5 -56.5t-1 -51q-9 -26 -36.5 -47.5t-62 -37.5t-69 -25t-57.5 -9t-39 9t-28 23t-22 33l-19 36q-12 21 -21 33t-15 22t-9 22.5t-3 34.5q0 27 7 61.5 t20 71t31.5 71.5t42.5 62.5t52.5 44.5t61.5 17zM215 497q-26 0 -53.5 -30t-50.5 -70t-38 -79t-15 -57q0 -26 8 -60.5t23 -65.5t36 -52.5t47 -21.5q13 0 33.5 3.5t43 13.5t43.5 26.5t35 42.5q9 18 14 32.5t8 39t3.5 64.5t0.5 108q-5 18 -20 37t-34.5 34.5t-41.5 25t-42 9.5z M71 637q0 13 5 25t12.5 21.5t15.5 15.5t14 6q20 0 34.5 -11.5t14.5 -31.5q0 -10 -1 -23.5t-4.5 -25.5t-10 -20.5t-18.5 -8.5q-27 0 -44.5 14.5t-17.5 38.5zM231 656q0 12 5.5 23t14.5 20t20.5 14.5t23.5 5.5q11 0 22.5 -1.5t20.5 -6t15 -12t6 -19.5q0 -14 -9.5 -27.5 t-23 -24t-29.5 -17t-28 -6.5q-16 0 -27 17.5t-11 33.5z" />
<glyph unicode="&#xd7;" horiz-adv-x="361" d="M30 116q0 19 12 52t29 67t34.5 62.5t28.5 38.5q-38 27 -55.5 47.5t-17.5 39.5q0 8 7.5 11.5t16.5 3.5q16 -2 32 -11.5t30 -20.5l28 -23q14 -12 26 -19q13 7 33 16t41 17t38.5 14t25.5 8q8 0 8 -6q0 -14 -11 -24.5t-27 -19t-34.5 -16t-32.5 -14.5l27 -32l26 -32 q12 -16 19.5 -27.5t7.5 -15.5q0 -17 -10.5 -23t-27.5 -6q-12 0 -29 12.5t-33 29.5t-28.5 34t-16.5 27q-20 -14 -39 -41t-33 -65l-13 -34q-6 -17 -13 -30t-16 -21t-19 -8q-14 0 -14 9z" />
<glyph unicode="&#xd8;" horiz-adv-x="500" d="M257 662q35 0 72.5 -4t75.5 -23q17 18 24 36.5t10.5 33t7 24t12.5 9.5q10 0 13 -19.5t3 -37.5q0 -23 -4.5 -38.5t-17.5 -35.5q3 -23 3 -51q0 -48 -3 -112t-13 -131.5t-28.5 -133t-49 -117t-74.5 -83t-106 -31.5q-31 0 -52.5 2.5t-35.5 11.5q-8 4 -13.5 9.5t-10 16.5 t-8.5 31t-8 54q-31 -21 -47.5 -38t-27 -29t-18.5 -18.5t-21 -6.5q-7 0 -10 4t-3 17q0 15 13.5 35.5t32.5 41.5t38.5 39t30.5 27q-3 76 -3 139q0 66 4.5 118.5t10.5 90t12 59.5t10 28q15 24 37 40t46.5 25.5t50 13t47.5 3.5zM83 122q1 -38 5.5 -61.5t16 -36t30.5 -16.5t49 -4 q60 0 98 27t60 71.5t32 101.5t14.5 116t7 116t10.5 101l-40 -38l-26 -25q-11 -10 -20 -17t-20 -17q-29 -25 -43 -50.5t-26 -52t-27 -55t-44 -58.5q-20 -22 -37 -45zM282 612q-42 0 -76.5 -6.5t-59.5 -23t-39.5 -44t-15.5 -70.5q-2 -44 -6.5 -106.5t-8.5 -163.5q15 20 24 31 t15.5 18t12 13.5t13.5 17.5q27 39 41 68l25 52q12 24 27 47.5t44 52.5l32 32q7 7 19.5 21.5t32.5 34.5q-54 26 -80 26z" />
<glyph unicode="&#xd9;" horiz-adv-x="429" d="M353 587q12 0 21.5 -5t9.5 -14q0 -78 9 -148t9 -133q0 -81 -4 -125l-6 -54q-2 -33 -13.5 -60.5t-38.5 -47t-73 -30.5t-116 -11q-23 0 -39.5 11.5t-27.5 31t-18 45.5t-11 55q-5 28 -10 60.5t-8.5 64.5t-6 60.5t-2.5 49.5q0 14 1.5 39t4.5 55t8 63t12 62q5 24 16 28t23 4 q7 0 9.5 -4t2.5 -25q0 -7 -1.5 -28.5t-4 -50.5t-5 -61.5t-5 -61.5t-4 -51t-1.5 -30q0 -24 3 -44t7.5 -38t10.5 -35.5t11 -36.5q5 -18 8 -39t9 -39t18 -29.5t36 -11.5q17 0 38.5 5.5t41 16.5t34 26t18.5 35t7 45t5.5 48.5t3.5 43t1 30.5q0 39 -4 72l-6 65l-8 63q-3 32 -3 70 q0 10 1 21.5t5 21t11.5 15.5t20.5 6zM99 756q12 0 18.5 -4t13.5 -10t15 -14t23 -16q14 -8 38 -17t46.5 -19.5t39 -22t16.5 -24.5q0 -14 -13.5 -20t-25.5 -6q-20 0 -52 11.5t-62 30.5t-52 43t-22 49q0 19 17 19z" />
<glyph unicode="&#xda;" horiz-adv-x="429" d="M353 587q12 0 21.5 -5t9.5 -14q0 -78 9 -148t9 -133q0 -81 -4 -125l-6 -54q-2 -33 -13.5 -60.5t-38.5 -47t-73 -30.5t-116 -11q-23 0 -39.5 11.5t-27.5 31t-18 45.5t-11 55q-5 28 -10 60.5t-8.5 64.5t-6 60.5t-2.5 49.5q0 14 1.5 39t4.5 55t8 63t12 62q5 24 16 28t23 4 q7 0 9.5 -4t2.5 -25q0 -7 -1.5 -28.5t-4 -50.5t-5 -61.5t-5 -61.5t-4 -51t-1.5 -30q0 -24 3 -44t7.5 -38t10.5 -35.5t11 -36.5q5 -18 8 -39t9 -39t18 -29.5t36 -11.5q17 0 38.5 5.5t41 16.5t34 26t18.5 35t7 45t5.5 48.5t3.5 43t1 30.5q0 39 -4 72l-6 65l-8 63q-3 32 -3 70 q0 10 1 21.5t5 21t11.5 15.5t20.5 6zM321 760q8 0 16 -7.5t8 -17.5q0 -25 -22 -49t-52 -43t-62 -30.5t-52 -11.5q-12 0 -25.5 6t-13.5 20q0 13 9.5 20t24 12t31.5 10t31 13q15 8 29 21l27 26q14 13 26.5 22t24.5 9z" />
<glyph unicode="&#xdb;" horiz-adv-x="429" d="M353 587q12 0 21.5 -5t9.5 -14q0 -78 9 -148t9 -133q0 -81 -4 -125l-6 -54q-2 -33 -13.5 -60.5t-38.5 -47t-73 -30.5t-116 -11q-23 0 -39.5 11.5t-27.5 31t-18 45.5t-11 55q-5 28 -10 60.5t-8.5 64.5t-6 60.5t-2.5 49.5q0 14 1.5 39t4.5 55t8 63t12 62q5 24 16 28t23 4 q7 0 9.5 -4t2.5 -25q0 -7 -1.5 -28.5t-4 -50.5t-5 -61.5t-5 -61.5t-4 -51t-1.5 -30q0 -24 3 -44t7.5 -38t10.5 -35.5t11 -36.5q5 -18 8 -39t9 -39t18 -29.5t36 -11.5q17 0 38.5 5.5t41 16.5t34 26t18.5 35t7 45t5.5 48.5t3.5 43t1 30.5q0 39 -4 72l-6 65l-8 63q-3 32 -3 70 q0 10 1 21.5t5 21t11.5 15.5t20.5 6zM171 765q9 0 35.5 -10.5t54.5 -28t50 -41t22 -49.5q0 -6 -5.5 -8t-12.5 -2q-22 0 -35 13.5t-23.5 29t-22.5 29t-31 13.5q-18 -10 -29.5 -23.5t-20 -25.5t-17 -20.5t-21.5 -8.5q-9 0 -14.5 8.5t-5.5 19.5q0 13 8.5 28t20.5 29t25 26z" />
<glyph unicode="&#xdc;" horiz-adv-x="429" d="M353 587q12 0 21.5 -5t9.5 -14q0 -78 9 -148t9 -133q0 -81 -4 -125l-6 -54q-2 -33 -13.5 -60.5t-38.5 -47t-73 -30.5t-116 -11q-23 0 -39.5 11.5t-27.5 31t-18 45.5t-11 55q-5 28 -10 60.5t-8.5 64.5t-6 60.5t-2.5 49.5q0 14 1.5 39t4.5 55t8 63t12 62q5 24 16 28t23 4 q7 0 9.5 -4t2.5 -25q0 -7 -1.5 -28.5t-4 -50.5t-5 -61.5t-5 -61.5t-4 -51t-1.5 -30q0 -24 3 -44t7.5 -38t10.5 -35.5t11 -36.5q5 -18 8 -39t9 -39t18 -29.5t36 -11.5q17 0 38.5 5.5t41 16.5t34 26t18.5 35t7 45t5.5 48.5t3.5 43t1 30.5q0 39 -4 72l-6 65l-8 63q-3 32 -3 70 q0 10 1 21.5t5 21t11.5 15.5t20.5 6zM70 673q0 13 5 25t12.5 21.5t15.5 15.5t14 6q20 0 34.5 -11.5t14.5 -31.5q0 -10 -1 -23.5t-4.5 -25.5t-10 -20.5t-18.5 -8.5q-27 0 -44.5 14.5t-17.5 38.5zM230 692q0 12 5.5 23t14.5 20t20.5 14.5t23.5 5.5q11 0 22.5 -1.5t20.5 -6 t15 -12t6 -19.5q0 -14 -9.5 -27.5t-23 -24t-29.5 -17t-28 -6.5q-16 0 -27 17.5t-11 33.5z" />
<glyph unicode="&#xdd;" horiz-adv-x="367" d="M26 669q16 0 23.5 -11t11 -27t4.5 -32.5t4 -27.5q2 -9 12 -32.5t25 -54.5l30 -66l30 -64l24 -50q10 -21 12 -26q10 11 25.5 42t30.5 66.5t25.5 66.5t10.5 42q0 12 -2.5 17t-5 8.5t-5 9t-2.5 19.5q0 12 10 18t15 6q35 0 43.5 -19.5t8.5 -56.5q0 -23 -11.5 -60t-30 -80 t-41.5 -89l-47 -90q-23 -44 -45 -80l-37 -60q-17 -26 -24 -51.5t-12 -45.5t-11.5 -32.5t-21.5 -12.5q-12 0 -20.5 7.5t-8.5 23.5q0 22 13.5 53.5t34.5 66.5l44 73l43 74l-21 42l-20 45l-23 51l-27 60q-29 63 -53 128t-24 127q0 22 13 22zM298 780q8 0 16 -7.5t8 -17.5 q0 -25 -22 -49t-52 -43t-62 -30.5t-52 -11.5q-12 0 -25.5 6t-13.5 20q0 13 9.5 20t24 12t31.5 10t31 13q15 8 29 21l28 26q13 13 25.5 22t24.5 9z" />
<glyph unicode="&#xde;" horiz-adv-x="446" d="M203 150q-9 0 -20.5 2t-23.5 4.5t-23 6t-18 6.5q-2 -54 -3 -102t-4.5 -84t-11.5 -56.5t-24 -20.5q-14 0 -21 15t-7 28q0 18 1 22.5t3.5 6.5t5 7t6 24t6.5 57t6 107q-15 5 -29.5 8t-25.5 7t-18 10t-7 17q0 26 18 26q17 0 29.5 -2.5t23.5 -4.5q0 34 -0.5 66t-1.5 65 t-3.5 69t-6.5 79q-14 2 -20.5 10t-6.5 14q0 10 3.5 16.5t17.5 16.5q-1 4 -1.5 19t-0.5 43q0 78 8 121t35 43q24 0 24 -84q0 -25 -2 -56.5t-6 -69.5q22 3 47 5t52 2q34 0 73.5 -6.5t73.5 -27.5t56.5 -60t22.5 -104q0 -41 -18.5 -84t-50 -79t-72.5 -59t-86 -23zM192 211 q43 0 79.5 13t63.5 37.5t42 59t15 78.5q0 45 -22 73t-55.5 44.5t-72.5 22.5t-72 6q-23 0 -40 -5.5t-33 -13.5l4 -48q3 -37 5.5 -83t4.5 -92.5t2 -77.5q45 -14 79 -14z" />
<glyph unicode="&#xdf;" horiz-adv-x="376" d="M180 671q-34 0 -54 -27t-30.5 -68t-13.5 -89.5t-3 -91.5q0 -85 4 -177.5t4 -204.5q0 -77 -16 -77q-10 0 -14 6q-2 3 -4.5 25t-5.5 59t-6 85.5t-5 104.5t-3.5 116.5t-1.5 121.5q0 47 9.5 97t27.5 91.5t44 68t60 26.5q28 0 55 -21t48 -52t34 -65t13 -60q0 -24 -17.5 -46.5 t-39.5 -43.5l-43 -42q-21 -21 -27 -42q22 -20 49.5 -39.5t52 -39t41 -40.5t16.5 -45q0 -30 -6 -67t-20.5 -71.5t-38 -63t-57.5 -42.5q-17 -7 -23 -11l-10 -6q-4 -3 -8.5 -3.5t-18.5 -0.5q-16 0 -19.5 2t-3.5 10q0 11 7.5 28.5t21.5 31.5q9 9 25.5 12.5t34.5 18.5 q12 9 25 24.5t24.5 34.5t19 38t7.5 34q0 19 -13.5 36.5t-31.5 33.5q-23 20 -44 31.5t-37 22.5t-25 25.5t-9 41.5q0 38 18.5 62.5t40.5 45t40.5 42t18.5 53.5q0 7 -9.5 25t-23.5 36t-30 32t-29 14z" />
<glyph unicode="&#xe0;" d="M134 361q15 0 33.5 -3t37.5 -8.5t36.5 -11.5t29.5 -12q9 -11 16 -41t12.5 -69t8.5 -81t3 -77q0 -26 -2 -49.5t-5.5 -41t-10 -27.5t-15.5 -10q-12 0 -20 13.5t-16 54.5q-76 -2 -121.5 18t-69.5 48.5t-31.5 59t-7.5 50.5q0 31 5.5 64.5t19.5 60.5t37.5 44.5t59.5 17.5z M142 299q-45 0 -61 -35t-16 -94q0 -24 13.5 -46t34.5 -39.5t45.5 -28t47.5 -10.5q21 0 41 7q0 66 -4 124t-11 90q-22 16 -42.5 24t-47.5 8zM73 517q12 0 18.5 -4t13.5 -10t15 -14t23 -16q14 -8 38 -17t46.5 -19.5t39 -22t16.5 -24.5q0 -14 -13.5 -20t-25.5 -6 q-20 0 -52 11.5t-62 30.5t-52 43t-22 49q0 19 17 19z" />
<glyph unicode="&#xe1;" d="M134 361q15 0 33.5 -3t37.5 -8.5t36.5 -11.5t29.5 -12q9 -11 16 -41t12.5 -69t8.5 -81t3 -77q0 -26 -2 -49.5t-5.5 -41t-10 -27.5t-15.5 -10q-12 0 -20 13.5t-16 54.5q-76 -2 -121.5 18t-69.5 48.5t-31.5 59t-7.5 50.5q0 31 5.5 64.5t19.5 60.5t37.5 44.5t59.5 17.5z M142 299q-45 0 -61 -35t-16 -94q0 -24 13.5 -46t34.5 -39.5t45.5 -28t47.5 -10.5q21 0 41 7q0 66 -4 124t-11 90q-22 16 -42.5 24t-47.5 8zM262 524q8 0 16 -7.5t8 -17.5q0 -25 -22 -49t-52 -43t-62 -30.5t-52 -11.5q-12 0 -25.5 6t-13.5 20q0 13 9.5 20t24 12t31.5 10 t31 13q15 8 29 21l28 26q13 13 25.5 22t24.5 9z" />
<glyph unicode="&#xe2;" d="M134 361q15 0 33.5 -3t37.5 -8.5t36.5 -11.5t29.5 -12q9 -11 16 -41t12.5 -69t8.5 -81t3 -77q0 -26 -2 -49.5t-5.5 -41t-10 -27.5t-15.5 -10q-12 0 -20 13.5t-16 54.5q-76 -2 -121.5 18t-69.5 48.5t-31.5 59t-7.5 50.5q0 31 5.5 64.5t19.5 60.5t37.5 44.5t59.5 17.5z M142 299q-45 0 -61 -35t-16 -94q0 -24 13.5 -46t34.5 -39.5t45.5 -28t47.5 -10.5q21 0 41 7q0 66 -4 124t-11 90q-22 16 -42.5 24t-47.5 8zM125 506q9 0 35.5 -10.5t54.5 -28t50 -41t22 -49.5q0 -6 -5.5 -8t-12.5 -2q-22 0 -35 13.5t-23.5 29t-22.5 29t-31 13.5 q-18 -10 -29.5 -23.5t-20 -25.5t-17 -20.5t-21.5 -8.5q-9 0 -14.5 8.5t-5.5 19.5q0 13 8.5 28t20.5 29t25 27z" />
<glyph unicode="&#xe3;" d="M134 361q15 0 33.5 -3t37.5 -8.5t36.5 -11.5t29.5 -12q9 -11 16 -41t12.5 -69t8.5 -81t3 -77q0 -26 -2 -49.5t-5.5 -41t-10 -27.5t-15.5 -10q-12 0 -20 13.5t-16 54.5q-76 -2 -121.5 18t-69.5 48.5t-31.5 59t-7.5 50.5q0 31 5.5 64.5t19.5 60.5t37.5 44.5t59.5 17.5z M142 299q-45 0 -61 -35t-16 -94q0 -24 13.5 -46t34.5 -39.5t45.5 -28t47.5 -10.5q21 0 41 7q0 66 -4 124t-11 90q-22 16 -42.5 24t-47.5 8zM276 510q8 0 10.5 -6t2.5 -13q0 -9 -6 -22t-14 -26.5t-16 -25.5t-12 -19t-9.5 -12t-14.5 -5q-14 0 -25 6l-20 13l-22 12t-26 6 q-14 0 -20.5 -8t-11 -17.5t-9.5 -17.5t-15 -8q-7 0 -13 4.5t-6 8.5q0 3 5.5 18t14 32t19 30.5t21.5 13.5q5 0 17 -5q13 -5 22 -12l17 -13q8 -6 17 -10.5t23 -4.5q8 0 15 13l16 28q9 15 18.5 27.5t21.5 12.5z" />
<glyph unicode="&#xe4;" d="M134 361q15 0 33.5 -3t37.5 -8.5t36.5 -11.5t29.5 -12q9 -11 16 -41t12.5 -69t8.5 -81t3 -77q0 -26 -2 -49.5t-5.5 -41t-10 -27.5t-15.5 -10q-12 0 -20 13.5t-16 54.5q-76 -2 -121.5 18t-69.5 48.5t-31.5 59t-7.5 50.5q0 31 5.5 64.5t19.5 60.5t37.5 44.5t59.5 17.5z M142 299q-45 0 -61 -35t-16 -94q0 -24 13.5 -46t34.5 -39.5t45.5 -28t47.5 -10.5q21 0 41 7q0 66 -4 124t-11 90q-22 16 -42.5 24t-47.5 8zM24 411q0 13 5 25t12.5 21.5t15.5 15.5t14 6q20 0 34.5 -11.5t14.5 -31.5q0 -10 -1 -23.5t-4.5 -25.5t-10 -20.5t-18.5 -8.5 q-27 0 -44.5 14.5t-17.5 38.5zM184 430q0 12 5.5 23t14.5 20t20.5 14.5t23.5 5.5q11 0 22.5 -1.5t20.5 -6t15 -12t6 -19.5q0 -14 -9.5 -27.5t-23 -24t-29.5 -17t-28 -6.5q-16 0 -27 17.5t-11 33.5z" />
<glyph unicode="&#xe5;" d="M134 361q15 0 33.5 -3t37.5 -8.5t36.5 -11.5t29.5 -12q9 -11 16 -41t12.5 -69t8.5 -81t3 -77q0 -26 -2 -49.5t-5.5 -41t-10 -27.5t-15.5 -10q-12 0 -20 13.5t-16 54.5q-76 -2 -121.5 18t-69.5 48.5t-31.5 59t-7.5 50.5q0 31 5.5 64.5t19.5 60.5t37.5 44.5t59.5 17.5z M142 299q-45 0 -61 -35t-16 -94q0 -24 13.5 -46t34.5 -39.5t45.5 -28t47.5 -10.5q21 0 41 7q0 66 -4 124t-11 90q-22 16 -42.5 24t-47.5 8zM162 556q28 0 44.5 -16.5t24.5 -40.5t10 -51.5t2 -49.5q0 -7 -2 -14t-8.5 -13t-19 -9.5t-32.5 -3.5q-3 0 -19 2.5t-33.5 10.5 t-31.5 22t-14 38q0 23 3 45.5t11.5 40t24 28.5t40.5 11zM153 493q-20 0 -26.5 -10t-6.5 -21q0 -9 1 -19t4.5 -17.5t11 -12.5t19.5 -5q14 0 25.5 9t11.5 23q0 25 -6.5 39t-33.5 14z" />
<glyph unicode="&#xe6;" horiz-adv-x="507" d="M281 357q5 0 10.5 -4t5.5 -21v-7q0 -4 -1 -9q47 16 70 16q63 0 89 -28t26 -82q0 -23 -2.5 -46t-10 -42t-21.5 -31t-37 -12q-35 0 -69 7.5t-73 22.5q10 -27 20.5 -46t27.5 -30.5t45 -17t74 -5.5q51 0 79 2t36 2q17 0 26 -11t9 -22q0 -21 -17.5 -26t-67.5 -5q-92 0 -145 11 t-82 31.5t-41 48.5t-22 62q-35 -41 -60 -52.5t-49 -11.5q-13 0 -28 4t-27.5 13.5t-21 24.5t-8.5 36q0 30 16 63t41 60.5t56 45.5t61 18q11 0 25.5 -2t29.5 -10q14 27 22 40t14 13zM369 263q-30 0 -46 -6.5t-23.5 -17t-9 -22.5t-1.5 -22q0 -18 11 -31t26 -21.5t31 -12.5 t25 -4q21 0 33.5 11.5t19 26.5t8.5 28.5t2 16.5q0 10 -2 20t-9.5 17.5t-22.5 12t-42 4.5zM197 264q-25 0 -49.5 -16.5t-44 -37.5t-31.5 -40t-12 -25q0 -11 8.5 -25.5t28.5 -14.5q43 0 77 61l10 18q6 11 11.5 23t9.5 23.5t4 20.5q0 13 -12 13z" />
<glyph unicode="&#xe7;" horiz-adv-x="325" d="M24 213q0 28 9.5 55t28 47.5t44.5 33t59 12.5q23 0 46.5 -6.5t43 -17.5t31.5 -26t12 -32q0 -21 -44 -21q-10 0 -20 1.5t-19 7.5q-5 3 -11 10.5t-13.5 15.5t-17 14t-21.5 6q-19 0 -33.5 -7t-24.5 -18.5t-15 -25t-5 -26.5q0 -30 2 -64t13.5 -62.5t35.5 -47.5t68 -19 q17 0 24.5 6t11.5 13t8 13t13 6q23 0 29 -12.5t6 -34.5q0 -15 -6.5 -23t-17 -12t-24 -5t-28.5 -1q-52 0 -87.5 16t-57 45.5t-31 70t-9.5 88.5zM162 3q37 0 58 -17.5t21 -52.5q0 -16 -9.5 -44.5t-24.5 -57t-33 -49.5t-35 -21q-7 0 -9.5 7t-2.5 14q0 19 12 34.5t27 31.5t27 34 t12 42q0 13 -10.5 20.5t-22.5 13.5t-22.5 13.5t-10.5 21.5q0 5 4 7.5t19 2.5z" />
<glyph unicode="&#xe8;" horiz-adv-x="344" d="M203 455q30 0 48 -21t27.5 -51t12.5 -63.5t3 -58.5q0 -17 -3.5 -26t-9.5 -13t-13.5 -5t-16.5 -1q-14 0 -44 -0.5t-60.5 -3t-53.5 -8.5t-23 -17q0 -12 6.5 -31.5t16 -38.5t19.5 -34.5t18 -19.5q7 -1 13.5 -1.5t12.5 -0.5q28 0 49.5 6t40.5 13l35 14q17 7 36 7 q7 0 8.5 -8.5t1.5 -16.5q0 -20 -15 -34t-39 -22.5t-55 -12.5t-63 -4q-26 0 -47 3q-15 12 -30 39t-28 59.5t-21 64.5t-8 54q0 25 18.5 64.5t46 76.5t59 64t58.5 27zM202 391q-12 0 -27.5 -11.5t-31 -30t-29 -43t-21.5 -50.5q25 5 72 5h59q16 0 18.5 10t2.5 27q0 11 -1.5 27 t-6.5 30.5t-13.5 25t-21.5 10.5zM106 612q12 0 18.5 -4t13.5 -10t15 -14t23 -16q14 -8 38 -17t46.5 -19.5t39 -22t16.5 -24.5q0 -14 -13.5 -20t-25.5 -6q-20 0 -52 11.5t-62 30.5t-52 43t-22 49q0 19 17 19z" />
<glyph unicode="&#xe9;" horiz-adv-x="344" d="M203 455q30 0 48 -21t27.5 -51t12.5 -63.5t3 -58.5q0 -17 -3.5 -26t-9.5 -13t-13.5 -5t-16.5 -1q-14 0 -44 -0.5t-60.5 -3t-53.5 -8.5t-23 -17q0 -12 6.5 -31.5t16 -38.5t19.5 -34.5t18 -19.5q7 -1 13.5 -1.5t12.5 -0.5q28 0 49.5 6t40.5 13l35 14q17 7 36 7 q7 0 8.5 -8.5t1.5 -16.5q0 -20 -15 -34t-39 -22.5t-55 -12.5t-63 -4q-26 0 -47 3q-15 12 -30 39t-28 59.5t-21 64.5t-8 54q0 25 18.5 64.5t46 76.5t59 64t58.5 27zM202 391q-12 0 -27.5 -11.5t-31 -30t-29 -43t-21.5 -50.5q25 5 72 5h59q16 0 18.5 10t2.5 27q0 11 -1.5 27 t-6.5 30.5t-13.5 25t-21.5 10.5zM261 614q8 0 16 -7.5t8 -17.5q0 -25 -22 -49t-52 -43t-62 -30.5t-52 -11.5q-12 0 -25.5 6t-13.5 20q0 13 9.5 20t24 12t31.5 10t31 13q15 8 29 21l27 26q14 13 26.5 22t24.5 9z" />
<glyph unicode="&#xea;" horiz-adv-x="344" d="M203 455q30 0 48 -21t27.5 -51t12.5 -63.5t3 -58.5q0 -17 -3.5 -26t-9.5 -13t-13.5 -5t-16.5 -1q-14 0 -44 -0.5t-60.5 -3t-53.5 -8.5t-23 -17q0 -12 6.5 -31.5t16 -38.5t19.5 -34.5t18 -19.5q7 -1 13.5 -1.5t12.5 -0.5q28 0 49.5 6t40.5 13l35 14q17 7 36 7 q7 0 8.5 -8.5t1.5 -16.5q0 -20 -15 -34t-39 -22.5t-55 -12.5t-63 -4q-26 0 -47 3q-15 12 -30 39t-28 59.5t-21 64.5t-8 54q0 25 18.5 64.5t46 76.5t59 64t58.5 27zM202 391q-12 0 -27.5 -11.5t-31 -30t-29 -43t-21.5 -50.5q25 5 72 5h59q16 0 18.5 10t2.5 27q0 11 -1.5 27 t-6.5 30.5t-13.5 25t-21.5 10.5zM157 598q9 0 35.5 -10.5t54.5 -28t50 -41t22 -49.5q0 -6 -5.5 -8t-12.5 -2q-22 0 -35 13.5t-23.5 29t-22.5 29t-31 13.5q-18 -10 -29.5 -23.5t-20 -25.5t-17 -20.5t-21.5 -8.5q-9 0 -14.5 8.5t-5.5 19.5q0 13 8.5 28t20.5 29t25 27z" />
<glyph unicode="&#xeb;" horiz-adv-x="344" d="M203 455q30 0 48 -21t27.5 -51t12.5 -63.5t3 -58.5q0 -17 -3.5 -26t-9.5 -13t-13.5 -5t-16.5 -1q-14 0 -44 -0.5t-60.5 -3t-53.5 -8.5t-23 -17q0 -12 6.5 -31.5t16 -38.5t19.5 -34.5t18 -19.5q7 -1 13.5 -1.5t12.5 -0.5q28 0 49.5 6t40.5 13l35 14q17 7 36 7 q7 0 8.5 -8.5t1.5 -16.5q0 -20 -15 -34t-39 -22.5t-55 -12.5t-63 -4q-26 0 -47 3q-15 12 -30 39t-28 59.5t-21 64.5t-8 54q0 25 18.5 64.5t46 76.5t59 64t58.5 27zM202 391q-12 0 -27.5 -11.5t-31 -30t-29 -43t-21.5 -50.5q25 5 72 5h59q16 0 18.5 10t2.5 27q0 11 -1.5 27 t-6.5 30.5t-13.5 25t-21.5 10.5zM56 508q0 13 5 25t12.5 21.5t15.5 15.5t14 6q20 0 34.5 -11.5t14.5 -31.5q0 -10 -1 -23.5t-4.5 -25.5t-10 -20.5t-18.5 -8.5q-27 0 -44.5 14.5t-17.5 38.5zM216 527q0 12 5.5 23t14.5 20t20.5 14.5t23.5 5.5q11 0 22.5 -1.5t20.5 -6t15 -12 t6 -19.5q0 -14 -9.5 -27.5t-23 -24t-29.5 -17t-28 -6.5q-16 0 -27 17.5t-11 33.5z" />
<glyph unicode="&#xec;" horiz-adv-x="172" d="M83 502q9 0 16.5 -6t13 -15t8.5 -18.5t3 -16.5q-2 -75 -8.5 -159.5t-14.5 -162.5q-2 -20 -2.5 -39.5t-4 -35t-12.5 -25t-28 -9.5q-7 0 -13 10.5t-6 46.5q0 24 1 65.5t3 89.5t5.5 97t9 88.5t12.5 64.5t17 25zM2 653q12 0 18.5 -4t13.5 -10t15 -14t23 -16q14 -8 38 -17 t46.5 -19.5t39 -22t16.5 -24.5q0 -14 -13.5 -20t-25.5 -6q-20 0 -52 11.5t-62 30.5t-52 43t-22 49q0 19 17 19z" />
<glyph unicode="&#xed;" horiz-adv-x="172" d="M83 502q9 0 16.5 -6t13 -15t8.5 -18.5t3 -16.5q-2 -75 -8.5 -159.5t-14.5 -162.5q-2 -20 -2.5 -39.5t-4 -35t-12.5 -25t-28 -9.5q-7 0 -13 10.5t-6 46.5q0 24 1 65.5t3 89.5t5.5 97t9 88.5t12.5 64.5t17 25zM180 665q8 0 16 -7.5t8 -17.5q0 -25 -22 -49t-52 -43 t-62 -30.5t-52 -11.5q-12 0 -25.5 6t-13.5 20q0 13 9.5 20t24 12t31.5 10t31 13q15 8 29 21l28 26q13 13 25.5 22t24.5 9z" />
<glyph unicode="&#xee;" horiz-adv-x="172" d="M83 502q9 0 16.5 -6t13 -15t8.5 -18.5t3 -16.5q-2 -75 -8.5 -159.5t-14.5 -162.5q-2 -20 -2.5 -39.5t-4 -35t-12.5 -25t-28 -9.5q-7 0 -13 10.5t-6 46.5q0 24 1 65.5t3 89.5t5.5 97t9 88.5t12.5 64.5t17 25zM50 637q9 0 35.5 -10.5t54.5 -28t50 -41t22 -49.5 q0 -6 -5.5 -8t-12.5 -2q-22 0 -35 13.5t-23.5 29t-22.5 29t-31 13.5q-18 -10 -29.5 -23.5t-20 -25.5t-17 -20.5t-21.5 -8.5q-9 0 -14.5 8.5t-5.5 19.5q0 13 8.5 28t20.5 29t25 26z" />
<glyph unicode="&#xef;" horiz-adv-x="172" d="M83 502q9 0 16.5 -6t13 -15t8.5 -18.5t3 -16.5q-2 -75 -8.5 -159.5t-14.5 -162.5q-2 -20 -2.5 -39.5t-4 -35t-12.5 -25t-28 -9.5q-7 0 -13 10.5t-6 46.5q0 24 1 65.5t3 89.5t5.5 97t9 88.5t12.5 64.5t17 25zM-43 558q0 13 5 25t12.5 21.5t15.5 15.5t14 6q20 0 34.5 -11.5 t14.5 -31.5q0 -10 -1 -23.5t-4.5 -25.5t-10 -20.5t-18.5 -8.5q-27 0 -44.5 14.5t-17.5 38.5zM117 577q0 12 5.5 23t14.5 20t20.5 14.5t23.5 5.5q11 0 22.5 -1.5t20.5 -6t15 -12t6 -19.5q0 -14 -9.5 -27.5t-23 -24t-29.5 -17t-28 -6.5q-16 0 -27 17.5t-11 33.5z" />
<glyph unicode="&#xf0;" horiz-adv-x="320" d="M182 243q-10 0 -23.5 -7.5t-26 -19.5t-21 -26t-8.5 -27q0 -20 11.5 -39.5t28.5 -34.5t37.5 -24.5t38.5 -9.5q30 0 48 19.5t18 55.5q0 19 -1 30.5t-4.5 19t-9.5 12t-16 9.5q-23 12 -38 27t-34 15zM53 566q22 0 46 -5.5t47 -16t44 -26t38 -34.5q24 -29 60 -146 q12 -39 19.5 -66t12 -46t6.5 -32t2 -25q0 -55 -8.5 -87.5t-26 -49.5t-45 -22t-66.5 -5q-7 0 -19 3.5t-27 10t-30.5 15.5t-28.5 20q-16 13 -16 82q0 167 138 167q27 0 46 -13q-22 66 -43.5 112.5t-60.5 75.5q-13 10 -33 17l-40 15q-19 8 -33 17t-14 22q0 12 10 14.5t22 2.5z " />
<glyph unicode="&#xf1;" horiz-adv-x="410" d="M228 503q9 0 22 -6.5t27.5 -17t29.5 -23.5t27 -25q30 -30 38 -94.5t8 -158.5q0 -38 0.5 -78.5t-2.5 -74t-11.5 -55.5t-26.5 -22q-6 0 -15 8t-9 35q0 78 4.5 135.5t4.5 83.5q0 33 -1.5 70t-9 68.5t-23.5 52.5t-45 21q-19 0 -39 -21t-39.5 -53.5t-37 -73.5t-31.5 -81 t-23.5 -75t-12.5 -56q-2 -11 -6.5 -14.5t-11.5 -3.5q-6 0 -10 4.5t-6.5 20.5t-4 46.5t-1.5 81.5q0 124 1 192.5t3 84.5q4 28 18 28q8 0 12.5 -8t6.5 -19l3 -35q2 -22 4 -48l4 -54q2 -29 4 -53l28 74q11 29 18 42l19 34q11 18 23.5 33t27.5 25t33 10zM354 655q8 0 10.5 -6 t2.5 -13q0 -9 -6 -22t-14 -26.5t-16 -25.5t-12 -19t-9.5 -12t-14.5 -5q-14 0 -25 6l-20 12q-11 7 -22 13t-26 6q-14 0 -20.5 -8t-11 -17.5t-9.5 -17.5t-15 -8q-7 0 -13 4.5t-6 8.5q0 3 5.5 18t14 32t19 30.5t21.5 13.5q5 0 17 -5q13 -5 22 -12l17 -13q8 -6 17 -10.5t23 -4.5 q8 0 15 12l16 28q9 16 18.5 28.5t21.5 12.5z" />
<glyph unicode="&#xf2;" horiz-adv-x="371" d="M184 -7q-48 0 -78.5 8.5t-48 28.5t-24 52t-6.5 80q0 58 14.5 103.5t46.5 68.5q19 13 32 23.5t25 18t26 11.5t35 4q14 0 28.5 -5t28 -12.5t25.5 -16t21 -15.5q21 -16 29 -32.5t8 -47.5q0 -32 -10 -77.5t-30 -88.5t-50.5 -73t-71.5 -30zM208 331q-18 0 -31 -9t-37 -27 q-28 -21 -45 -51.5t-17 -75.5q0 -27 2 -48.5t11 -37t28 -23.5t53 -8q30 0 52 25.5t36.5 60t21.5 69.5t7 55q0 10 -9.5 22.5t-22.5 23t-26.5 17.5t-22.5 7zM83 572q12 0 18.5 -4t13.5 -10t15 -14t23 -16q14 -8 38 -17t46.5 -19.5t39 -22t16.5 -24.5q0 -14 -13.5 -20t-25.5 -6 q-20 0 -52 11.5t-62 30.5t-52 43t-22 49q0 19 17 19z" />
<glyph unicode="&#xf3;" horiz-adv-x="371" d="M184 -7q-48 0 -78.5 8.5t-48 28.5t-24 52t-6.5 80q0 58 14.5 103.5t46.5 68.5q19 13 32 23.5t25 18t26 11.5t35 4q14 0 28.5 -5t28 -12.5t25.5 -16t21 -15.5q21 -16 29 -32.5t8 -47.5q0 -32 -10 -77.5t-30 -88.5t-50.5 -73t-71.5 -30zM208 331q-18 0 -31 -9t-37 -27 q-28 -21 -45 -51.5t-17 -75.5q0 -27 2 -48.5t11 -37t28 -23.5t53 -8q30 0 52 25.5t36.5 60t21.5 69.5t7 55q0 10 -9.5 22.5t-22.5 23t-26.5 17.5t-22.5 7zM295 562q8 0 16 -7.5t8 -17.5q0 -25 -22 -49t-52 -43t-62 -30.5t-52 -11.5q-12 0 -25.5 6t-13.5 20q0 13 9.5 20 t24 12t31.5 10t31 13q15 8 29 21l27 26q14 13 26.5 22t24.5 9z" />
<glyph unicode="&#xf4;" horiz-adv-x="371" d="M184 -7q-48 0 -78.5 8.5t-48 28.5t-24 52t-6.5 80q0 58 14.5 103.5t46.5 68.5q19 13 32 23.5t25 18t26 11.5t35 4q14 0 28.5 -5t28 -12.5t25.5 -16t21 -15.5q21 -16 29 -32.5t8 -47.5q0 -32 -10 -77.5t-30 -88.5t-50.5 -73t-71.5 -30zM208 331q-18 0 -31 -9t-37 -27 q-28 -21 -45 -51.5t-17 -75.5q0 -27 2 -48.5t11 -37t28 -23.5t53 -8q30 0 52 25.5t36.5 60t21.5 69.5t7 55q0 10 -9.5 22.5t-22.5 23t-26.5 17.5t-22.5 7zM170 542q9 0 35.5 -10.5t54.5 -28t50 -41t22 -49.5q0 -6 -5.5 -8t-12.5 -2q-22 0 -35 13.5t-23.5 29t-22.5 29 t-31 13.5q-18 -10 -29.5 -23.5t-20 -25.5t-17 -20.5t-21.5 -8.5q-9 0 -14.5 8.5t-5.5 19.5q0 13 8.5 28t20.5 29t25 27z" />
<glyph unicode="&#xf5;" horiz-adv-x="371" d="M184 -7q-48 0 -78.5 8.5t-48 28.5t-24 52t-6.5 80q0 58 14.5 103.5t46.5 68.5q19 13 32 23.5t25 18t26 11.5t35 4q14 0 28.5 -5t28 -12.5t25.5 -16t21 -15.5q21 -16 29 -32.5t8 -47.5q0 -32 -10 -77.5t-30 -88.5t-50.5 -73t-71.5 -30zM208 331q-18 0 -31 -9t-37 -27 q-28 -21 -45 -51.5t-17 -75.5q0 -27 2 -48.5t11 -37t28 -23.5t53 -8q30 0 52 25.5t36.5 60t21.5 69.5t7 55q0 10 -9.5 22.5t-22.5 23t-26.5 17.5t-22.5 7zM311 552q8 0 10.5 -6t2.5 -13q0 -9 -6 -22t-14 -26.5t-16 -25.5t-12 -19t-9.5 -12t-14.5 -5q-14 0 -24 6l-22 13 q-10 6 -21 12t-26 6q-14 0 -20.5 -8t-11 -17.5t-9.5 -17.5t-15 -8q-7 0 -13 4.5t-6 8.5q0 3 5.5 18t14 32t19 30.5t21.5 13.5q5 0 17 -5q13 -5 22 -12l17 -13q8 -6 17 -10.5t23 -4.5q8 0 16 13l16 28q8 15 17.5 27.5t21.5 12.5z" />
<glyph unicode="&#xf6;" horiz-adv-x="371" d="M184 -7q-48 0 -78.5 8.5t-48 28.5t-24 52t-6.5 80q0 58 14.5 103.5t46.5 68.5q19 13 32 23.5t25 18t26 11.5t35 4q14 0 28.5 -5t28 -12.5t25.5 -16t21 -15.5q21 -16 29 -32.5t8 -47.5q0 -32 -10 -77.5t-30 -88.5t-50.5 -73t-71.5 -30zM208 331q-18 0 -31 -9t-37 -27 q-28 -21 -45 -51.5t-17 -75.5q0 -27 2 -48.5t11 -37t28 -23.5t53 -8q30 0 52 25.5t36.5 60t21.5 69.5t7 55q0 10 -9.5 22.5t-22.5 23t-26.5 17.5t-22.5 7zM61 459q0 13 5 25t12.5 21.5t15.5 15.5t14 6q20 0 34.5 -11.5t14.5 -31.5q0 -10 -1 -23.5t-4.5 -25.5t-10 -20.5 t-18.5 -8.5q-27 0 -44.5 14.5t-17.5 38.5zM221 478q0 12 5.5 23t14.5 20t20.5 14.5t23.5 5.5q11 0 22.5 -1.5t20.5 -6t15 -12t6 -19.5q0 -14 -9.5 -27.5t-23 -24t-29.5 -17t-28 -6.5q-16 0 -27 17.5t-11 33.5z" />
<glyph unicode="&#xf7;" horiz-adv-x="270" d="M224 356q17 0 23 -10t6 -30q0 -12 -18.5 -21.5t-71.5 -20.5q-29 -6 -61.5 -11t-51.5 -5t-25.5 8t-6.5 23q0 16 26.5 29t61 21t69 12.5t49.5 4.5zM148 210q20 0 36.5 -15.5t16.5 -35.5q0 -19 -3 -36.5t-10.5 -30.5t-21.5 -21t-35 -8q-10 0 -16 11.5t-9.5 27t-4.5 30.5 t-1 23q0 35 12.5 45t35.5 10zM112 478q11 0 15.5 -9t4.5 -20q0 -43 -39 -43q-12 0 -20.5 4.5t-8.5 12.5q0 7 5 17t12.5 18t16 14t14.5 6z" />
<glyph unicode="&#xf8;" horiz-adv-x="461" d="M240 489q20 0 43.5 -5t55.5 -19q43 69 86 69q14 -2 17 -13t3 -19q0 -3 -0.5 -6.5t-4 -9.5t-10 -15.5t-18.5 -25.5q21 -2 29.5 -11.5t8.5 -24.5q0 -14 -7 -36l-15 -46q-8 -25 -15 -52t-7 -52q0 -28 -9 -64.5t-30 -69.5t-57 -56t-90 -23q-50 0 -113 19q-17 -21 -29.5 -39.5 t-23.5 -31.5t-22 -20.5t-24 -7.5q-8 0 -8 13q0 14 5.5 25.5t13.5 22.5q5 7 8.5 11t9 13t15 26.5t26.5 52.5q-23 36 -35 66.5t-12 61.5q0 50 18 98t47.5 85.5t67 60.5t76.5 23zM137 92q7 -20 18.5 -28t22.5 -8q47 0 77.5 10.5t50 31.5t30.5 51.5t20 69.5l12 56q6 28 6 60 q0 11 -1.5 28t-5.5 40q-25 -25 -55 -59.5t-61 -75.5t-60.5 -86t-53.5 -90zM242 424q-47 0 -80 -20.5t-54 -51t-30.5 -66t-9.5 -64.5q0 -23 6 -42t21 -45q17 31 44 74l55 87l54.5 77.5t39.5 47.5q-26 3 -46 3z" />
<glyph unicode="&#xf9;" horiz-adv-x="349" d="M166 -14q-47 0 -74 25t-41.5 61.5t-18.5 78.5t-4 77q0 51 5 90.5t5 64.5q0 11 3.5 20.5t14.5 9.5t16 -13.5t5 -45.5q0 -12 -0.5 -30t-1.5 -39t-1.5 -43t-0.5 -43q0 -44 5 -71.5t15 -43t24.5 -21.5t33.5 -6q24 0 40 14.5t26.5 35.5t16 43.5t8.5 38.5q1 43 1.5 81.5t2 67.5 t6.5 45.5t15 16.5q9 0 15 -7t9.5 -18t6 -26t4.5 -31q4 -36 10 -71l12 -69q6 -34 10 -68t4 -68q0 -23 -22 -23q-9 0 -17 8t-13.5 20.5t-9.5 28.5t-6 33q-4 -16 -12 -37t-21 -40t-31 -32.5t-40 -13.5zM28 553q12 0 18.5 -4t13.5 -10t15 -14t23 -16q14 -8 38 -17t46.5 -19.5 t39 -22t16.5 -24.5q0 -14 -13.5 -20t-25.5 -6q-20 0 -52 11.5t-62 30.5t-52 43t-22 49q0 19 17 19z" />
<glyph unicode="&#xfa;" horiz-adv-x="349" d="M166 -14q-47 0 -74 25t-41.5 61.5t-18.5 78.5t-4 77q0 51 5 90.5t5 64.5q0 11 3.5 20.5t14.5 9.5t16 -13.5t5 -45.5q0 -12 -0.5 -30t-1.5 -39t-1.5 -43t-0.5 -43q0 -44 5 -71.5t15 -43t24.5 -21.5t33.5 -6q24 0 40 14.5t26.5 35.5t16 43.5t8.5 38.5q1 43 1.5 81.5t2 67.5 t6.5 45.5t15 16.5q9 0 15 -7t9.5 -18t6 -26t4.5 -31q4 -36 10 -71l12 -69q6 -34 10 -68t4 -68q0 -23 -22 -23q-9 0 -17 8t-13.5 20.5t-9.5 28.5t-6 33q-4 -16 -12 -37t-21 -40t-31 -32.5t-40 -13.5zM273 592q8 0 16 -7.5t8 -17.5q0 -25 -22 -49t-52 -43t-62 -30.5t-52 -11.5 q-12 0 -25.5 6t-13.5 20q0 13 9.5 20t24 12t31.5 10t31 13q15 8 29 21l27 26q14 13 26.5 22t24.5 9z" />
<glyph unicode="&#xfb;" horiz-adv-x="349" d="M166 -14q-47 0 -74 25t-41.5 61.5t-18.5 78.5t-4 77q0 51 5 90.5t5 64.5q0 11 3.5 20.5t14.5 9.5t16 -13.5t5 -45.5q0 -12 -0.5 -30t-1.5 -39t-1.5 -43t-0.5 -43q0 -44 5 -71.5t15 -43t24.5 -21.5t33.5 -6q24 0 40 14.5t26.5 35.5t16 43.5t8.5 38.5q1 43 1.5 81.5t2 67.5 t6.5 45.5t15 16.5q9 0 15 -7t9.5 -18t6 -26t4.5 -31q4 -36 10 -71l12 -69q6 -34 10 -68t4 -68q0 -23 -22 -23q-9 0 -17 8t-13.5 20.5t-9.5 28.5t-6 33q-4 -16 -12 -37t-21 -40t-31 -32.5t-40 -13.5zM131 575q9 0 35.5 -10.5t54.5 -28t50 -41t22 -49.5q0 -6 -5.5 -8t-12.5 -2 q-22 0 -35 13.5t-23.5 29t-22.5 29t-31 13.5q-18 -10 -29.5 -23.5t-20 -25.5t-17 -20.5t-21.5 -8.5q-9 0 -14.5 8.5t-5.5 19.5q0 13 8.5 28t20.5 29t25 26z" />
<glyph unicode="&#xfc;" horiz-adv-x="349" d="M166 -14q-47 0 -74 25t-41.5 61.5t-18.5 78.5t-4 77q0 51 5 90.5t5 64.5q0 11 3.5 20.5t14.5 9.5t16 -13.5t5 -45.5q0 -12 -0.5 -30t-1.5 -39t-1.5 -43t-0.5 -43q0 -44 5 -71.5t15 -43t24.5 -21.5t33.5 -6q24 0 40 14.5t26.5 35.5t16 43.5t8.5 38.5q1 43 1.5 81.5t2 67.5 t6.5 45.5t15 16.5q9 0 15 -7t9.5 -18t6 -26t4.5 -31q4 -36 10 -71l12 -69q6 -34 10 -68t4 -68q0 -23 -22 -23q-9 0 -17 8t-13.5 20.5t-9.5 28.5t-6 33q-4 -16 -12 -37t-21 -40t-31 -32.5t-40 -13.5zM30 486q0 13 5 25t12.5 21.5t15.5 15.5t14 6q20 0 34.5 -11.5t14.5 -31.5 q0 -10 -1 -23.5t-4.5 -25.5t-10 -20.5t-18.5 -8.5q-27 0 -44.5 14.5t-17.5 38.5zM190 505q0 12 5.5 23t14.5 20t20.5 14.5t23.5 5.5q11 0 22.5 -1.5t20.5 -6t15 -12t6 -19.5q0 -14 -9.5 -27.5t-23 -24t-29.5 -17t-28 -6.5q-16 0 -27 17.5t-11 33.5z" />
<glyph unicode="&#xfd;" horiz-adv-x="390" d="M347 299q16 0 19 -14t3 -33q0 -29 -2.5 -53t-5.5 -48.5t-5.5 -52t-2.5 -63.5q0 -32 -3.5 -73.5t-13 -85.5t-26.5 -87t-42.5 -76.5t-62 -54t-85.5 -20.5q-35 0 -56.5 7t-33 22t-15 38t-3.5 55q0 22 4.5 35.5t15.5 13.5q15 0 21.5 -8t9 -20.5t3.5 -26.5t5 -26.5t13.5 -20.5 t28.5 -8q52 0 87.5 39t58 99.5t34.5 134.5t17 145q-39 -63 -78.5 -93t-93.5 -30q-23 0 -39.5 13.5t-41.5 41.5q-26 29 -33.5 72.5t-7.5 112.5q0 36 1.5 58t5 33.5t10 15t17.5 3.5q28 0 28 -24q0 -9 -1.5 -23.5t-4 -31.5t-4 -35t-1.5 -35q0 -16 5 -41.5t15 -50t25 -42 t36 -17.5q28 0 51.5 19t43 47t35.5 62l28 61q12 28 22 47t19 19zM317 490q8 0 16 -7.5t8 -17.5q0 -25 -22 -49t-52 -43t-62 -30.5t-52 -11.5q-12 0 -25.5 6t-13.5 20q0 13 9.5 20t24 12t31.5 10t31 13q15 8 29 21l27 26q14 13 26.5 22t24.5 9z" />
<glyph unicode="&#xfe;" horiz-adv-x="368" d="M112 764q39 0 39 -37q0 -18 -3.5 -57.5t-9 -84t-11.5 -85.5t-11 -63q63 9 104 9q67 0 101.5 -27.5t34.5 -78.5q0 -39 -19 -77.5t-46 -65.5q-28 -28 -49 -44.5t-38 -25t-32 -11.5t-30 -5q-6 0 -17 1.5t-27 5.5v-63q0 -37 -1 -77t-3 -79t-6 -70.5t-10 -51t-15 -19.5 t-14.5 12.5t-5.5 56.5q0 45 2 119l5 182q-15 9 -17.5 19.5t-2.5 21.5q0 12 2.5 19t17.5 12v135q-5 7 -6 11t-1 9q0 28 7 49.5t13 47.5q4 18 8 55.5t7 80.5t5.5 84t4.5 66q2 13 7 19.5t17 6.5zM187 402q-29 0 -46 -6.5t-26.5 -17.5t-12.5 -27t-3 -35v-121q8 -19 15 -22t21 -3 q20 0 50 18.5t58 45t48 55.5t20 49q0 10 -6.5 20t-16.5 21q-5 5 -8 9.5t-11.5 7.5t-27 4.5t-54.5 1.5z" />
<glyph unicode="&#xff;" horiz-adv-x="390" d="M347 299q16 0 19 -14t3 -33q0 -29 -2.5 -53t-5.5 -48.5t-5.5 -52t-2.5 -63.5q0 -32 -3.5 -73.5t-13 -85.5t-26.5 -87t-42.5 -76.5t-62 -54t-85.5 -20.5q-35 0 -56.5 7t-33 22t-15 38t-3.5 55q0 22 4.5 35.5t15.5 13.5q15 0 21.5 -8t9 -20.5t3.5 -26.5t5 -26.5t13.5 -20.5 t28.5 -8q52 0 87.5 39t58 99.5t34.5 134.5t17 145q-39 -63 -78.5 -93t-93.5 -30q-23 0 -39.5 13.5t-41.5 41.5q-26 29 -33.5 72.5t-7.5 112.5q0 36 1.5 58t5 33.5t10 15t17.5 3.5q28 0 28 -24q0 -9 -1.5 -23.5t-4 -31.5t-4 -35t-1.5 -35q0 -16 5 -41.5t15 -50t25 -42 t36 -17.5q28 0 51.5 19t43 47t35.5 62l28 61q12 28 22 47t19 19zM71 425q0 13 5 25t12.5 21.5t15.5 15.5t14 6q20 0 34.5 -11.5t14.5 -31.5q0 -10 -1 -23.5t-4.5 -25.5t-10 -20.5t-18.5 -8.5q-27 0 -44.5 14.5t-17.5 38.5zM231 444q0 12 5.5 23t14.5 20t20.5 14.5t23.5 5.5 q11 0 22.5 -1.5t20.5 -6t15 -12t6 -19.5q0 -14 -9.5 -27.5t-23 -24t-29.5 -17t-28 -6.5q-16 0 -27 17.5t-11 33.5z" />
<glyph unicode="&#x152;" horiz-adv-x="657" d="M545 573q17 0 25 -10.5t8 -28.5q-1 -14 -17.5 -23.5t-39.5 -17t-49.5 -14t-47.5 -14.5q3 -23 3 -41q0 -21 -3.5 -45.5t-5.5 -62.5q38 3 66 10.5t49 16.5l34 14q14 6 25 6q10 0 22.5 -14.5t12.5 -34.5q0 -12 -13.5 -21t-34.5 -16t-47 -12t-50.5 -8.5t-44.5 -5.5l-30 -3 q-2 -20 -5 -44.5t-3 -66.5v-54q41 2 69 5.5t47.5 6.5t33.5 5.5t28 2.5q12 0 22 -15.5t10 -28.5q0 -10 -7 -15.5t-25 -8t-47.5 -3t-74.5 -0.5q-41 0 -62.5 3.5t-32 8t-13.5 8t-6 3.5q-20 0 -42 -11.5t-46 -19.5q-25 -9 -48.5 -14t-39.5 -5q-23 0 -39 9t-28 23t-22 33l-19 36 q-12 21 -21 33t-15 22t-9 22.5t-3 34.5q0 27 7 61.5t20 71t31.5 71.5t42.5 62.5t52.5 44.5t61.5 17q29 0 48 -4t33 -8l24 -9q11 -4 25 -4q18 0 39 8l45 18q24 10 50.5 18t56.5 8zM215 497q-26 0 -53.5 -30t-50.5 -70t-38 -79t-15 -57q0 -26 8 -60.5t23 -65.5t36 -52.5 t47 -21.5q12 0 32.5 3.5t43 13.5t44 26.5t35.5 42.5q9 18 14 32.5t8 39t3.5 64.5t0.5 108q-5 18 -20 37t-34.5 34.5t-41.5 25t-42 9.5z" />
<glyph unicode="&#x153;" horiz-adv-x="606" d="M467 428q30 0 48 -21t27.5 -51t12.5 -63.5t3 -58.5q0 -17 -3.5 -26t-9.5 -13t-13.5 -5t-16.5 -1q-14 0 -44 -0.5t-60.5 -3t-53.5 -8.5t-23 -17q0 -12 6.5 -31.5t16 -38.5t19.5 -34.5t18 -19.5q7 -1 13.5 -1.5t12.5 -0.5q28 0 49.5 6t39.5 14l36 14q17 6 36 6 q7 0 8.5 -8.5t1.5 -16.5q0 -20 -15 -34t-39 -22.5t-55 -12.5t-63 -4q-26 0 -47 3q-17 14 -34.5 46.5t-31.5 70.5q-20 -43 -50 -73t-72 -30q-48 0 -78.5 8.5t-48 28.5t-24 52t-6.5 80q0 58 14.5 103.5t46.5 68.5q19 13 32 23.5t25 18t26 11.5t35 4q22 0 43.5 -10t39 -23 t30 -25.5t15.5 -16.5q15 22 31.5 42t34 35.5t35 25t32.5 9.5zM208 331q-13 0 -35 -11t-43 -32t-36.5 -51.5t-15.5 -68.5q0 -27 2 -48.5t11 -37t28 -23.5t53 -8q30 0 52 25.5t36.5 60t21.5 69.5t7 55q0 10 -9.5 22.5t-22.5 23t-26.5 17.5t-22.5 7zM466 364q-12 0 -27.5 -11.5 t-31 -30t-29 -43t-21.5 -50.5q25 5 72 5h59q16 0 18.5 10t2.5 27q0 11 -1.5 27t-6.5 30.5t-13.5 25t-21.5 10.5z" />
<glyph unicode="&#x178;" horiz-adv-x="367" d="M26 669q16 0 23.5 -11t11 -27t4.5 -32.5t4 -27.5q2 -9 12 -32.5t25 -54.5l30 -66l30 -64l24 -50q10 -21 12 -26q10 11 25.5 42t30.5 66.5t25.5 66.5t10.5 42q0 12 -2.5 17t-5 8.5t-5 9t-2.5 19.5q0 12 10 18t15 6q35 0 43.5 -19.5t8.5 -56.5q0 -23 -11.5 -60t-30 -80 t-41.5 -89l-47 -90q-23 -44 -45 -80l-37 -60q-17 -26 -24 -51.5t-12 -45.5t-11.5 -32.5t-21.5 -12.5q-12 0 -20.5 7.5t-8.5 23.5q0 22 13.5 53.5t34.5 66.5l44 73l43 74l-21 42l-20 45l-23 51l-27 60q-29 63 -53 128t-24 127q0 22 13 22zM67 684q0 13 5 25t12.5 21.5 t15.5 15.5t14 6q20 0 34.5 -11.5t14.5 -31.5q0 -10 -1 -23.5t-4.5 -25.5t-10 -20.5t-18.5 -8.5q-27 0 -44.5 14.5t-17.5 38.5zM227 703q0 12 5.5 23t14.5 20t20.5 14.5t23.5 5.5q11 0 22.5 -1.5t20.5 -6t15 -12t6 -19.5q0 -14 -9.5 -27.5t-23 -24t-29.5 -17t-28 -6.5 q-16 0 -27 17.5t-11 33.5z" />
<glyph unicode="&#x2c6;" horiz-adv-x="265" d="M91 575q9 0 35.5 -10.5t54.5 -28t50 -41t22 -49.5q0 -6 -5.5 -8t-12.5 -2q-22 0 -35 13.5t-23.5 29t-22.5 29t-31 13.5q-18 -10 -29.5 -23.5t-20 -25.5t-17 -20.5t-21.5 -8.5q-9 0 -14.5 8.5t-5.5 19.5q0 13 8.5 28t20.5 29t25 26z" />
<glyph unicode="&#x2dc;" horiz-adv-x="294" d="M254 590q8 0 10.5 -6t2.5 -13q0 -9 -6 -22t-14 -26.5t-16 -25.5t-12 -19t-9.5 -12t-14.5 -5q-14 0 -25 6l-21 12q-10 7 -21 13t-26 6q-14 0 -20.5 -8t-11 -17.5t-9.5 -17.5t-15 -8q-7 0 -13 4.5t-6 8.5q0 3 5.5 18t14 32t19 30.5t21.5 13.5q5 0 17 -5q13 -5 22 -12 l17 -13q8 -6 17 -10.5t23 -4.5q8 0 15 13l16 28q9 15 18.5 27.5t21.5 12.5z" />
<glyph unicode="&#x2013;" horiz-adv-x="649" d="M552 345q12 0 25.5 -0.5t24 -3t17.5 -7t7 -12.5q0 -9 -10 -15t-26.5 -9.5t-37 -5t-41.5 -1.5q-19 0 -49 0.5t-65.5 1.5t-73.5 1.5t-72.5 1.5t-63.5 1.5t-46 0.5q-16 0 -23.5 -1t-13 -2.5t-12.5 -2.5t-21 -1q-26 0 -26 14q0 18 14.5 31t43.5 13q21 0 52 -1.5t63 -3.5 t61 -3.5t47 -1.5q25 0 56 1l63 2q32 1 60 2t47 1z" />
<glyph unicode="&#x2014;" horiz-adv-x="985" d="M839 345q20 0 41 -0.5t38 -3t28 -7t11 -12.5q0 -9 -16 -15t-42 -9.5t-59 -5t-66 -1.5q-30 0 -77.5 0.5t-103.5 1.5t-116.5 1.5t-116 1.5t-101 1.5t-72.5 0.5q-25 0 -37 -1t-21 -2.5t-20 -2.5t-33 -1q-42 0 -42 14q0 18 23 31t69 13q34 0 83 -1.5t100 -3.5t97 -3.5 t75 -1.5q40 0 89 1l100 2q50 1 94.5 2t74.5 1z" />
<glyph unicode="&#x2018;" horiz-adv-x="110" d="M9 711q0 12 5 16t16 4q16 0 28.5 -21t21.5 -49.5t14 -57.5t5 -45q0 -11 -1 -20t-9 -9q-5 0 -14 3q-5 0 -15.5 24.5t-22 56t-20 60.5t-8.5 38z" />
<glyph unicode="&#x2019;" horiz-adv-x="125" d="M99 757q7 0 11 -6t4 -12q0 -16 -5 -29t-12 -24.5t-14.5 -22.5t-12.5 -23l-8 -19q-4 -12 -10 -23t-12.5 -18.5t-12.5 -7.5q-16 0 -16 17v8q3 20 10 43t17 44q14 30 30 51.5t31 21.5z" />
<glyph unicode="&#x201a;" horiz-adv-x="102" d="M75 121q11 0 16 -4t5 -16q0 -8 -6 -28l-14 -45q-17 -48 -29 -78.5t-31 -30.5q-8 0 -9 9t-1 20q0 16 4.5 45t13.5 57.5t21.5 49.5t29.5 21z" />
<glyph unicode="&#x201c;" horiz-adv-x="190" d="M94 711q0 12 5 16t16 4q16 0 28.5 -21t21.5 -49.5t14 -57.5t5 -45q0 -11 -1 -20t-9 -9q-5 0 -14 3q-5 0 -15.5 24.5t-22 56t-20 60.5t-8.5 38zM22 705q15 0 31 -21.5t30 -51.5q10 -21 17 -44t10 -43v-8q0 -17 -16 -17q-6 0 -12.5 7.5t-12.5 18.5t-10 22l-8 20 q-5 12 -12.5 23t-14.5 22.5t-12 24.5t-5 29q0 6 4 12t11 6z" />
<glyph unicode="&#x201d;" horiz-adv-x="190" d="M164 695q7 0 11 -6t4 -12q0 -16 -5 -29t-12 -24.5t-14.5 -22.5t-12.5 -23l-8 -19q-4 -12 -10 -23t-12.5 -18.5t-12.5 -7.5q-16 0 -16 17v8q3 20 10 43t17 44q14 30 30 51.5t31 21.5zM96 711q0 -6 -4 -21.5t-11 -35.5l-14 -41q-7 -22 -14.5 -40t-13.5 -29.5t-9 -11.5 q-9 -3 -14 -3q-8 0 -9 9t-1 20q0 16 5 45t14 57.5t21.5 49.5t28.5 21q11 0 16 -4t5 -16z" />
<glyph unicode="&#x201e;" horiz-adv-x="190" d="M164 85q7 0 11 -6t4 -12q0 -16 -5 -29t-12 -24.5t-14.5 -22.5t-12.5 -23l-8 -19q-4 -12 -10 -23t-12.5 -18.5t-12.5 -7.5q-16 0 -16 17v8q3 20 10 43t17 44q14 30 30 51.5t31 21.5zM96 101q0 -8 -6 -28l-14 -45q-6 -19 -13 -38t-13.5 -34t-11.5 -24.5t-8 -9.5 q-9 -3 -14 -3q-8 0 -9 9t-1 20q0 16 5 45.5t14 58.5q9 28 21.5 48.5t28.5 20.5q11 0 16 -4t5 -16z" />
<glyph unicode="&#x2022;" horiz-adv-x="330" d="M192 454q21 0 35 -11.5t21.5 -29.5t10.5 -39t3 -39q0 -35 -14.5 -53.5t-37 -27t-50 -10t-53.5 -1.5t-37 22t-11 49q0 10 10.5 33.5t29 47t42.5 41.5t51 18z" />
<glyph unicode="&#x2026;" horiz-adv-x="1060" d="M158 76q46 0 46 -41q0 -8 -1.5 -17.5t-6 -17.5t-13 -13.5t-23.5 -5.5q-5 0 -12 1.5t-14 6t-12 13.5t-5 23q0 21 10.5 36t30.5 15zM532 85q46 0 46 -39q0 -8 -1.5 -17.5t-6 -18t-13 -14.5t-23.5 -6q-5 0 -12 2t-14.5 7t-12.5 14.5t-5 23.5q0 21 11 34.5t31 13.5zM918 85 q23 0 32 -7.5t9 -27.5q0 -8 -0.5 -18.5t-4.5 -19.5t-11.5 -15.5t-22.5 -6.5q-5 0 -11.5 2.5t-13.5 8t-11.5 13t-4.5 16.5v13q0 42 39 42z" />
<glyph unicode="&#x2039;" horiz-adv-x="192" d="M139 227q-14 0 -28.5 8.5t-28.5 20.5t-27 25l-20 22q0 9 10.5 35.5t28 54.5t41 50t49.5 22q6 0 8 -5.5t2 -12.5q0 -22 -13.5 -35t-29 -23.5t-29 -22.5t-13.5 -31q10 -18 23.5 -29.5t25.5 -20t20.5 -17t8.5 -21.5q0 -9 -8.5 -14.5t-19.5 -5.5z" />
<glyph unicode="&#x203a;" horiz-adv-x="192" d="M71 465q13 0 28 -8.5t29 -20.5t27 -25l20 -22q0 -9 -10.5 -35.5t-28 -54.5t-41 -50t-49.5 -22q-6 0 -8 5.5t-2 12.5q0 22 13.5 35t29 23.5t29 22t13.5 31.5q-10 18 -23.5 29.5t-25.5 20t-20.5 17t-8.5 21.5q0 9 8.5 14.5t19.5 5.5z" />
<glyph unicode="&#x20ac;" horiz-adv-x="348" d="M233 418q12 0 22.5 -2.5t10.5 -10.5q0 -23 -21.5 -35t-52.5 -18.5t-65 -9t-59 -5.5q-1 -14 -1 -29v-33v-19h8q27 0 52.5 4t50.5 9t49 9t48 4q15 0 24.5 -2.5t9.5 -16.5q0 -15 -3.5 -22t-10 -10t-14.5 -3.5t-17 -1.5q-48 -8 -95.5 -13t-86.5 -7h-10q9 -49 36.5 -80 t83.5 -31q22 0 36.5 3.5t24.5 7t17.5 7t16.5 3.5q19 0 26 -15t7 -26q0 -19 -13 -33.5t-32 -24t-40.5 -14.5t-38.5 -5q-39 0 -66.5 16.5t-46.5 43.5t-30 61.5t-17 70.5l-3 15h-44q-11 0 -18 -3t-13 -7t-11 -7t-10 -3q-18 0 -18 21q0 4 2.5 13.5t8.5 19t16.5 16.5t27.5 7 q19 0 28 -2t26 -2q-2 14 -2 32v32v15q-57 0 -84 4.5t-27 17.5q0 23 4.5 29.5t11.5 6.5q27 0 52 1t48 4l6 30q8 39 25.5 72t46.5 57t71 38t99 14q16 0 23 -14t7 -23q0 -28 -29 -33q-51 -8 -86.5 -19t-59 -27.5t-37.5 -38.5t-21 -51q2 1 9 1q36 5 72 8.5t76 3.5z" />
<glyph unicode="&#x2122;" horiz-adv-x="471" d="M251 624q5 0 10.5 -9t11 -23t10.5 -31l10 -35q12 -46 22.5 -76t27.5 -48q2 12 4.5 28.5t5.5 34t6.5 33t6.5 24.5q5 19 9.5 41.5t9 42.5t10 33.5t13.5 13.5q11 0 16.5 -15.5t8.5 -38.5q3 -22 6.5 -69.5t3.5 -132.5q0 -35 -2.5 -42.5t-9.5 -7.5q-17 0 -22 19.5t-5 40.5 q0 20 1.5 38t1.5 34q0 11 -0.5 28t-1.5 22q-6 -14 -11.5 -34t-5.5 -28q-2 -20 -3 -42.5t-4 -42t-10 -32.5t-21 -13q-25 0 -29 13q-5 20 -11 29.5t-12 23.5q-2 5 -4 17.5t-6.5 28t-12 33t-19.5 32.5q-2 -17 -4 -43l-4 -53q-2 -26 -3 -47t-1 -28q-2 -18 -5 -28.5t-16 -10.5 t-13 13q0 10 2 34l3 54q2 30 5 61l4 56q4 51 8.5 76.5t18.5 25.5zM118 281q-18 0 -21 8.5t-3 38.5q0 16 1.5 37t4.5 43l6 44q3 22 6 40q3 20 5.5 33t4 24t2.5 22t1 28q-15 0 -34 1t-36 5t-29 12t-12 22q0 10 5.5 16.5t14.5 6.5q17 0 33 -8.5t36 -8.5q14 0 35 4t45 4 q20 0 26 -11t6 -18q0 -15 -12 -18t-27 -3q-11 0 -15.5 -17.5t-7.5 -53.5q-7 -86 -10.5 -136t-6.5 -75.5t-6.5 -32.5t-11.5 -7z" />
<glyph unicode="&#xe000;" horiz-adv-x="395" d="M0 395h395v-395h-395v395z" />
<glyph unicode="&#xfb01;" horiz-adv-x="461" d="M372 502q9 0 16.5 -6t13 -15t8.5 -18.5t3 -16.5q-2 -75 -8.5 -159.5t-14.5 -162.5q-2 -20 -2.5 -39.5t-4 -35t-12.5 -25t-28 -9.5q-7 0 -13 10.5t-6 46.5q0 24 1 65.5t3 89.5t5.5 97t9 88.5t12.5 64.5t17 25zM-43 421q0 17 13 33t30 16q8 0 15 -7l15 -15q8 -8 18.5 -15 t25.5 -7q5 0 13.5 2.5t8.5 9.5q0 30 4 65t13.5 70.5t25 69t37 59t50.5 41t66 15.5q22 0 44 -10t39 -29.5t27.5 -48.5t10.5 -67q0 -17 -4.5 -28t-20.5 -11q-8 0 -13 11t-9.5 28t-9 36.5t-11.5 36.5t-18 28t-27 11q-44 0 -73.5 -33t-47.5 -79.5t-25.5 -95.5t-7.5 -81 q0 -27 15.5 -39t33.5 -19.5t33.5 -17t15.5 -31.5q-23 0 -39.5 3.5t-36.5 3.5q-5 0 -13 -6.5t-9 -14.5q-4 -85 -7 -171l-6 -172q-1 -5 -8 -6t-13 -1h-15q-8 97 -8 197.5t-5 197.5q-1 20 -21 26.5t-43.5 10t-43 9.5t-19.5 25z" />
<glyph unicode="&#xfb02;" horiz-adv-x="420" d="M-43 421q0 17 13 33t30 16q8 0 15 -7l15 -15q8 -8 18.5 -15t25.5 -7q16 0 19 17.5t3 62.5q0 47 4 93t18 82t40.5 58.5t72.5 22.5q45 0 66.5 -18.5t21.5 -45.5q0 -18 -30 -18q-12 0 -16 6t-7 13.5t-8.5 13.5t-18.5 6q-32 0 -50.5 -18t-28.5 -46t-13 -63t-3 -69 q0 -28 1 -53t1 -44q0 -27 15.5 -39t33.5 -19.5t33.5 -17t15.5 -31.5q-23 0 -39.5 3.5t-36.5 3.5q-5 0 -13 -6.5t-9 -14.5q-4 -85 -7 -171l-6 -172q-1 -5 -8 -6t-13 -1h-15q-8 97 -8 197.5t-5 197.5q-1 20 -21 26.5t-43.5 10t-43 9.5t-19.5 25zM375 717q13 0 17 -8.5t4 -22.5 q0 -9 -2.5 -53t-6.5 -107l-9 -136q-5 -73 -9 -139t-6.5 -116t-2.5 -67q0 -33 -5 -47t-18 -14q-17 0 -17 44q0 81 2.5 150.5t6 138t6 139.5t2.5 155q0 16 1.5 31t5.5 26.5t11.5 18.5t19.5 7z" />
<glyph unicode="&#xfb03;" horiz-adv-x="750" d="M661 502q9 0 16.5 -6t13 -15t8.5 -18.5t3 -16.5q-2 -75 -8.5 -159.5t-14.5 -162.5q-2 -20 -2.5 -39.5t-4 -35t-12.5 -25t-28 -9.5q-7 0 -13 10.5t-6 46.5q0 24 1 65.5t3 89.5t5.5 97t9 88.5t12.5 64.5t17 25zM620 654q0 11 14.5 15t26.5 4q25 0 45.5 -17t20.5 -43 q0 -12 -6 -19.5t-15.5 -12.5t-21 -7t-23.5 -2q-15 0 -23 8t-12 20t-5 26.5t-1 27.5zM246 421q0 17 13 33t30 16q8 0 15 -7l15 -15q8 -8 18.5 -15t25.5 -7q5 0 13.5 2.5t8.5 9.5q0 30 4 65t13.5 70.5t25 69t37 59t50.5 41t66 15.5q22 0 44 -5.5t39 -17t27.5 -29.5t10.5 -43 q0 -17 -4.5 -28t-20.5 -11q-12 0 -18 14l-13 32q-8 17 -20.5 31t-36.5 14q-44 0 -73.5 -33t-47.5 -79.5t-25.5 -95.5t-7.5 -81q0 -13 2.5 -23.5t9.5 -17.5q13 -12 33 -16t35 -11q20 -9 20 -29q0 -10 -14 -10q-18 1 -32.5 4t-31.5 3q-10 0 -18.5 -19t-8.5 -49q0 -10 1 -28 t1.5 -41t1.5 -49t1 -52q0 -27 -1.5 -52t-5 -43.5t-10.5 -29.5t-18 -11q-16 0 -19 16.5t-3 48.5q0 98 -1 184t-4 149q-1 20 -21 26.5t-43.5 10t-43 9.5t-19.5 25zM-43 421q0 17 13 33t30 16q8 0 15 -7l15 -15q8 -8 18.5 -15t25.5 -7q5 0 13.5 2.5t8.5 9.5q0 30 4 65 t13.5 70.5t25 69t37 59t50.5 41t66 15.5q22 0 44 -5.5t39 -17t27.5 -29.5t10.5 -43q0 -17 -4.5 -28t-20.5 -11q-12 0 -18 14l-14 32q-7 17 -19.5 31t-36.5 14q-44 0 -73.5 -33t-47.5 -79.5t-25.5 -95.5t-7.5 -81q0 -13 2.5 -23.5t9.5 -17.5q13 -12 33 -16t35 -11 q20 -9 20 -29q0 -10 -14 -10q-18 1 -32.5 4t-31.5 3q-10 0 -18.5 -19t-8.5 -49q0 -10 1 -28t1.5 -41t1.5 -49t1 -52q0 -27 -1.5 -52t-5 -43.5t-10.5 -29.5t-18 -11q-16 0 -19 16.5t-3 48.5q0 98 -1 184t-4 149q-1 20 -21 26.5t-43.5 10t-43 9.5t-19.5 25z" />
<glyph unicode="&#xfb04;" horiz-adv-x="709" d="M664 717q13 0 17 -8.5t4 -22.5q0 -13 -1.5 -35t-3 -48.5t-2.5 -53.5t-1 -50q0 -17 -2 -49t-5 -71.5t-7 -83.5t-7 -86t-5 -79t-2 -62q0 -33 -5 -47t-18 -14q-17 0 -17 44q0 81 2.5 150.5t6 138t6 139.5t2.5 155q0 16 1.5 31t5.5 26.5t11.5 18.5t19.5 7zM246 421 q0 17 13 33t30 16q8 0 15 -7l15 -15q8 -8 18.5 -15t25.5 -7q5 0 13.5 2.5t8.5 9.5q0 30 4 65t13.5 70.5t25 69t37 59t50.5 41t66 15.5q22 0 44 -5.5t39 -17t27.5 -29.5t10.5 -43q0 -17 -4.5 -28t-20.5 -11q-12 0 -18 14l-13 32q-8 17 -20.5 31t-36.5 14q-44 0 -73.5 -33 t-47.5 -79.5t-25.5 -95.5t-7.5 -81q0 -13 2.5 -23.5t9.5 -17.5q13 -12 33 -16t35 -11q20 -9 20 -29q0 -10 -14 -10q-18 1 -32.5 4t-31.5 3q-10 0 -18.5 -19t-8.5 -49q0 -10 1 -28t1.5 -41t1.5 -49t1 -52q0 -27 -1.5 -52t-5 -43.5t-10.5 -29.5t-18 -11q-16 0 -19 16.5 t-3 48.5q0 98 -1 184t-4 149q-1 20 -21 26.5t-43.5 10t-43 9.5t-19.5 25zM-43 421q0 17 13 33t30 16q8 0 15 -7l15 -15q8 -8 18.5 -15t25.5 -7q5 0 13.5 2.5t8.5 9.5q0 30 4 65t13.5 70.5t25 69t37 59t50.5 41t66 15.5q22 0 44 -5.5t39 -17t27.5 -29.5t10.5 -43 q0 -17 -4.5 -28t-20.5 -11q-12 0 -18 14l-14 32q-7 17 -19.5 31t-36.5 14q-44 0 -73.5 -33t-47.5 -79.5t-25.5 -95.5t-7.5 -81q0 -13 2.5 -23.5t9.5 -17.5q13 -12 33 -16t35 -11q20 -9 20 -29q0 -10 -14 -10q-18 1 -32.5 4t-31.5 3q-10 0 -18.5 -19t-8.5 -49q0 -10 1 -28 t1.5 -41t1.5 -49t1 -52q0 -27 -1.5 -52t-5 -43.5t-10.5 -29.5t-18 -11q-16 0 -19 16.5t-3 48.5q0 98 -1 184t-4 149q-1 20 -21 26.5t-43.5 10t-43 9.5t-19.5 25z" />
</font>
</defs>
</svg>
